<svg xmlns="http://www.w3.org/2000/svg" xmlns:xlink="http://www.w3.org/1999/xlink" width="116.005" height="109.191" viewBox="0 0 116.005 109.191">
  <defs>
    <clipPath id="clip-path">
      <path id="Trazado_773413" data-name="Trazado 773413" d="M40.929,742.342a2.29,2.29,0,1,0,2.29-2.291,2.29,2.29,0,0,0-2.29,2.291" transform="translate(-40.929 -740.051)" fill="#ff6148"/>
    </clipPath>
    <clipPath id="clip-path-2">
      <path id="Trazado_773415" data-name="Trazado 773415" d="M40.929,707.431a2.29,2.29,0,1,0,2.29-2.291h0a2.293,2.293,0,0,0-2.29,2.291" transform="translate(-40.929 -705.14)" fill="#ff6148"/>
    </clipPath>
    <clipPath id="clip-path-3">
      <path id="Trazado_773417" data-name="Trazado 773417" d="M43.22,667.25a2.289,2.289,0,1,0,2.29,2.291A2.289,2.289,0,0,0,43.22,667.25Z" transform="translate(-40.931 -667.25)" fill="#ff6148"/>
    </clipPath>
    <clipPath id="clip-path-4">
      <path id="Trazado_773419" data-name="Trazado 773419" d="M71.291,742.342a2.289,2.289,0,1,0,2.289-2.291,2.289,2.289,0,0,0-2.289,2.291" transform="translate(-71.291 -740.051)" fill="#ff6148"/>
    </clipPath>
    <clipPath id="clip-path-5">
      <path id="Trazado_773421" data-name="Trazado 773421" d="M71.291,707.431a2.289,2.289,0,1,0,2.289-2.291,2.289,2.289,0,0,0-2.289,2.291" transform="translate(-71.291 -705.14)" fill="#ff6148"/>
    </clipPath>
    <clipPath id="clip-path-6">
      <path id="Trazado_773423" data-name="Trazado 773423" d="M73.581,667.25a2.289,2.289,0,1,0,2.29,2.29A2.289,2.289,0,0,0,73.581,667.25Z" transform="translate(-71.292 -667.25)" fill="#ff6148"/>
    </clipPath>
    <clipPath id="clip-path-7">
      <path id="Trazado_773425" data-name="Trazado 773425" d="M102.965,742.342a2.29,2.29,0,1,0,2.289-2.291,2.29,2.29,0,0,0-2.289,2.291" transform="translate(-102.965 -740.051)" fill="#ff6148"/>
    </clipPath>
    <clipPath id="clip-path-8">
      <path id="Trazado_773427" data-name="Trazado 773427" d="M102.965,707.431a2.29,2.29,0,1,0,2.29-2.291h0a2.293,2.293,0,0,0-2.289,2.291" transform="translate(-102.965 -705.14)" fill="#ff6148"/>
    </clipPath>
    <clipPath id="clip-path-9">
      <path id="Trazado_773429" data-name="Trazado 773429" d="M105.255,667.25a2.289,2.289,0,1,0,2.29,2.291A2.289,2.289,0,0,0,105.255,667.25Z" transform="translate(-102.966 -667.25)" fill="#ff6148"/>
    </clipPath>
    <clipPath id="clip-path-10">
      <path id="Trazado_773431" data-name="Trazado 773431" d="M133.326,742.342a2.289,2.289,0,1,0,2.29-2.291,2.289,2.289,0,0,0-2.29,2.291" transform="translate(-133.326 -740.051)" fill="#ff6148"/>
    </clipPath>
    <clipPath id="clip-path-11">
      <path id="Trazado_773433" data-name="Trazado 773433" d="M133.326,707.431a2.289,2.289,0,1,0,2.29-2.291,2.29,2.29,0,0,0-2.29,2.291" transform="translate(-133.326 -705.14)" fill="#ff6148"/>
    </clipPath>
    <clipPath id="clip-path-12">
      <path id="Trazado_773435" data-name="Trazado 773435" d="M135.617,667.25a2.289,2.289,0,1,0,2.29,2.29A2.289,2.289,0,0,0,135.617,667.25Z" transform="translate(-133.328 -667.25)" fill="#ff6148"/>
    </clipPath>
  </defs>
  <g id="Grupo_1070551" data-name="Grupo 1070551" transform="translate(-180 -2428.133)">
    <path id="Intersección_2" data-name="Intersección 2" d="M8181,11816a10.005,10.005,0,0,1-9.5-6.881v-55.243l32.093-32.066c12.724-12.705,28.045-17.5,45.668-13.774a48.556,48.556,0,0,1,37.733,54.691c-1.646,11.55-7.273,20.988-15.5,29.2q-12.048,12.037-24.093,24.071Z" transform="translate(-7991.497 -9278.676)" fill="#ffe4d9"/>
    <g id="Grupo_1064375" data-name="Grupo 1064375" transform="translate(172.257 1794.58)" opacity="0.42">
      <g id="Grupo_1064374" data-name="Grupo 1064374" transform="translate(40.929 667.25)">
        <g id="Group_881454" data-name="Group 881454" transform="translate(0 37.216)">
          <g id="Grupo_1064351" data-name="Grupo 1064351">
            <path id="Trazado_773412" data-name="Trazado 773412" d="M40.929,742.342a2.29,2.29,0,1,0,2.29-2.291,2.29,2.29,0,0,0-2.29,2.291" transform="translate(-40.929 -740.051)" fill="#ff6148"/>
            <g id="Grupo_1064350" data-name="Grupo 1064350" clip-path="url(#clip-path)">
              <g id="Group_881453" data-name="Group 881453" transform="translate(0 0)">
                <rect id="Rectangle_298909" data-name="Rectangle 298909" width="4.58" height="4.58" fill="#ff6148"/>
              </g>
            </g>
          </g>
        </g>
        <g id="Group_881456" data-name="Group 881456" transform="translate(0 19.37)">
          <g id="Grupo_1064353" data-name="Grupo 1064353">
            <path id="Trazado_773414" data-name="Trazado 773414" d="M40.929,707.431a2.29,2.29,0,1,0,2.29-2.291h0a2.293,2.293,0,0,0-2.29,2.291" transform="translate(-40.929 -705.14)" fill="#ff6148"/>
            <g id="Grupo_1064352" data-name="Grupo 1064352" clip-path="url(#clip-path-2)">
              <g id="Group_881455" data-name="Group 881455" transform="translate(0 0)">
                <rect id="Rectangle_298910" data-name="Rectangle 298910" width="4.58" height="4.58" fill="#ff6148"/>
              </g>
            </g>
          </g>
        </g>
        <g id="Group_881458" data-name="Group 881458" transform="translate(0.001)">
          <g id="Grupo_1064355" data-name="Grupo 1064355">
            <path id="Trazado_773416" data-name="Trazado 773416" d="M43.22,667.25a2.289,2.289,0,1,0,2.29,2.291A2.289,2.289,0,0,0,43.22,667.25Z" transform="translate(-40.931 -667.25)" fill="#ff6148"/>
            <g id="Grupo_1064354" data-name="Grupo 1064354" clip-path="url(#clip-path-3)">
              <g id="Group_881457" data-name="Group 881457" transform="translate(-0.001 0.001)">
                <rect id="Rectangle_298911" data-name="Rectangle 298911" width="4.58" height="4.579" fill="#ff6148"/>
              </g>
            </g>
          </g>
        </g>
        <g id="Group_881460" data-name="Group 881460" transform="translate(15.521 37.216)">
          <g id="Grupo_1064357" data-name="Grupo 1064357">
            <path id="Trazado_773418" data-name="Trazado 773418" d="M71.291,742.342a2.289,2.289,0,1,0,2.289-2.291,2.289,2.289,0,0,0-2.289,2.291" transform="translate(-71.291 -740.051)" fill="#ff6148"/>
            <g id="Grupo_1064356" data-name="Grupo 1064356" clip-path="url(#clip-path-4)">
              <g id="Group_881459" data-name="Group 881459" transform="translate(0 0)">
                <rect id="Rectangle_298912" data-name="Rectangle 298912" width="4.58" height="4.58" fill="#ff6148"/>
              </g>
            </g>
          </g>
        </g>
        <g id="Group_881462" data-name="Group 881462" transform="translate(15.521 19.37)">
          <g id="Grupo_1064359" data-name="Grupo 1064359">
            <path id="Trazado_773420" data-name="Trazado 773420" d="M71.291,707.431a2.289,2.289,0,1,0,2.289-2.291,2.289,2.289,0,0,0-2.289,2.291" transform="translate(-71.291 -705.14)" fill="#ff6148"/>
            <g id="Grupo_1064358" data-name="Grupo 1064358" clip-path="url(#clip-path-5)">
              <g id="Group_881461" data-name="Group 881461" transform="translate(0 0)">
                <rect id="Rectangle_298913" data-name="Rectangle 298913" width="4.58" height="4.58" fill="#ff6148"/>
              </g>
            </g>
          </g>
        </g>
        <g id="Group_881464" data-name="Group 881464" transform="translate(15.522)">
          <g id="Grupo_1064361" data-name="Grupo 1064361">
            <path id="Trazado_773422" data-name="Trazado 773422" d="M73.581,667.25a2.289,2.289,0,1,0,2.29,2.29A2.289,2.289,0,0,0,73.581,667.25Z" transform="translate(-71.292 -667.25)" fill="#ff6148"/>
            <g id="Grupo_1064360" data-name="Grupo 1064360" clip-path="url(#clip-path-6)">
              <g id="Group_881463" data-name="Group 881463" transform="translate(-0.001 0.001)">
                <rect id="Rectangle_298914" data-name="Rectangle 298914" width="4.58" height="4.579" fill="#ff6148"/>
              </g>
            </g>
          </g>
        </g>
        <g id="Group_881454-2" data-name="Group 881454" transform="translate(31.713 37.216)">
          <g id="Grupo_1064363" data-name="Grupo 1064363">
            <path id="Trazado_773424" data-name="Trazado 773424" d="M102.965,742.342a2.29,2.29,0,1,0,2.289-2.291,2.29,2.29,0,0,0-2.289,2.291" transform="translate(-102.965 -740.051)" fill="#ff6148"/>
            <g id="Grupo_1064362" data-name="Grupo 1064362" clip-path="url(#clip-path-7)">
              <g id="Group_881453-2" data-name="Group 881453" transform="translate(0 0)">
                <rect id="Rectangle_298909-2" data-name="Rectangle 298909" width="4.58" height="4.58" fill="#ff6148"/>
              </g>
            </g>
          </g>
        </g>
        <g id="Group_881456-2" data-name="Group 881456" transform="translate(31.713 19.37)">
          <g id="Grupo_1064365" data-name="Grupo 1064365">
            <path id="Trazado_773426" data-name="Trazado 773426" d="M102.965,707.431a2.29,2.29,0,1,0,2.29-2.291h0a2.293,2.293,0,0,0-2.289,2.291" transform="translate(-102.965 -705.14)" fill="#ff6148"/>
            <g id="Grupo_1064364" data-name="Grupo 1064364" clip-path="url(#clip-path-8)">
              <g id="Group_881455-2" data-name="Group 881455" transform="translate(0 0)">
                <rect id="Rectangle_298910-2" data-name="Rectangle 298910" width="4.58" height="4.58" fill="#ff6148"/>
              </g>
            </g>
          </g>
        </g>
        <g id="Group_881458-2" data-name="Group 881458" transform="translate(31.714)">
          <g id="Grupo_1064367" data-name="Grupo 1064367">
            <path id="Trazado_773428" data-name="Trazado 773428" d="M105.255,667.25a2.289,2.289,0,1,0,2.29,2.291A2.289,2.289,0,0,0,105.255,667.25Z" transform="translate(-102.966 -667.25)" fill="#ff6148"/>
            <g id="Grupo_1064366" data-name="Grupo 1064366" clip-path="url(#clip-path-9)">
              <g id="Group_881457-2" data-name="Group 881457" transform="translate(-0.001 0.001)">
                <rect id="Rectangle_298911-2" data-name="Rectangle 298911" width="4.58" height="4.579" fill="#ff6148"/>
              </g>
            </g>
          </g>
        </g>
        <g id="Group_881460-2" data-name="Group 881460" transform="translate(47.234 37.216)">
          <g id="Grupo_1064369" data-name="Grupo 1064369">
            <path id="Trazado_773430" data-name="Trazado 773430" d="M133.326,742.342a2.289,2.289,0,1,0,2.29-2.291,2.289,2.289,0,0,0-2.29,2.291" transform="translate(-133.326 -740.051)" fill="#ff6148"/>
            <g id="Grupo_1064368" data-name="Grupo 1064368" clip-path="url(#clip-path-10)">
              <g id="Group_881459-2" data-name="Group 881459" transform="translate(0 0)">
                <rect id="Rectangle_298912-2" data-name="Rectangle 298912" width="4.58" height="4.58" fill="#ff6148"/>
              </g>
            </g>
          </g>
        </g>
        <g id="Group_881462-2" data-name="Group 881462" transform="translate(47.234 19.37)">
          <g id="Grupo_1064371" data-name="Grupo 1064371">
            <path id="Trazado_773432" data-name="Trazado 773432" d="M133.326,707.431a2.289,2.289,0,1,0,2.29-2.291,2.29,2.29,0,0,0-2.29,2.291" transform="translate(-133.326 -705.14)" fill="#ff6148"/>
            <g id="Grupo_1064370" data-name="Grupo 1064370" clip-path="url(#clip-path-11)">
              <g id="Group_881461-2" data-name="Group 881461" transform="translate(0 0)">
                <rect id="Rectangle_298913-2" data-name="Rectangle 298913" width="4.58" height="4.58" fill="#ff6148"/>
              </g>
            </g>
          </g>
        </g>
        <g id="Group_881464-2" data-name="Group 881464" transform="translate(47.235)">
          <g id="Grupo_1064373" data-name="Grupo 1064373">
            <path id="Trazado_773434" data-name="Trazado 773434" d="M135.617,667.25a2.289,2.289,0,1,0,2.29,2.29A2.289,2.289,0,0,0,135.617,667.25Z" transform="translate(-133.328 -667.25)" fill="#ff6148"/>
            <g id="Grupo_1064372" data-name="Grupo 1064372" clip-path="url(#clip-path-12)">
              <g id="Group_881463-2" data-name="Group 881463" transform="translate(-0.001 0.001)">
                <rect id="Rectangle_298914-2" data-name="Rectangle 298914" width="4.58" height="4.579" fill="#ff6148"/>
              </g>
            </g>
          </g>
        </g>
      </g>
    </g>
  </g>
</svg>
