<svg xmlns="http://www.w3.org/2000/svg" width="92" height="92" viewBox="0 0 92 92">
  <g id="Grupo_1070555" data-name="Grupo 1070555" transform="translate(-603 -1862)">
    <g id="Grupo_1070175" data-name="Grupo 1070175" transform="translate(-530)">
      <g id="Grupo_1070117" data-name="Grupo 1070117" transform="translate(0 990)">
        <circle id="Elipse_9028" data-name="Elipse 9028" cx="46" cy="46" r="46" transform="translate(1133 872)" fill="#f77e6b"/>
      </g>
      <g id="extraccion-de-textos" transform="translate(1143.004 1857.39)">
        <path id="Trazado_816794" data-name="Trazado 816794" d="M162.89,39.632l6.329-6.332v6.332Z" transform="translate(-138.364 -8.546)" fill="#fedf30" fill-rule="evenodd"/>
        <path id="Trazado_816795" data-name="Trazado 816795" d="M111.761,410.1a31.427,31.427,0,0,0,5.792-.5,12.364,12.364,0,0,0,4.189-1.442l.73-.475v5.542c0,1.131-2.22,1.905-3.055,2.159a21.245,21.245,0,0,1-3.518.717,34.631,34.631,0,0,1-8.274,0,21.245,21.245,0,0,1-3.518-.717c-.835-.254-3.055-1.028-3.055-2.159V407.68l.73.475a12.365,12.365,0,0,0,4.189,1.442A31.447,31.447,0,0,0,111.761,410.1Z" transform="translate(-83.827 -338.709)" fill="#ffb476" fill-rule="evenodd"/>
        <path id="Trazado_816796" data-name="Trazado 816796" d="M122.5,351.47v5.542c0,1.131-2.219,1.905-3.054,2.16a21.244,21.244,0,0,1-3.518.717,34.783,34.783,0,0,1-8.273,0,21.123,21.123,0,0,1-3.518-.717c-.835-.254-3.054-1.028-3.054-2.16V351.47l.73.475A12.339,12.339,0,0,0,106,353.387a33.658,33.658,0,0,0,11.583,0,12.339,12.339,0,0,0,4.189-1.442Z" transform="translate(-83.854 -289.138)" fill="#eceff1" fill-rule="evenodd"/>
        <path id="Trazado_816797" data-name="Trazado 816797" d="M408.735,237.43l6.654,5.664a2.712,2.712,0,0,1,.935,1.988,3.243,3.243,0,0,1-3.373,3.373,2.717,2.717,0,0,1-1.987-.937l-5.664-6.655Z" transform="translate(-352.144 -188.567)" fill="#ff6148" fill-rule="evenodd"/>
        <path id="Trazado_816798" data-name="Trazado 816798" d="M391.769,220.94l1.99,1.691-3.391,3.39-1.708-2.01.4-.3a12.459,12.459,0,0,0,2.4-2.377Z" transform="translate(-337.469 -174.024)" fill="#f1f1f2" fill-rule="evenodd"/>
        <path id="Trazado_816799" data-name="Trazado 816799" d="M227.25,70.494a12.024,12.024,0,1,1,12.023,12.024A12.037,12.037,0,0,1,227.25,70.494Z" transform="translate(-195.122 -30.743)" fill="#ffb476" fill-rule="evenodd"/>
        <path id="Trazado_816800" data-name="Trazado 816800" d="M162.48,51.516l.827-.824a1.564,1.564,0,0,0,0-2.207l-1.7-1.7a1.541,1.541,0,0,0-.718-.405l-.357-.09V37.953h6.806a.2.2,0,0,0,.2-.2V30.95h28.773V57.742l-5.5-4.682.213-.345a12.428,12.428,0,1,0-4.22,4.17l.344-.206,7.662,9a3.015,3.015,0,0,0,1.2.854l.3.117V75.3H175.322V61.068c0-1.213-1.721-1.977-2.659-2.318a17.439,17.439,0,0,0-2.994-.761,30.3,30.3,0,0,0-3.516-.386l-.521-.028L166,55.152a.2.2,0,0,0-.056-.169Z" transform="translate(-136.282 -6.473)" fill="#f1f1f2" fill-rule="evenodd"/>
        <path id="Trazado_816801" data-name="Trazado 816801" d="M111.77,297.679a31.424,31.424,0,0,0,5.792-.5,12.364,12.364,0,0,0,4.189-1.442l.73-.474V300.8c0,1.131-2.22,1.9-3.055,2.159a21.248,21.248,0,0,1-3.518.717,34.622,34.622,0,0,1-8.273,0,21.248,21.248,0,0,1-3.518-.717c-.835-.254-3.055-1.028-3.055-2.159V295.26l.73.474a12.364,12.364,0,0,0,4.189,1.442A31.423,31.423,0,0,0,111.77,297.679Z" transform="translate(-83.836 -239.567)" fill="#ffb476" fill-rule="evenodd"/>
        <path id="Trazado_816802" data-name="Trazado 816802" d="M110.858,259.62l1.691,1.691a.2.2,0,0,0,.139.058.216.216,0,0,0,.061-.009.2.2,0,0,0,.132-.157l.242-1.572.426.021a24.027,24.027,0,0,1,6.254,1.039c.775.261,2.676,1,2.676,2.038,0,1.131-2.22,1.905-3.055,2.159a21.245,21.245,0,0,1-3.518.717,34.622,34.622,0,0,1-8.273,0,21.245,21.245,0,0,1-3.518-.717c-.835-.254-3.055-1.028-3.055-2.159,0-1.064,1.995-1.816,2.788-2.075a19.286,19.286,0,0,1,3.109-.705,31.507,31.507,0,0,1,3.7-.324Z" transform="translate(-83.836 -208.136)" fill="#eceff1" fill-rule="evenodd"/>
        <g id="Grupo_1070173" data-name="Grupo 1070173" transform="translate(14.709 38.015)">
          <path id="Trazado_816803" data-name="Trazado 816803" d="M164.381,213.94l2.629,2.629-.457,2.983-.142.921-4.281-4.281Z" transform="translate(-152.403 -205.866)" fill="#87d4ed" fill-rule="evenodd"/>
          <path id="Trazado_816804" data-name="Trazado 816804" d="M146.31,165.636l.826-.826a1.17,1.17,0,0,1,1.65,0l1.7,1.7a1.172,1.172,0,0,1,0,1.651l-.826.826Z" transform="translate(-138.451 -162.239)" fill="#87d4ed" fill-rule="evenodd"/>
          <path id="Trazado_816805" data-name="Trazado 816805" d="M84.051,150.461,79.77,146.18l3.9-.6,2.629,2.629Z" transform="translate(-79.77 -145.58)" fill="#87d4ed" fill-rule="evenodd"/>
        </g>
        <path id="Trazado_816806" data-name="Trazado 816806" d="M118.37,172.452l2.253-2.252,4.887,4.887-2.252,2.252Z" transform="translate(-99.102 -129.277)" fill="#f1f1f2" fill-rule="evenodd"/>
        <path id="Trazado_816807" data-name="Trazado 816807" d="M26.531,200.81l2.719,2.719L16.6,216.179a1.922,1.922,0,0,1-2.719-2.719Z" transform="translate(-6.457 -156.272)" fill="#c9e8e0" fill-rule="evenodd"/>
        <path id="Trazado_816808" data-name="Trazado 816808" d="M262.812,102.9a8.872,8.872,0,1,0-8.872-8.872A8.883,8.883,0,0,0,262.812,102.9Z" transform="translate(-218.66 -54.281)" fill="#87d4ed" fill-rule="evenodd"/>
        <path id="Trazado_816809" data-name="Trazado 816809" d="M257.27,96.969a8.478,8.478,0,1,1,8.478,8.479A8.488,8.488,0,0,1,257.27,96.969Z" transform="translate(-221.597 -57.217)" fill="#f1f1f2" fill-rule="evenodd"/>
        <path id="Trazado_816810" data-name="Trazado 816810" d="M289.4,142.721a.2.2,0,0,0,.139.058.191.191,0,0,0,.138-.058l5.974-5.974a.2.2,0,0,0-.278-.278l-5.834,5.834-3.268-3.268a.2.2,0,0,0-.278.279Z" transform="translate(-246.876 -99.48)" fill="#87d4ed" fill-rule="evenodd"/>
        <path id="Trazado_816811" data-name="Trazado 816811" d="M48.163,36.656l-5.5,5.5-2.934-2.934a.669.669,0,0,0-.946.947l3.406,3.406a.669.669,0,0,0,.946,0L49.109,37.6a.669.669,0,1,0-.946-.946Zm3.994,3.1a8.006,8.006,0,1,1-8.006-8.006A8.015,8.015,0,0,1,52.157,39.752Zm1.339,0a9.345,9.345,0,1,1-9.346-9.345A9.356,9.356,0,0,1,53.5,39.752ZM63.708,56.534a2.243,2.243,0,0,0-.77-1.646l-6.322-5.382L53.8,52.323l5.382,6.323a2.247,2.247,0,0,0,1.646.77,2.77,2.77,0,0,0,2.882-2.882ZM55.7,39.752A11.551,11.551,0,1,1,44.151,28.2,11.565,11.565,0,0,1,55.7,39.752ZM52.927,51.3l2.666-2.666L54.372,47.6a12.961,12.961,0,0,1-2.5,2.467Zm6.623,17.047H39.512V54.6c0-2.385-4.714-3.671-9.616-3.936l.293-1.907A.671.671,0,0,0,30,48.176l-3.133-3.133.491-.49a2.037,2.037,0,0,0,0-2.876l-1.7-1.7a2.022,2.022,0,0,0-.937-.529V31.952h6.334a.669.669,0,0,0,.67-.668V24.949H59.551v25.3l-4.415-3.757a12.9,12.9,0,1,0-4.378,4.327l7.4,8.7a3.478,3.478,0,0,0,1.39.987ZM38.172,74.514V69.843c-2.05,1.332-6.162,2.021-10.239,2.021s-8.187-.689-10.237-2.021v4.671c0,.437.841,1.135,2.72,1.707a26.95,26.95,0,0,0,7.517.944,26.953,26.953,0,0,0,7.519-.944c1.879-.572,2.72-1.27,2.72-1.707ZM17.7,67.874c0,.438.841,1.135,2.72,1.708a26.953,26.953,0,0,0,7.517.942,26.956,26.956,0,0,0,7.519-.942c1.879-.573,2.72-1.27,2.72-1.708V63.2c-2.05,1.333-6.162,2.021-10.239,2.021S19.747,64.536,17.7,63.2Zm0-6.639c0,.437.841,1.135,2.72,1.707a26.95,26.95,0,0,0,7.517.944,26.953,26.953,0,0,0,7.519-.944c1.879-.572,2.72-1.27,2.72-1.707V56.564c-2.05,1.332-6.162,2.021-10.239,2.021S19.747,57.9,17.7,56.564Zm4.429-13.978L9.808,59.573a1.45,1.45,0,0,1-2.05-2.05L20.075,45.207ZM15.7,38.94l3.288,3.288,1.584-1.584-2.126-2.126Zm13.111,9.943-2.126-2.126L25.1,48.341l3.288,3.288.065-.425ZM17.7,54.6c0,.437.841,1.135,2.72,1.707a26.95,26.95,0,0,0,7.517.944,26.953,26.953,0,0,0,7.519-.944c1.879-.572,2.72-1.27,2.72-1.707,0-.4-.728-1.042-2.355-1.591a23.765,23.765,0,0,0-6.126-1.016l-.177,1.15a.67.67,0,0,1-1.135.371l-1.547-1.547a24.968,24.968,0,0,0-6.673,1.006c-1.7.556-2.463,1.218-2.463,1.626ZM23.072,48.2l-3.586,3.586a24.066,24.066,0,0,1,6.067-1.1Zm-1.551-6.612-1.585,1.584,4.22,4.219L25.74,45.81Zm1.714-.18L25.92,44.1l.491-.491a.7.7,0,0,0,0-.983l-1.7-1.7a.7.7,0,0,0-.981,0Zm2.431-10.8h4.717V25.9Zm38.18,28.939a4.129,4.129,0,0,1-2.91,1.2H60.89v8.26a.67.67,0,0,1-.67.67H39.512v4.827c0,2.618-5.824,3.99-11.578,3.99s-11.577-1.371-11.577-3.99V54.919l-5.6,5.6a2.789,2.789,0,0,1-3.944-3.944L19.129,44.26l-5.308-5.306a.669.669,0,0,1,.372-1.135l4.388-.674a.668.668,0,0,1,.574.189l3.133,3.132.491-.491a2.023,2.023,0,0,1,.6-.412V31.283h0a.667.667,0,0,1,.194-.474l7-7a.667.667,0,0,1,.474-.194v0H60.22a.67.67,0,0,1,.67.67V51.386l2.916,2.483a3.568,3.568,0,0,1,1.24,2.612A4.124,4.124,0,0,1,63.846,59.553Zm-8.523,3.59H43.1a.67.67,0,0,0,0,1.339H55.324a.67.67,0,0,0,0-1.339ZM43.1,59.685h9.568a.67.67,0,1,0,0-1.339H43.1a.67.67,0,0,0,0,1.339ZM32.709,73.63a.669.669,0,1,1,.2,1.323,33.122,33.122,0,0,1-4.976.357.669.669,0,0,1,0-1.338,32.018,32.018,0,0,0,4.775-.341Zm2.921-.658a.67.67,0,0,1,.407,1.276c-.288.092-.6.181-.914.262a.669.669,0,1,1-.332-1.3c.293-.076.575-.156.839-.241Zm-.673-5.233a.671.671,0,0,0,.167-.021c.318-.082.626-.17.914-.262a.67.67,0,0,0-.407-1.276c-.263.085-.546.165-.839.241a.669.669,0,0,0,.165,1.318Zm-7.023.778a33.121,33.121,0,0,0,4.976-.357.669.669,0,1,0-.2-1.323,31.861,31.861,0,0,1-4.775.341.669.669,0,0,0,0,1.338Zm7.023-7.571a.67.67,0,0,0,.167-.021c.317-.081.625-.169.914-.262a.67.67,0,0,0-.407-1.276c-.265.085-.547.167-.839.241a.669.669,0,0,0,.165,1.318Zm-7.691.11a.669.669,0,0,0,.668.67,33.3,33.3,0,0,0,4.976-.357.67.67,0,0,0-.2-1.324,31.885,31.885,0,0,1-4.775.341A.669.669,0,0,0,27.265,61.057Z" transform="translate(0 0)" fill-rule="evenodd"/>
      </g>
    </g>
  </g>
</svg>
