<svg xmlns="http://www.w3.org/2000/svg" width="105" height="103" viewBox="0 0 105 103">
  <g id="Grupo_1070551" data-name="Grupo 1070551" transform="translate(-212 -4649.284)">
    <rect id="Rectángulo_374321" data-name="Rectángulo 374321" width="105" height="103" rx="6" transform="translate(212 4649.284)" fill="#ff8e7c"/>
    <g id="Grupo_1070399" data-name="Grupo 1070399" transform="translate(223.999 4665.453)">
      <path id="Trazado_817127" data-name="Trazado 817127" d="M205.757,98.623H162.684l-8.765-8.765V30.441a2.479,2.479,0,0,1,2.479-2.479h49.359a2.479,2.479,0,0,1,2.479,2.479v65.7A2.479,2.479,0,0,1,205.757,98.623Z" transform="translate(-131.234 -27.962)" fill="#dff6fd"/>
      <path id="Trazado_817128" data-name="Trazado 817128" d="M469.853,30.439v65.7a2.479,2.479,0,0,1-2.479,2.479H463.5a2.479,2.479,0,0,0,2.479-2.479v-65.7A2.479,2.479,0,0,0,463.5,27.96h3.873A2.479,2.479,0,0,1,469.853,30.439Z" transform="translate(-392.851 -27.96)" fill="#d8ecfe"/>
      <path id="Trazado_817129" data-name="Trazado 817129" d="M153.919,427.462h8.123a.642.642,0,0,1,.643.643v8.123Z" transform="translate(-131.234 -365.566)" fill="#d8ecfe"/>
      <path id="Trazado_817130" data-name="Trazado 817130" d="M170.628,81.476H133.114a2.169,2.169,0,0,1-2.169-2.169V64.774a2.169,2.169,0,0,1,2.169-2.169h37.514a2.169,2.169,0,0,1,2.169,2.169V79.307A2.169,2.169,0,0,1,170.628,81.476Z" transform="translate(-111.819 -57.237)" fill="#ffb476"/>
      <path id="Trazado_817131" data-name="Trazado 817131" d="M368.113,64.771V79.305a2.168,2.168,0,0,1-2.169,2.169h-3.873a2.168,2.168,0,0,0,2.169-2.169V64.771a2.168,2.168,0,0,0-2.169-2.169h3.873A2.168,2.168,0,0,1,368.113,64.771Z" transform="translate(-307.136 -57.235)" fill="#ffd4b1"/>
      <path id="Trazado_817132" data-name="Trazado 817132" d="M38.785,333.009v6.684c0,3.009-7,5.447-15.642,5.447S7.5,342.7,7.5,339.693v-6.684Z" transform="translate(-7.502 -285.747)" fill="#3692bc"/>
      <path id="Trazado_817133" data-name="Trazado 817133" d="M173.894,333.009v6.684c0,1.822-2.567,3.435-6.512,4.423,1.667-.866,2.639-1.909,2.639-3.029v-8.078Z" transform="translate(-142.611 -285.747)" fill="#0681af"/>
      <path id="Trazado_817134" data-name="Trazado 817134" d="M38.785,291.009v6.684c0,3.009-7,5.447-15.642,5.447S7.5,300.7,7.5,297.693v-6.684Z" transform="translate(-7.502 -250.254)" fill="#8abbd5"/>
      <path id="Trazado_817135" data-name="Trazado 817135" d="M188.285,291.009v6.684c0,1.374-1.461,2.631-3.873,3.588V291.009Z" transform="translate(-157.002 -250.254)" fill="#6cabca"/>
      <path id="Trazado_817136" data-name="Trazado 817136" d="M38.785,250.143H7.5v6.508c0,3.007,7,5.446,15.64,5.446s15.642-2.439,15.642-5.446Z" transform="translate(-7.502 -215.72)" fill="#3692bc"/>
      <path id="Trazado_817137" data-name="Trazado 817137" d="M188.285,250.139v6.509c0,1.373-1.461,2.629-3.873,3.587v-10.1Z" transform="translate(-157.002 -215.716)" fill="#0681af"/>
      <ellipse id="Elipse_9229" data-name="Elipse 9229" cx="15.641" cy="5.447" rx="15.641" ry="5.447" transform="translate(0 28.976)" fill="#8abbd5"/>
      <path id="Trazado_817138" data-name="Trazado 817138" d="M188.287,230.576c0,1.374-1.461,2.631-3.873,3.588h0a13.408,13.408,0,0,0,0-7.174h0C186.826,227.947,188.287,229.2,188.287,230.576Z" transform="translate(-157.004 -196.153)" fill="#6cabca"/>
    </g>
    <g id="Grupo_1070405" data-name="Grupo 1070405" transform="translate(223.999 4665.453)">
      <line id="Línea_427" data-name="Línea 427" y1="5.32" transform="translate(22.685 24.239)" fill="none" stroke="#000" stroke-linecap="round" stroke-linejoin="round" stroke-miterlimit="10" stroke-width="2"/>
      <line id="Línea_428" data-name="Línea 428" y1="3.085" transform="translate(22.685 58.811)" fill="none" stroke="#000" stroke-linecap="round" stroke-linejoin="round" stroke-miterlimit="10" stroke-width="2"/>
      <path id="Trazado_817139" data-name="Trazado 817139" d="M153.92,33.327V30.439A2.479,2.479,0,0,1,156.4,27.96h49.359a2.479,2.479,0,0,1,2.479,2.479v65.7a2.479,2.479,0,0,1-2.479,2.479H162.685" transform="translate(-131.235 -27.96)" fill="none" stroke="#000" stroke-linecap="round" stroke-linejoin="round" stroke-miterlimit="10" stroke-width="2"/>
      <path id="Trazado_817140" data-name="Trazado 817140" d="M153.919,427.462h8.123a.642.642,0,0,1,.643.643v8.123Z" transform="translate(-131.234 -365.566)" fill="none" stroke="#000" stroke-linecap="round" stroke-linejoin="round" stroke-miterlimit="10" stroke-width="2"/>
      <path id="Trazado_817141" data-name="Trazado 817141" d="M7.5,250.14v19.523c0,3.009,7,5.447,15.642,5.447s15.64-2.439,15.64-5.447V250.14" transform="translate(-7.5 -215.717)" fill="none" stroke="#000" stroke-linecap="round" stroke-linejoin="round" stroke-miterlimit="10" stroke-width="2"/>
      <path id="Trazado_817142" data-name="Trazado 817142" d="M7.5,334.15c0,3.007,7,5.446,15.642,5.446s15.64-2.439,15.64-5.446" transform="translate(-7.5 -286.711)" fill="none" stroke="#000" stroke-linecap="round" stroke-linejoin="round" stroke-miterlimit="10" stroke-width="2"/>
      <path id="Trazado_817143" data-name="Trazado 817143" d="M7.5,292.15c0,3.007,7,5.446,15.642,5.446s15.64-2.439,15.64-5.446" transform="translate(-7.5 -251.218)" fill="none" stroke="#000" stroke-linecap="round" stroke-linejoin="round" stroke-miterlimit="10" stroke-width="2"/>
      <ellipse id="Elipse_9230" data-name="Elipse 9230" cx="15.641" cy="5.447" rx="15.641" ry="5.447" transform="translate(0 28.976)" fill="none" stroke="#000" stroke-linecap="round" stroke-linejoin="round" stroke-miterlimit="10" stroke-width="2"/>
      <g id="Grupo_1070403" data-name="Grupo 1070403" transform="translate(26.324 10.271)">
        <g id="Grupo_1070400" data-name="Grupo 1070400" transform="translate(24.281)">
          <path id="Trazado_817144" data-name="Trazado 817144" d="M334.125,94.254v9.056c.1.017,3.174,0,3.174,0" transform="translate(-334.125 -94.254)" fill="none" stroke="#000" stroke-linecap="round" stroke-linejoin="round" stroke-miterlimit="10" stroke-width="2"/>
        </g>
        <g id="Grupo_1070401" data-name="Grupo 1070401" transform="translate(0 0)">
          <path id="Trazado_817145" data-name="Trazado 817145" d="M182.993,95.186a4.134,4.134,0,0,0-3.544-.789,1.89,1.89,0,0,0-.733,3.392s1.25.558,2.637,1.069c3.338,1.231,1.9,4.461-.787,4.461a4.281,4.281,0,0,1-3.159-1.344" transform="translate(-177.406 -94.254)" fill="none" stroke="#000" stroke-linecap="round" stroke-linejoin="round" stroke-miterlimit="10" stroke-width="2"/>
        </g>
        <g id="Grupo_1070402" data-name="Grupo 1070402" transform="translate(10.534)">
          <line id="Línea_429" data-name="Línea 429" x2="2.9" y2="2.9" transform="translate(6.199 6.128)" fill="none" stroke="#000" stroke-linecap="round" stroke-linejoin="round" stroke-miterlimit="10" stroke-width="2"/>
          <circle id="Elipse_9231" data-name="Elipse 9231" cx="4.532" cy="4.532" r="4.532" fill="none" stroke="#000" stroke-linecap="round" stroke-linejoin="round" stroke-miterlimit="10" stroke-width="2"/>
        </g>
      </g>
      <path id="Trazado_817146" data-name="Trazado 817146" d="M170.627,81.474H133.113a2.169,2.169,0,0,1-2.169-2.169V64.772a2.169,2.169,0,0,1,2.169-2.169h37.514a2.169,2.169,0,0,1,2.169,2.169V79.305A2.169,2.169,0,0,1,170.627,81.474Z" transform="translate(-111.818 -57.236)" fill="none" stroke="#000" stroke-linecap="round" stroke-linejoin="round" stroke-miterlimit="10" stroke-width="2"/>
      <g id="Grupo_1070404" data-name="Grupo 1070404" transform="translate(44.419 31.188)">
        <line id="Línea_430" data-name="Línea 430" x1="4.139" y2="10.407" transform="translate(7.738)" fill="none" stroke="#000" stroke-linecap="round" stroke-linejoin="round" stroke-miterlimit="10" stroke-width="2"/>
        <path id="Trazado_817147" data-name="Trazado 817147" d="M402.856,232.477l2.78,4.611-2.78,4.8" transform="translate(-386.021 -231.978)" fill="none" stroke="#000" stroke-linecap="round" stroke-linejoin="round" stroke-miterlimit="10" stroke-width="2"/>
        <path id="Trazado_817148" data-name="Trazado 817148" d="M296.977,232.477l-2.78,4.611,2.78,4.8" transform="translate(-294.197 -231.978)" fill="none" stroke="#000" stroke-linecap="round" stroke-linejoin="round" stroke-miterlimit="10" stroke-width="2"/>
      </g>
      <line id="Línea_431" data-name="Línea 431" x2="32.314" transform="translate(38.069 46.708)" fill="none" stroke="#000" stroke-linecap="round" stroke-linejoin="round" stroke-miterlimit="10" stroke-width="2"/>
      <line id="Línea_432" data-name="Línea 432" x2="32.314" transform="translate(38.069 51.821)" fill="none" stroke="#000" stroke-linecap="round" stroke-linejoin="round" stroke-miterlimit="10" stroke-width="2"/>
      <line id="Línea_433" data-name="Línea 433" x2="32.314" transform="translate(38.069 56.933)" fill="none" stroke="#000" stroke-linecap="round" stroke-linejoin="round" stroke-miterlimit="10" stroke-width="2"/>
      <line id="Línea_434" data-name="Línea 434" x2="32.314" transform="translate(38.069 62.046)" fill="none" stroke="#000" stroke-linecap="round" stroke-linejoin="round" stroke-miterlimit="10" stroke-width="2"/>
    </g>
  </g>
</svg>
