<svg xmlns="http://www.w3.org/2000/svg" width="98" height="98" viewBox="0 0 98 98">
  <g id="Grupo_1070548" data-name="Grupo 1070548" transform="translate(-626 -583)">
    <rect id="Rectángulo_374482" data-name="Rectángulo 374482" width="98" height="98" rx="8" transform="translate(626 583)" fill="#ffb476"/>
    <g id="Grupo_1070369" data-name="Grupo 1070369" transform="translate(642 600)">
      <g id="Grupo_1070355" data-name="Grupo 1070355">
        <path id="Trazado_817081" data-name="Trazado 817081" d="M2,20V10H26V20a2.006,2.006,0,0,1-2,2H4A2.006,2.006,0,0,1,2,20Z" fill="#e6e9ed"/>
      </g>
      <g id="Grupo_1070356" data-name="Grupo 1070356">
        <path id="Trazado_817082" data-name="Trazado 817082" d="M26,36V46a2.006,2.006,0,0,1-2,2H4a2.006,2.006,0,0,1-2-2V36Z" fill="#e6e9ed"/>
      </g>
      <g id="Grupo_1070357" data-name="Grupo 1070357">
        <path id="Trazado_817083" data-name="Trazado 817083" d="M61,50V60a2.006,2.006,0,0,1-2,2H39a2.006,2.006,0,0,1-2-2V50Z" fill="#e6e9ed"/>
      </g>
      <g id="Grupo_1070358" data-name="Grupo 1070358">
        <path id="Trazado_817084" data-name="Trazado 817084" d="M2,10V4A2.006,2.006,0,0,1,4,2H24a2.006,2.006,0,0,1,2,2v6Z" fill="#5cd6b3"/>
      </g>
      <g id="Grupo_1070359" data-name="Grupo 1070359">
        <path id="Trazado_817085" data-name="Trazado 817085" d="M26,34v2H2V30a2.006,2.006,0,0,1,2-2H24a2.006,2.006,0,0,1,2,2Z" fill="#5cd6b3"/>
      </g>
      <g id="Grupo_1070360" data-name="Grupo 1070360">
        <path id="Trazado_817086" data-name="Trazado 817086" d="M37,50V44a2.006,2.006,0,0,1,2-2H59a2.006,2.006,0,0,1,2,2v6Z" fill="#5cd6b3"/>
      </g>
      <g id="Grupo_1070361" data-name="Grupo 1070361">
        <path id="Trazado_817087" data-name="Trazado 817087" d="M18,14h4v4H18Z" fill="#ff826e"/>
      </g>
      <g id="Grupo_1070362" data-name="Grupo 1070362">
        <circle id="Elipse_9225" data-name="Elipse 9225" cx="2" cy="2" r="2" transform="translate(41 54)" fill="#ff826e"/>
      </g>
      <g id="Grupo_1070363" data-name="Grupo 1070363">
        <path id="Trazado_817088" data-name="Trazado 817088" d="M62,17v6c0,1.66-5.82,3-13,3s-13-1.34-13-3V17c0,1.66,5.82,3,13,3S62,18.66,62,17Z" fill="#fcd770"/>
      </g>
      <g id="Grupo_1070364" data-name="Grupo 1070364">
        <path id="Trazado_817089" data-name="Trazado 817089" d="M62,5v6c0,1.66-5.82,3-13,3s-13-1.34-13-3V5c0,1.66,5.82,3,13,3S62,6.66,62,5Z" fill="#fcd770"/>
      </g>
      <g id="Grupo_1070365" data-name="Grupo 1070365">
        <path id="Trazado_817090" data-name="Trazado 817090" d="M36,11c0,1.66,5.82,3,13,3s13-1.34,13-3v6c0,1.66-5.82,3-13,3s-13-1.34-13-3V11Z" fill="#ffeaa7"/>
      </g>
      <g id="Grupo_1070366" data-name="Grupo 1070366">
        <ellipse id="Elipse_9226" data-name="Elipse 9226" cx="13" cy="3" rx="13" ry="3" transform="translate(36 2)" fill="#ffeaa7"/>
      </g>
      <g id="Grupo_1070367" data-name="Grupo 1070367">
        <circle id="Elipse_9227" data-name="Elipse 9227" cx="2" cy="2" r="2" transform="translate(12 52)" fill="#ff826e"/>
      </g>
      <g id="Grupo_1070368" data-name="Grupo 1070368">
        <circle id="Elipse_9228" data-name="Elipse 9228" cx="2" cy="2" r="2" transform="translate(47 32)" fill="#ff826e"/>
      </g>
    </g>
    <g id="Grupo_1070370" data-name="Grupo 1070370" transform="translate(642 600)">
      <path id="Trazado_817091" data-name="Trazado 817091" d="M49,1c-1.433,0-14,.112-14,4v6H27V4a3,3,0,0,0-3-3H4A3,3,0,0,0,1,4V20a3,3,0,0,0,3,3h9v4H4a3,3,0,0,0-3,3V46a3,3,0,0,0,3,3h9v2.184A2.993,2.993,0,1,0,16.816,55H36v5a3,3,0,0,0,3,3H59a3,3,0,0,0,3-3V44a3,3,0,0,0-3-3H50V36.816a2.982,2.982,0,0,0,0-5.632v-4.2c3.353-.074,13-.581,13-3.988V5C63,1.112,50.433,1,49,1Zm12,9.923C60.515,11.681,56.169,13,49,13s-11.515-1.319-12-2.077V7.271C40.607,8.937,47.927,9,49,9s8.393-.063,12-1.729Zm0,6C60.515,17.681,56.169,19,49,19s-11.515-1.319-12-2.077V13.271C40.607,14.937,47.927,15,49,15s8.393-.063,12-1.729ZM49,3c6.93,0,11.229,1.233,11.945,2C60.229,5.767,55.93,7,49,7S37.771,5.767,37.055,5C37.771,4.233,42.07,3,49,3ZM4,3H24a1,1,0,0,1,1,1V9H3V4A1,1,0,0,1,4,3ZM3,20V11H25v9a1,1,0,0,1-1,1H4A1,1,0,0,1,3,20Zm12,3h9a3,3,0,0,0,3-3V13h8V23c0,3.406,9.647,3.914,13,3.988v4.2A3,3,0,0,0,46.184,33H27V30a3,3,0,0,0-3-3H15ZM4,29H24a1,1,0,0,1,1,1v5H3V30A1,1,0,0,1,4,29ZM3,46V37H25v9a1,1,0,0,1-1,1H4A1,1,0,0,1,3,46Zm11,9a1,1,0,1,1,1-1A1,1,0,0,1,14,55Zm45,6H39a1,1,0,0,1-1-1V51H60v9A1,1,0,0,1,59,61Zm1-17v5H38V44a1,1,0,0,1,1-1H59A1,1,0,0,1,60,44ZM39,41a3,3,0,0,0-3,3v9H16.816A3,3,0,0,0,15,51.184V49h9a3,3,0,0,0,3-3V35H46.184A3,3,0,0,0,48,36.816V41Zm10-6a1,1,0,1,1,1-1A1,1,0,0,1,49,35Zm0-10c-7.14,0-11.485-1.309-12-2.068V19.271C40.607,20.937,47.927,21,49,21s8.393-.063,12-1.729v3.661C60.485,23.691,56.14,25,49,25Z"/>
      <path id="Trazado_817092" data-name="Trazado 817092" d="M13,5h2V7H13Z"/>
      <path id="Trazado_817093" data-name="Trazado 817093" d="M9,5h2V7H9Z"/>
      <path id="Trazado_817094" data-name="Trazado 817094" d="M5,5H7V7H5Z"/>
      <path id="Trazado_817095" data-name="Trazado 817095" d="M13,31h2v2H13Z"/>
      <path id="Trazado_817096" data-name="Trazado 817096" d="M5,31H7v2H5Z"/>
      <path id="Trazado_817097" data-name="Trazado 817097" d="M9,31h2v2H9Z"/>
      <path id="Trazado_817098" data-name="Trazado 817098" d="M44,45h2v2H44Z"/>
      <path id="Trazado_817099" data-name="Trazado 817099" d="M48,45h2v2H48Z"/>
      <path id="Trazado_817100" data-name="Trazado 817100" d="M40,45h2v2H40Z"/>
      <path id="Trazado_817101" data-name="Trazado 817101" d="M43,53a3,3,0,1,0,3,3A3,3,0,0,0,43,53Zm0,4a1,1,0,1,1,1-1A1,1,0,0,1,43,57Z"/>
      <path id="Trazado_817102" data-name="Trazado 817102" d="M48,53H58v2H48Z"/>
      <path id="Trazado_817103" data-name="Trazado 817103" d="M48,57h6v2H48Z"/>
      <path id="Trazado_817104" data-name="Trazado 817104" d="M56,57h2v2H56Z"/>
      <path id="Trazado_817105" data-name="Trazado 817105" d="M5,39H7v2H5Z"/>
      <path id="Trazado_817106" data-name="Trazado 817106" d="M9,39H23v2H9Z"/>
      <path id="Trazado_817107" data-name="Trazado 817107" d="M5,43H23v2H5Z"/>
      <path id="Trazado_817108" data-name="Trazado 817108" d="M17,19h6V13H17Zm2-4h2v2H19Z"/>
      <path id="Trazado_817109" data-name="Trazado 817109" d="M5,13H15v2H5Z"/>
      <path id="Trazado_817110" data-name="Trazado 817110" d="M5,17h6v2H5Z"/>
      <path id="Trazado_817111" data-name="Trazado 817111" d="M13,17h2v2H13Z"/>
    </g>
  </g>
</svg>
