<svg id="Page-1" xmlns="http://www.w3.org/2000/svg" width="60.679" height="60.68" viewBox="0 0 60.679 60.68">
  <g id="_001---Browser" data-name="001---Browser">
    <path id="Shape" d="M59.656,3.023V9.091H1V3.023A2.029,2.029,0,0,1,3.023,1H57.634A2.029,2.029,0,0,1,59.656,3.023Z" transform="translate(0.011 0.011)" fill="#607d8b"/>
    <path id="Shape-2" data-name="Shape" d="M57.034,1H54a2.029,2.029,0,0,1,2.023,2.023V9.091h3.034V3.023A2.029,2.029,0,0,0,57.034,1Z" transform="translate(0.611 0.011)" fill="#37474f"/>
    <path id="Shape-3" data-name="Shape" d="M59.656,9V43.385a2.029,2.029,0,0,1-2.023,2.023H3.023A2.029,2.029,0,0,1,1,43.385V9Z" transform="translate(0.011 0.102)" fill="#f5f5f5"/>
    <path id="Shape-4" data-name="Shape" d="M56.023,9V43.385A2.029,2.029,0,0,1,54,45.407h3.034a2.029,2.029,0,0,0,2.023-2.023V9Z" transform="translate(0.611 0.102)" fill="#cfd8dc"/>
    <circle id="Oval" cx="21.5" cy="21.5" r="21.5" transform="translate(8.672 16.808)" fill="#02a9f4"/>
    <path id="Shape-5" data-name="Shape" d="M30.017,17c-.512,0-1.011.04-1.517.077a21.213,21.213,0,0,1,0,42.322c.506.036,1.005.077,1.517.077a21.238,21.238,0,0,0,0-42.475Z" transform="translate(0.322 0.192)" fill="#0377bc"/>
    <ellipse id="Oval-2" data-name="Oval" cx="11" cy="21.5" rx="11" ry="21.5" transform="translate(19.672 16.808)" fill="#00bcd4"/>
    <circle id="Oval-3" data-name="Oval" cx="1" cy="1" r="1" transform="translate(3.672 3.808)" fill="#f44335"/>
    <circle id="Oval-4" data-name="Oval" cx="1" cy="1" r="1" transform="translate(7.672 3.808)" fill="#ffdc00"/>
    <circle id="Oval-5" data-name="Oval" cx="1" cy="1" r="1" transform="translate(11.672 3.808)" fill="#60a917"/>
    <g id="Grupo_968821" data-name="Grupo 968821">
      <path id="Shape-6" data-name="Shape" d="M57.645,0H3.034A3.034,3.034,0,0,0,0,3.034V43.487a3.034,3.034,0,0,0,3.034,3.034H9.62a22.24,22.24,0,0,0,41.44,0h6.586a3.034,3.034,0,0,0,3.034-3.034V3.034A3.034,3.034,0,0,0,57.645,0ZM3.034,2.023H57.645a1.011,1.011,0,0,1,1.011,1.011V8.091H2.023V3.034A1.011,1.011,0,0,1,3.034,2.023Zm15.2,37.419a38.314,38.314,0,0,0,1.2,8.83,61.511,61.511,0,0,0-6.048,1.144,20.072,20.072,0,0,1-3.216-9.974Zm13.12-10.127c2.686-.032,5.319-.187,7.85-.467a35.913,35.913,0,0,1,1.226,8.572H31.351Zm0-2.023V18.31c2.946.617,5.562,3.9,7.222,8.568C36.239,27.122,33.82,27.261,31.351,27.291ZM29.328,18.31v8.981c-2.47-.03-4.889-.169-7.222-.414C23.766,22.206,26.382,18.927,29.328,18.31Zm0,11v8.1H20.253a35.913,35.913,0,0,1,1.226-8.572C24.01,29.126,26.642,29.282,29.328,29.314ZM20.253,39.441h9.076v8.1c-2.686.032-5.319.187-7.85.467a35.913,35.913,0,0,1-1.226-8.572Zm9.076,10.127v8.987c-2.946-.617-5.562-3.9-7.222-8.568C24.439,49.738,26.859,49.6,29.328,49.569Zm2.023,8.987V49.569c2.47.03,4.889.169,7.222.414C36.913,54.654,34.3,57.933,31.351,58.555Zm0-11v-8.11h9.076A35.913,35.913,0,0,1,39.2,48.013c-2.531-.279-5.164-.435-7.85-.467Zm11.1-8.11h8.066A20.072,20.072,0,0,1,47.3,49.415a61.511,61.511,0,0,0-6.048-1.144A38.314,38.314,0,0,0,42.448,39.441Zm0-2.023a38.314,38.314,0,0,0-1.2-8.83A61.511,61.511,0,0,0,47.3,27.445a20.072,20.072,0,0,1,3.216,9.974ZM40.666,26.627a20.193,20.193,0,0,0-4.2-7.468,20.288,20.288,0,0,1,9.545,6.512c-1.7.386-3.491.7-5.349.956Zm-20.653,0c-1.858-.251-3.649-.569-5.35-.956a20.288,20.288,0,0,1,9.546-6.512,20.193,20.193,0,0,0-4.2,7.468Zm-6.632.818a61.511,61.511,0,0,0,6.048,1.144,38.314,38.314,0,0,0-1.2,8.83H10.165A20.072,20.072,0,0,1,13.381,27.445Zm1.283,23.744c1.7-.386,3.492-.708,5.35-.956a20.193,20.193,0,0,0,4.2,7.468A20.288,20.288,0,0,1,14.664,51.189ZM36.471,57.7a20.193,20.193,0,0,0,4.2-7.468c1.858.251,3.649.569,5.35.956A20.288,20.288,0,0,1,36.47,57.7ZM57.645,44.5H51.74a22.249,22.249,0,1,0-42.8,0H3.034a1.011,1.011,0,0,1-1.011-1.011V10.113H58.656V43.487A1.011,1.011,0,0,1,57.645,44.5Z"/>
      <path id="Shape-7" data-name="Shape" d="M27.011,6.023h6.068a1.011,1.011,0,1,0,0-2.023H27.011a1.011,1.011,0,0,0,0,2.023Z" transform="translate(0.294 0.045)"/>
      <path id="Shape-8" data-name="Shape" d="M44.011,6.023H55.136a1.011,1.011,0,1,0,0-2.023H44.011a1.011,1.011,0,0,0,0,2.023Z" transform="translate(0.487 0.045)"/>
      <path id="Shape-9" data-name="Shape" d="M5.011,15.023H7.034a1.011,1.011,0,1,0,0-2.023H5.011a1.011,1.011,0,0,0,0,2.023Z" transform="translate(0.045 0.147)"/>
      <path id="Shape-10" data-name="Shape" d="M7.034,21H5.011a1.011,1.011,0,1,0,0,2.023H7.034a1.011,1.011,0,1,0,0-2.023Z" transform="translate(0.045 0.238)"/>
      <path id="Shape-11" data-name="Shape" d="M20.113,13h-9.1a1.011,1.011,0,0,0,0,2.023h9.1a1.011,1.011,0,1,0,0-2.023Z" transform="translate(0.113 0.147)"/>
      <path id="Shape-12" data-name="Shape" d="M13.1,17H5.011a1.011,1.011,0,1,0,0,2.023H13.1A1.011,1.011,0,1,0,13.1,17Z" transform="translate(0.045 0.192)"/>
    </g>
  </g>
</svg>
