<svg xmlns="http://www.w3.org/2000/svg" width="100.09" height="100.09" viewBox="0 0 100.09 100.09">
  <g id="Grupo_1070587" data-name="Grupo 1070587" transform="translate(-1214.91 -379.078)">
    <g id="inteligencia" transform="translate(1214.91 379.078)">
      <path id="Trazado_600832" data-name="Trazado 600832" d="M142.709,177.118c-2.953-.433-6.272-.75-9.826-.934-2.2-.116-4.5-.183-6.856-.183s-4.654.067-6.856.183c-3.554.184-6.873.5-9.826.934-8.04,1.2-13.345,3.236-13.345,5.555,0,3.687,13.446,6.673,30.027,6.673s30.027-2.986,30.027-6.673C156.054,180.354,150.749,178.319,142.709,177.118Zm0,0" transform="translate(-75.982 -139.3)" fill="#ffb655"/>
      <path id="Trazado_600833" data-name="Trazado 600833" d="M446.673,11.336A3.336,3.336,0,1,1,443.336,8,3.336,3.336,0,0,1,446.673,11.336Zm0,0" transform="translate(-348.251 -6.332)" fill="#ff5023"/>
      <path id="Trazado_600834" data-name="Trazado 600834" d="M446.673,107.336A3.336,3.336,0,1,1,443.336,104,3.336,3.336,0,0,1,446.673,107.336Zm0,0" transform="translate(-348.251 -82.314)" fill="#ff5023"/>
      <path id="Trazado_600835" data-name="Trazado 600835" d="M383.811,232a6.673,6.673,0,1,1,0,13.345h-.05c.033-.551.05-1.118.05-1.668Zm0,0" transform="translate(-303.74 -183.623)" fill="#ffb655"/>
      <path id="Trazado_600836" data-name="Trazado 600836" d="M156.054,213v11.677c0,.551-.016,1.118-.05,1.668a30.01,30.01,0,0,1-46.659,23.288,29.575,29.575,0,0,1-4.554-3.72A30.008,30.008,0,0,1,96.05,226.35c-.033-.551-.05-1.118-.05-1.668V208c0,3.687,13.446,6.673,30.027,6.673s30.027-2.986,30.027-6.673Zm0,0" transform="translate(-75.982 -164.628)" fill="#ffc477"/>
      <path id="Trazado_600837" data-name="Trazado 600837" d="M193.363,407.68v13.412H160V407.68A29.97,29.97,0,0,0,193.363,407.68Zm0,0" transform="translate(-126.637 -322.67)" fill="#ffc477"/>
      <path id="Trazado_600838" data-name="Trazado 600838" d="M258.35,23.013V16.341L255.013,13h-5l-1.668-5h-5L240,11.336v36.7l3.336,3.336h5l1.668-5,6.673-1.668V41.363l5-5V28.018Zm0,0" transform="translate(-189.955 -6.332)" fill="#ff6148"/>
      <path id="Trazado_600839" data-name="Trazado 600839" d="M154.35,8h-5l-1.668,5h-5l-3.336,3.336v6.673l-3.336,5v8.341l5,5V44.7l6.673,1.668,1.668,5h5l3.336-3.336v-36.7Zm0,0" transform="translate(-107.641 -6.332)" fill="#ff6148"/>
      <path id="Trazado_600840" data-name="Trazado 600840" d="M70.722,245.345h-.05a6.673,6.673,0,1,1,0-13.345v11.677C70.673,244.228,70.689,244.795,70.722,245.345Zm0,0" transform="translate(-50.655 -183.623)" fill="#ffb655"/>
      <path id="Trazado_600841" data-name="Trazado 600841" d="M14.673,11.336A3.336,3.336,0,1,1,11.336,8,3.336,3.336,0,0,1,14.673,11.336Zm0,0" transform="translate(-6.332 -6.332)" fill="#ff5023"/>
      <path id="Trazado_600842" data-name="Trazado 600842" d="M14.673,107.336A3.336,3.336,0,1,1,11.336,104,3.337,3.337,0,0,1,14.673,107.336Zm0,0" transform="translate(-6.332 -82.314)" fill="#ff5023"/>
      <path id="Trazado_600843" data-name="Trazado 600843" d="M221,295.013a5,5,0,0,0,5-5V280h-3.336v10.009a1.668,1.668,0,0,1-3.336,0V280H216v10.009A5,5,0,0,0,221,295.013Zm0,0" transform="translate(-170.96 -221.614)"/>
      <path id="Trazado_600844" data-name="Trazado 600844" d="M293,264a5,5,0,0,0-5,5h3.336a1.668,1.668,0,1,1,3.336,0h3.336A5,5,0,0,0,293,264Zm0,0" transform="translate(-227.946 -208.951)"/>
      <path id="Trazado_600845" data-name="Trazado 600845" d="M149,264a5,5,0,0,0-5,5h3.336a1.668,1.668,0,1,1,3.336,0h3.336A5,5,0,0,0,149,264Zm0,0" transform="translate(-113.973 -208.951)"/>
      <path id="Trazado_600846" data-name="Trazado 600846" d="M126.08,187.815v-3.5c0-2.7-3.151-4.737-9.632-6.241l-.754,3.252c5.417,1.254,6.945,2.634,7.053,2.959-.5,1.759-10.676,5.035-28.359,5.035s-27.845-3.27-28.359-4.969v-.011c.119-.391,1.654-1.762,7.05-3.013l-.754-3.252c-6.484,1.5-9.635,3.545-9.635,6.241v3.5a8.333,8.333,0,0,0,.167,16.362,31.694,31.694,0,0,0,13.178,22.611v12.573a1.668,1.668,0,0,0,1.668,1.668h33.363a1.668,1.668,0,0,0,1.668-1.668V226.788a31.693,31.693,0,0,0,13.178-22.61,8.333,8.333,0,0,0,.167-16.363Zm-66.727,8.174a5.005,5.005,0,0,1,3.336-4.7v9.395A5.005,5.005,0,0,1,59.353,195.988Zm50.045,41.7H79.371v-8.8a31.618,31.618,0,0,0,30.027,0Zm-15.013-8.341a28.391,28.391,0,0,1-28.359-28.359V188.412c6.173,3.257,19.547,4.24,28.359,4.24s22.186-.984,28.359-4.24v12.581A28.391,28.391,0,0,1,94.385,229.352Zm31.7-28.666v-9.395a4.974,4.974,0,0,1,0,9.395Zm0,0" transform="translate(-44.34 -140.939)"/>
      <path id="Trazado_600847" data-name="Trazado 600847" d="M195.677,357c-4.521,0-8.341-2.292-8.341-5H184c0,4.671,5.13,8.341,11.677,8.341s11.677-3.67,11.677-8.341h-3.336C204.018,354.712,200.2,357,195.677,357Zm0,0" transform="translate(-145.632 -278.601)"/>
      <path id="Trazado_600848" data-name="Trazado 600848" d="M267.825,81.52l2.359-2.359-2.848-2.848V72H264v5a1.668,1.668,0,0,0,.489,1.179Zm0,0" transform="translate(-208.951 -56.987)"/>
      <path id="Trazado_600849" data-name="Trazado 600849" d="M276.7,130.344l-2.359,2.359,1.179,1.179v2.646h3.336v-3.336a1.668,1.668,0,0,0-.489-1.179Zm0,0" transform="translate(-217.137 -103.164)"/>
      <path id="Trazado_600850" data-name="Trazado 600850" d="M133,35.722v2.646a1.669,1.669,0,0,0,1.263,1.618l5.786,1.446,1.377,4.135a1.669,1.669,0,0,0,1.583,1.141h5a1.668,1.668,0,0,0,1.179-.489l2.157-2.157,2.157,2.157a1.668,1.668,0,0,0,1.179.489h5a1.669,1.669,0,0,0,1.583-1.141l1.377-4.135,5.786-1.446a1.669,1.669,0,0,0,1.263-1.618V35.722l4.516-4.516a1.668,1.668,0,0,0,.489-1.179V21.686a1.681,1.681,0,0,0-.28-.926l-3.056-4.578V10.009a1.668,1.668,0,0,0-.489-1.179l-3.336-3.336A1.668,1.668,0,0,0,166.368,5h-3.8l-1.288-3.863A1.669,1.669,0,0,0,159.7,0h-5a1.668,1.668,0,0,0-1.179.489l-2.157,2.157L149.2.489A1.668,1.668,0,0,0,148.018,0h-5a1.669,1.669,0,0,0-1.583,1.141L140.142,5h-3.8a1.668,1.668,0,0,0-1.179.489L131.825,8.83a1.668,1.668,0,0,0-.489,1.179v6.173l-3.056,4.584a1.676,1.676,0,0,0-.28.92v8.341a1.668,1.668,0,0,0,.489,1.179ZM155.381,3.336h3.111l.963,2.886L156.848,8.83a1.668,1.668,0,0,0-.489,1.179v1.668H159.7V10.7l2.359-2.359h3.623l2.359,2.359v5.291l-2.848,2.848a1.668,1.668,0,0,0-.489,1.179v1.668h3.336v-.977l1.41-1.408,1.926,2.886v7.145L169.7,31V28.359h-3.336v8.707l-4.492,1.124L159.7,36.009v-.977h-3.336V36.7a1.668,1.668,0,0,0,.489,1.179l2.607,2.607-.963,2.886h-3.111l-2.359-2.359V5.7Zm-24.045,18.85,1.926-2.891,1.41,1.408v.982h3.336V20.018a1.668,1.668,0,0,0-.489-1.179l-2.848-2.848V10.7l2.359-2.359h3.623l2.359,2.359v.977h3.336V10.009a1.668,1.668,0,0,0-.489-1.179l-2.607-2.607.963-2.886h3.111L149.686,5.7V41.013l-2.359,2.359h-3.111l-.963-2.886,2.607-2.607a1.668,1.668,0,0,0,.489-1.179V35.031h-3.336v.977l-2.181,2.181-4.492-1.124V28.359H133V31l-1.668-1.668Zm0,0" transform="translate(-101.309)"/>
      <path id="Trazado_600851" data-name="Trazado 600851" d="M192.039,78.184A1.668,1.668,0,0,0,192.528,77V72h-3.336v4.314l-2.848,2.848L188.7,81.52Zm0,0" transform="translate(-147.487 -56.987)"/>
      <path id="Trazado_600852" data-name="Trazado 600852" d="M187.336,133.882l1.179-1.179-2.359-2.359-1.668,1.668a1.668,1.668,0,0,0-.489,1.179v3.336h3.336Zm0,0" transform="translate(-145.632 -103.164)"/>
      <path id="Trazado_600853" data-name="Trazado 600853" d="M437,10.009a5,5,0,1,0-5-5A5,5,0,0,0,437,10.009Zm0-6.673A1.668,1.668,0,1,1,435.336,5,1.668,1.668,0,0,1,437,3.336Zm0,0" transform="translate(-341.919)"/>
      <path id="Trazado_600854" data-name="Trazado 600854" d="M437,96a5,5,0,1,0,5,5A5,5,0,0,0,437,96Zm0,6.673A1.668,1.668,0,1,1,438.673,101,1.668,1.668,0,0,1,437,102.673Zm0,0" transform="translate(-341.919 -75.982)"/>
      <path id="Trazado_600855" data-name="Trazado 600855" d="M370.887,19.336h2.646V16H370.2a1.668,1.668,0,0,0-1.179.489l-6.673,6.673L364.7,25.52Zm0,0" transform="translate(-286.788 -12.664)"/>
      <path id="Trazado_600856" data-name="Trazado 600856" d="M368,112h10.009v3.336H368Zm0,0" transform="translate(-291.264 -88.646)"/>
      <path id="Trazado_600857" data-name="Trazado 600857" d="M5,0a5,5,0,1,0,5,5A5,5,0,0,0,5,0ZM5,6.673A1.668,1.668,0,1,1,6.673,5,1.668,1.668,0,0,1,5,6.673Zm0,0"/>
      <path id="Trazado_600858" data-name="Trazado 600858" d="M5,96a5,5,0,1,0,5,5A5,5,0,0,0,5,96Zm0,6.673A1.668,1.668,0,1,1,6.673,101,1.668,1.668,0,0,1,5,102.673Zm0,0" transform="translate(0 -75.982)"/>
      <path id="Trazado_600859" data-name="Trazado 600859" d="M72.83,25.52l2.359-2.359-6.673-6.673A1.668,1.668,0,0,0,67.336,16H64v3.336h2.646Zm0,0" transform="translate(-50.655 -12.664)"/>
      <path id="Trazado_600860" data-name="Trazado 600860" d="M64,112H74.009v3.336H64Zm0,0" transform="translate(-50.655 -88.646)"/>
    </g>
  </g>
</svg>
