<svg xmlns="http://www.w3.org/2000/svg" width="105" height="102" viewBox="0 0 105 102">
  <g id="Grupo_1070571" data-name="Grupo 1070571" transform="translate(-342 -536.015)">
    <g id="Grupo_114061" data-name="Grupo 114061" transform="translate(-726 -61.635)">
      <g id="Grupo_114051" data-name="Grupo 114051" transform="translate(1068 598.016)">
        <g id="Grupo_110668" data-name="Grupo 110668">
          <rect id="Rectángulo_37257" data-name="Rectángulo 37257" width="105" height="102" rx="12" transform="translate(0 -0.366)" fill="#ff6148"/>
        </g>
      </g>
    </g>
    <g id="relacional" transform="translate(363 555.016)">
      <g id="Grupo_1070447" data-name="Grupo 1070447">
        <g id="Grupo_1070433" data-name="Grupo 1070433">
          <path id="Trazado_817220" data-name="Trazado 817220" d="M2,20V10H26V20a2.006,2.006,0,0,1-2,2H4A2.006,2.006,0,0,1,2,20Z" fill="#e6e9ed"/>
        </g>
        <g id="Grupo_1070434" data-name="Grupo 1070434">
          <path id="Trazado_817221" data-name="Trazado 817221" d="M26,36V46a2.006,2.006,0,0,1-2,2H4a2.006,2.006,0,0,1-2-2V36Z" fill="#e6e9ed"/>
        </g>
        <g id="Grupo_1070435" data-name="Grupo 1070435">
          <path id="Trazado_817222" data-name="Trazado 817222" d="M61,50V60a2.006,2.006,0,0,1-2,2H39a2.006,2.006,0,0,1-2-2V50Z" fill="#e6e9ed"/>
        </g>
        <g id="Grupo_1070436" data-name="Grupo 1070436">
          <path id="Trazado_817223" data-name="Trazado 817223" d="M2,10V4A2.006,2.006,0,0,1,4,2H24a2.006,2.006,0,0,1,2,2v6Z" fill="#2efec7"/>
        </g>
        <g id="Grupo_1070437" data-name="Grupo 1070437">
          <path id="Trazado_817224" data-name="Trazado 817224" d="M26,34v2H2V30a2.006,2.006,0,0,1,2-2H24a2.006,2.006,0,0,1,2,2Z" fill="#2efec7"/>
        </g>
        <g id="Grupo_1070438" data-name="Grupo 1070438">
          <path id="Trazado_817225" data-name="Trazado 817225" d="M37,50V44a2.006,2.006,0,0,1,2-2H59a2.006,2.006,0,0,1,2,2v6Z" fill="#2efec7"/>
        </g>
        <g id="Grupo_1070439" data-name="Grupo 1070439">
          <path id="Trazado_817226" data-name="Trazado 817226" d="M18,14h4v4H18Z" fill="#ff826e"/>
        </g>
        <g id="Grupo_1070440" data-name="Grupo 1070440">
          <circle id="Elipse_9235" data-name="Elipse 9235" cx="2" cy="2" r="2" transform="translate(41 54)" fill="#ff826e"/>
        </g>
        <g id="Grupo_1070441" data-name="Grupo 1070441">
          <path id="Trazado_817227" data-name="Trazado 817227" d="M62,17v6c0,1.66-5.82,3-13,3s-13-1.34-13-3V17c0,1.66,5.82,3,13,3S62,18.66,62,17Z" fill="#fcd770"/>
        </g>
        <g id="Grupo_1070442" data-name="Grupo 1070442">
          <path id="Trazado_817228" data-name="Trazado 817228" d="M62,5v6c0,1.66-5.82,3-13,3s-13-1.34-13-3V5c0,1.66,5.82,3,13,3S62,6.66,62,5Z" fill="#fcd770"/>
        </g>
        <g id="Grupo_1070443" data-name="Grupo 1070443">
          <path id="Trazado_817229" data-name="Trazado 817229" d="M36,11c0,1.66,5.82,3,13,3s13-1.34,13-3v6c0,1.66-5.82,3-13,3s-13-1.34-13-3V11Z" fill="#ffeaa7"/>
        </g>
        <g id="Grupo_1070444" data-name="Grupo 1070444">
          <ellipse id="Elipse_9236" data-name="Elipse 9236" cx="13" cy="3" rx="13" ry="3" transform="translate(36 2)" fill="#ffeaa7"/>
        </g>
        <g id="Grupo_1070445" data-name="Grupo 1070445">
          <circle id="Elipse_9237" data-name="Elipse 9237" cx="2" cy="2" r="2" transform="translate(12 52)" fill="#ff826e"/>
        </g>
        <g id="Grupo_1070446" data-name="Grupo 1070446">
          <circle id="Elipse_9238" data-name="Elipse 9238" cx="2" cy="2" r="2" transform="translate(47 32)" fill="#ff826e"/>
        </g>
      </g>
      <g id="Grupo_1070448" data-name="Grupo 1070448">
        <path id="Trazado_817230" data-name="Trazado 817230" d="M49,1c-1.433,0-14,.112-14,4v6H27V4a3,3,0,0,0-3-3H4A3,3,0,0,0,1,4V20a3,3,0,0,0,3,3h9v4H4a3,3,0,0,0-3,3V46a3,3,0,0,0,3,3h9v2.184A2.993,2.993,0,1,0,16.816,55H36v5a3,3,0,0,0,3,3H59a3,3,0,0,0,3-3V44a3,3,0,0,0-3-3H50V36.816a2.982,2.982,0,0,0,0-5.632v-4.2c3.353-.074,13-.581,13-3.988V5C63,1.112,50.433,1,49,1Zm12,9.923C60.515,11.681,56.169,13,49,13s-11.515-1.319-12-2.077V7.271C40.607,8.937,47.927,9,49,9s8.393-.063,12-1.729Zm0,6C60.515,17.681,56.169,19,49,19s-11.515-1.319-12-2.077V13.271C40.607,14.937,47.927,15,49,15s8.393-.063,12-1.729ZM49,3c6.93,0,11.229,1.233,11.945,2C60.229,5.767,55.93,7,49,7S37.771,5.767,37.055,5C37.771,4.233,42.07,3,49,3ZM4,3H24a1,1,0,0,1,1,1V9H3V4A1,1,0,0,1,4,3ZM3,20V11H25v9a1,1,0,0,1-1,1H4A1,1,0,0,1,3,20Zm12,3h9a3,3,0,0,0,3-3V13h8V23c0,3.406,9.647,3.914,13,3.988v4.2A3,3,0,0,0,46.184,33H27V30a3,3,0,0,0-3-3H15ZM4,29H24a1,1,0,0,1,1,1v5H3V30A1,1,0,0,1,4,29ZM3,46V37H25v9a1,1,0,0,1-1,1H4A1,1,0,0,1,3,46Zm11,9a1,1,0,1,1,1-1A1,1,0,0,1,14,55Zm45,6H39a1,1,0,0,1-1-1V51H60v9A1,1,0,0,1,59,61Zm1-17v5H38V44a1,1,0,0,1,1-1H59A1,1,0,0,1,60,44ZM39,41a3,3,0,0,0-3,3v9H16.816A3,3,0,0,0,15,51.184V49h9a3,3,0,0,0,3-3V35H46.184A3,3,0,0,0,48,36.816V41Zm10-6a1,1,0,1,1,1-1A1,1,0,0,1,49,35Zm0-10c-7.14,0-11.485-1.309-12-2.068V19.271C40.607,20.937,47.927,21,49,21s8.393-.063,12-1.729v3.661C60.485,23.691,56.14,25,49,25Z"/>
        <path id="Trazado_817231" data-name="Trazado 817231" d="M13,5h2V7H13Z"/>
        <path id="Trazado_817232" data-name="Trazado 817232" d="M9,5h2V7H9Z"/>
        <path id="Trazado_817233" data-name="Trazado 817233" d="M5,5H7V7H5Z"/>
        <path id="Trazado_817234" data-name="Trazado 817234" d="M13,31h2v2H13Z"/>
        <path id="Trazado_817235" data-name="Trazado 817235" d="M5,31H7v2H5Z"/>
        <path id="Trazado_817236" data-name="Trazado 817236" d="M9,31h2v2H9Z"/>
        <path id="Trazado_817237" data-name="Trazado 817237" d="M44,45h2v2H44Z"/>
        <path id="Trazado_817238" data-name="Trazado 817238" d="M48,45h2v2H48Z"/>
        <path id="Trazado_817239" data-name="Trazado 817239" d="M40,45h2v2H40Z"/>
        <path id="Trazado_817240" data-name="Trazado 817240" d="M43,53a3,3,0,1,0,3,3A3,3,0,0,0,43,53Zm0,4a1,1,0,1,1,1-1A1,1,0,0,1,43,57Z"/>
        <path id="Trazado_817241" data-name="Trazado 817241" d="M48,53H58v2H48Z"/>
        <path id="Trazado_817242" data-name="Trazado 817242" d="M48,57h6v2H48Z"/>
        <path id="Trazado_817243" data-name="Trazado 817243" d="M56,57h2v2H56Z"/>
        <path id="Trazado_817244" data-name="Trazado 817244" d="M5,39H7v2H5Z"/>
        <path id="Trazado_817245" data-name="Trazado 817245" d="M9,39H23v2H9Z"/>
        <path id="Trazado_817246" data-name="Trazado 817246" d="M5,43H23v2H5Z"/>
        <path id="Trazado_817247" data-name="Trazado 817247" d="M17,19h6V13H17Zm2-4h2v2H19Z"/>
        <path id="Trazado_817248" data-name="Trazado 817248" d="M5,13H15v2H5Z"/>
        <path id="Trazado_817249" data-name="Trazado 817249" d="M5,17h6v2H5Z"/>
        <path id="Trazado_817250" data-name="Trazado 817250" d="M13,17h2v2H13Z"/>
      </g>
    </g>
  </g>
</svg>
