<svg xmlns="http://www.w3.org/2000/svg" width="105" height="112" viewBox="0 0 105 112">
  <g id="Grupo_1070574" data-name="Grupo 1070574" transform="translate(-228 -1031.016)">
    <g id="Grupo_1070573" data-name="Grupo 1070573">
      <g id="Grupo_110668" data-name="Grupo 110668" transform="translate(228 1031.015)">
        <rect id="Rectángulo_37257" data-name="Rectángulo 37257" width="105" height="112" rx="12" transform="translate(0 0.001)" fill="#ffb476"/>
      </g>
    </g>
    <g id="Grupo_1070450" data-name="Grupo 1070450" transform="translate(14.573 -15.707)">
      <g id="cubo" transform="translate(205.182 1065.016)">
        <g id="Grupo_1070449" data-name="Grupo 1070449" transform="translate(29.872 1.054)">
          <path id="Trazado_817251" data-name="Trazado 817251" d="M58.472,243.306l-11.948-7.179,11.948-7.179,11.948,7.179Z" transform="translate(-45.09 -197.826)" fill="#68e7fd"/>
          <path id="Trazado_817252" data-name="Trazado 817252" d="M46.524,280.033v14.711l11.948,7.179V287.212Z" transform="translate(-45.09 -241.732)" fill="#00c1fc"/>
          <path id="Trazado_817253" data-name="Trazado 817253" d="M143.489,280.033l-11.948,7.179v14.711l11.948-7.179Z" transform="translate(-118.159 -241.732)" fill="#00dcfc"/>
          <path id="Trazado_817254" data-name="Trazado 817254" d="M307.389,243.306l-11.948-7.179,11.948-7.179,11.948,7.179Z" transform="translate(-259.025 -197.826)" fill="#68e7fd"/>
          <path id="Trazado_817255" data-name="Trazado 817255" d="M295.441,280.033v14.711l11.948,7.179V287.212Z" transform="translate(-259.025 -241.732)" fill="#00c1fc"/>
          <path id="Trazado_817256" data-name="Trazado 817256" d="M392.406,280.033l-11.948,7.179v14.711l11.948-7.179Z" transform="translate(-332.094 -241.732)" fill="#00dcfc"/>
          <path id="Trazado_817257" data-name="Trazado 817257" d="M182.93,312.011l-11.948-7.179,11.948-7.179,11.948,7.179Z" transform="translate(-152.057 -256.875)" fill="#00e499"/>
          <path id="Trazado_817258" data-name="Trazado 817258" d="M170.982,348.737v14.711l11.948,7.179V355.916Z" transform="translate(-152.057 -300.781)" fill="#00b594"/>
          <path id="Trazado_817259" data-name="Trazado 817259" d="M267.948,348.737,256,355.916v14.711l11.948-7.179Z" transform="translate(-225.127 -300.781)" fill="#00d38e"/>
          <path id="Trazado_817260" data-name="Trazado 817260" d="M182.93,21.858l-11.948-7.179L182.93,7.5l11.948,7.179Z" transform="translate(-152.057 -7.499)" fill="#ff94be"/>
          <path id="Trazado_817261" data-name="Trazado 817261" d="M170.982,58.585V73.3l11.948,7.179V65.764Z" transform="translate(-152.057 -51.406)" fill="#ff5597"/>
          <path id="Trazado_817262" data-name="Trazado 817262" d="M267.948,58.585,256,65.764V80.475L267.948,73.3Z" transform="translate(-225.127 -51.406)" fill="#ff77ab"/>
          <path id="Trazado_817263" data-name="Trazado 817263" d="M48.266,95.413,36.318,88.233l11.948-7.179,11.948,7.179Z" transform="translate(-36.318 -70.717)" fill="#ffea76"/>
          <path id="Trazado_817264" data-name="Trazado 817264" d="M36.318,132.14v14.711l11.948,7.179V139.319Z" transform="translate(-36.318 -114.624)" fill="#ffc25e"/>
          <path id="Trazado_817265" data-name="Trazado 817265" d="M133.284,132.14l-11.948,7.179V154.03l11.948-7.179Z" transform="translate(-109.388 -114.624)" fill="#ffd250"/>
          <path id="Trazado_817266" data-name="Trazado 817266" d="M317.594,95.413l-11.948-7.179,11.948-7.179,11.948,7.179Z" transform="translate(-267.796 -70.717)" fill="#ffea76"/>
          <path id="Trazado_817267" data-name="Trazado 817267" d="M305.646,132.14v14.711l11.948,7.179V139.319Z" transform="translate(-267.796 -114.624)" fill="#ffc25e"/>
          <path id="Trazado_817268" data-name="Trazado 817268" d="M402.611,132.14l-11.948,7.179V154.03l11.948-7.179Z" transform="translate(-340.865 -114.624)" fill="#ffd250"/>
          <path id="Trazado_817269" data-name="Trazado 817269" d="M182.93,164.117l-11.948-7.179,11.948-7.179,11.948,7.179Z" transform="translate(-152.057 -129.766)" fill="#ffab56"/>
          <path id="Trazado_817270" data-name="Trazado 817270" d="M170.982,200.844v14.711l11.948,7.179V208.023Z" transform="translate(-152.057 -173.672)" fill="#ff7e3d"/>
          <path id="Trazado_817271" data-name="Trazado 817271" d="M267.948,200.844,256,208.023v14.711l11.948-7.179Z" transform="translate(-225.127 -173.672)" fill="#ff982a"/>
        </g>
        <path id="Trazado_817272" data-name="Trazado 817272" d="M92.161,17.667,80.213,10.487a1.055,1.055,0,0,0-1.086,0l-5.38,3.233V8.233a1.04,1.04,0,0,0-.511-.9L61.288.151a1.054,1.054,0,0,0-1.086,0l-3.328,2A1.054,1.054,0,0,0,57.96,3.957l2.784-1.673,9.9,5.95-9.9,5.95-9.9-5.95,3.531-2.121a1.054,1.054,0,1,0-1.086-1.807L48.254,7.33a1.056,1.056,0,0,0-.511.9V13.72l-5.38-3.233a1.055,1.055,0,0,0-1.086,0L29.329,17.667a1.055,1.055,0,0,0-.511.9V33.281a1.054,1.054,0,0,0,.511.9L33.6,36.749l-2.833,1.7a1.055,1.055,0,0,0-.511.9V54.065a1.054,1.054,0,0,0,.511.9l3.046,1.83A1.054,1.054,0,0,0,34.9,54.992L32.36,53.469V41.218l.582.35L42.2,47.13V59.381l-3.724-2.238a1.054,1.054,0,0,0-1.086,1.807l5.321,3.2a1.059,1.059,0,0,0,1.086,0l3.946-2.371v3.944a1.054,1.054,0,0,0,.511.9L60.2,71.8a1.055,1.055,0,0,0,1.086,0l11.948-7.179a1.054,1.054,0,0,0,.511-.9V59.777l3.946,2.371a1.058,1.058,0,0,0,1.086,0l11.948-7.179a1.054,1.054,0,0,0,.511-.9V48.548a1.054,1.054,0,1,0-2.108,0v4.921l-9.84,5.913V47.13l9.258-5.563.582-.35v3.1a1.054,1.054,0,0,0,2.108,0V39.354a1.054,1.054,0,0,0-.511-.9l-2.833-1.7,4.267-2.564a1.054,1.054,0,0,0,.511-.9V18.57a1.053,1.053,0,0,0-.511-.9ZM60.745,54.96l-9.9-5.95L53.851,47.2,60.2,51.019a1.054,1.054,0,0,0,1.086,0L67.639,47.2l3.007,1.807Zm0-32.684,9.9,5.95-9.9,5.95-9.9-5.95Zm-17.871,4.07,9.793-5.885.046-.028v4.209l-4.46,2.68a1.056,1.056,0,0,0-.511.9v7.446L42.874,38.6ZM49.851,42.34V30.089L59.691,36V48.253ZM61.8,48.253V36l9.84-5.913V42.34ZM73.747,28.226a1.059,1.059,0,0,0-.511-.9l-4.46-2.68V20.433l2.117,1.272,7.723,4.641V38.6l-4.869-2.926V28.226ZM79.67,12.621l9.9,5.95-9.9,5.95-9.9-5.95ZM67.179,17.667a1.055,1.055,0,0,0-.511.9v4.805L61.8,20.45V16.009l9.84-5.913v4.891ZM49.851,10.1l9.84,5.913V20.45l-4.869,2.926V18.57a1.055,1.055,0,0,0-.511-.9l-4.46-2.68V10.1ZM41.82,12.621l9.9,5.95-9.9,5.95-9.9-5.95ZM30.926,20.433l9.84,5.913V38.6l-9.84-5.913ZM41.277,41.364a1.054,1.054,0,0,0,1.086,0l5.38-3.233v4.476l-4.489,2.7-9.9-5.95,2.29-1.376Zm3.031,18.018V47.13L49.019,44.3,51.8,45.973l-3.55,2.133a1.056,1.056,0,0,0-.511.9v8.308Zm5.543-8.509,2.117,1.272,7.723,4.641V69.037l-9.84-5.913ZM71.639,63.124,61.8,69.037V56.785l7.723-4.641,2.117-1.272ZM73.747,49.01a1.093,1.093,0,0,0-.511-.9l-3.55-2.133L72.471,44.3l4.711,2.831V59.382l-3.435-2.064Zm14.39-9.655-9.9,5.95-4.489-2.7V38.131l5.38,3.233a1.057,1.057,0,0,0,1.086,0l5.634-3.385Zm2.427-6.67L80.724,38.6V26.346l7.723-4.641,2.117-1.272Z"/>
      </g>
    </g>
  </g>
</svg>
