<svg xmlns="http://www.w3.org/2000/svg" xmlns:xlink="http://www.w3.org/1999/xlink" width="105" height="115" viewBox="0 0 105 115">
  <defs>
    <clipPath id="clip-path">
      <path id="path2466" d="M0-682.665H73.48v73.48H0Z" transform="translate(0 682.665)"/>
    </clipPath>
  </defs>
  <g id="Grupo_1070567" data-name="Grupo 1070567" transform="translate(-266 -848)">
    <g id="Grupo_1070566" data-name="Grupo 1070566" transform="translate(1 6)">
      <rect id="Rectángulo_374469" data-name="Rectángulo 374469" width="105" height="115" rx="12" transform="translate(265 842)" fill="#ffb476"/>
    </g>
    <g id="g2448" transform="translate(282 1543.653)">
      <g id="g2450" transform="translate(30.463 -648.196)">
        <path id="path2452" d="M-219.509-191.061l-3.431,3.431-23.046-23.046,3.431-3.431Z" transform="translate(245.986 214.107)" fill="#cbc4cb"/>
      </g>
      <g id="g2454" transform="translate(30.463 -648.196)">
        <path id="path2456" d="M-28.447,0h0l-3.431,3.431L-8.833,26.477-7.152,24.8-30.2,1.751Z" transform="translate(31.879)" fill="#b5adb6"/>
      </g>
      <g id="g2458" transform="translate(30.463 -648.196)">
        <path id="path2460" d="M-219.509-191.061l-3.431,3.431-23.046-23.046,3.431-3.431Z" transform="translate(245.986 214.107)" fill="none" stroke="#000" stroke-linecap="round" stroke-linejoin="round" stroke-miterlimit="10" stroke-width="1.5"/>
      </g>
      <g id="g2462" transform="translate(0 -682.665)">
        <g id="g2464" clip-path="url(#clip-path)">
          <g id="g2470" transform="translate(45.864 49.87)">
            <path id="path2472" d="M-107.331-155.218l-12.49-12.49a1.557,1.557,0,0,1,0-2.2l3.574-3.574a1.558,1.558,0,0,1,2.2,0l5.549,5.549" transform="translate(120.278 173.94)" fill="#fff" stroke="#000" stroke-linecap="round" stroke-linejoin="round" stroke-miterlimit="10" stroke-width="1.5"/>
          </g>
          <g id="g2474" transform="translate(48.897 52.903)">
            <path id="path2476" d="M-156-135.505l-2.472,2.472a2.336,2.336,0,0,1-3.3,0l-13.041-13.041,5.776-5.776L-156-138.809a2.336,2.336,0,0,1,0,3.3" transform="translate(174.818 151.85)" fill="#27a5fe"/>
          </g>
          <g id="g2478" transform="translate(48.897 52.903)">
            <path id="path2480" d="M-50.547-39.473l2.22-2.22-2.541-2.541-5.776,5.776L-43.6-25.418a2.336,2.336,0,0,0,3.3,0l.889-.889L-50.547-37.444a1.435,1.435,0,0,1,0-2.03" transform="translate(56.644 44.235)" fill="#0593fc"/>
          </g>
          <g id="g2482" transform="translate(48.897 52.903)">
            <path id="path2484" d="M-84.284-36.4l-4.39-4.39-5.776,5.776L-81.41-21.971a2.336,2.336,0,0,0,3.3,0l2.472-2.472a2.336,2.336,0,0,0,0-3.3l-5.1-5.1" transform="translate(94.45 40.788)" fill="none" stroke="#000" stroke-linecap="round" stroke-linejoin="round" stroke-miterlimit="10" stroke-width="1.5"/>
          </g>
          <g id="g2486" transform="translate(5.788 9.794)">
            <path id="path2488" d="M-169.151,0a20.4,20.4,0,0,1,20.4,20.4,20.4,20.4,0,0,1-20.4,20.4,20.4,20.4,0,0,1-20.4-20.4A20.4,20.4,0,0,1-169.151,0" transform="translate(189.554)" fill="#00f3a7"/>
          </g>
          <g id="g2490" transform="translate(5.788 9.794)">
            <path id="path2492" d="M-169.151,0a20.4,20.4,0,0,1,20.4,20.4,20.4,20.4,0,0,1-20.4,20.4,20.4,20.4,0,0,1-20.4-20.4A20.4,20.4,0,0,1-169.151,0Z" transform="translate(189.554)" fill="none" stroke="#000" stroke-linecap="round" stroke-linejoin="round" stroke-miterlimit="10" stroke-width="1.5"/>
          </g>
          <g id="g2494" transform="translate(10.46 14.466)">
            <path id="path2496" d="M-130.414,0a15.731,15.731,0,0,1,15.731,15.731,15.731,15.731,0,0,1-15.731,15.731,15.731,15.731,0,0,1-15.731-15.731A15.731,15.731,0,0,1-130.414,0" transform="translate(146.145)" fill="#d8ecfe"/>
          </g>
          <g id="g2498" transform="translate(10.46 14.466)">
            <path id="path2500" d="M-50.108-130.414A15.735,15.735,0,0,1-37.4-145.854a15.811,15.811,0,0,0-3.022-.291,15.731,15.731,0,0,0-15.731,15.731,15.731,15.731,0,0,0,15.731,15.731,15.811,15.811,0,0,0,3.022-.291,15.735,15.735,0,0,1-12.709-15.44" transform="translate(56.152 146.145)" fill="#c4e2ff"/>
          </g>
          <g id="g2502" transform="translate(10.46 14.466)">
            <path id="path2504" d="M-130.414,0a15.731,15.731,0,0,1,15.731,15.731,15.731,15.731,0,0,1-15.731,15.731,15.731,15.731,0,0,1-15.731-15.731A15.731,15.731,0,0,1-130.414,0Z" transform="translate(146.145)" fill="none" stroke="#000" stroke-linecap="round" stroke-linejoin="round" stroke-miterlimit="10" stroke-width="1.5"/>
          </g>
          <g id="g2506" transform="translate(23.25 1.076)">
            <path id="path2508" d="M-221.307,0h-25.977A.718.718,0,0,0-248,.718V26.694a.717.717,0,0,0,.718.718h5.507a.718.718,0,0,1,.718.718v4.136a.718.718,0,0,0,1.225.507l5.151-5.151a.718.718,0,0,1,.507-.21h12.869a.718.718,0,0,0,.718-.718V.718A.718.718,0,0,0-221.307,0" transform="translate(248.001 0)" fill="#27a5fe"/>
          </g>
          <g id="g2510" transform="translate(23.249 1.076)">
            <path id="path2512" d="M-40.454-221.307v-25.977a.718.718,0,0,1,.718-.718h-4.88a.718.718,0,0,0-.718.718v25.977a.718.718,0,0,0,.718.718h4.88a.718.718,0,0,1-.718-.718" transform="translate(45.333 248.001)" fill="#0593fc"/>
          </g>
          <g id="g2514" transform="translate(23.25 1.076)">
            <path id="path2516" d="M-227.256-95.78v-10.836a.718.718,0,0,0-.718-.718H-253.95a.717.717,0,0,0-.718.718v25.977a.717.717,0,0,0,.718.718h5.507a.718.718,0,0,1,.718.718v4.136a.718.718,0,0,0,1.225.507l5.151-5.151a.718.718,0,0,1,.507-.21h12.869a.718.718,0,0,0,.718-.718V-90.757" transform="translate(254.667 107.333)" fill="none" stroke="#000" stroke-linecap="round" stroke-linejoin="round" stroke-miterlimit="10" stroke-width="1.5"/>
          </g>
          <g id="g2518" transform="translate(34.951 12.785)">
            <path id="path2520" d="M-33.621-87.949h-4.055V-98.557h3.74a.315.315,0,0,1,.315.315Z" transform="translate(37.676 98.557)" fill="#fff"/>
          </g>
          <g id="g2522" transform="translate(34.951 12.785)">
            <path id="path2524" d="M-33.621-87.949h-4.055V-98.557h3.74a.315.315,0,0,1,.315.315Z" transform="translate(37.676 98.557)" fill="none" stroke="#000" stroke-linecap="round" stroke-linejoin="round" stroke-miterlimit="10" stroke-width="1.5"/>
          </g>
          <g id="g2526" transform="translate(34.951 5.597)">
            <path id="path2528" d="M-31.009-33.621h-3.425a.315.315,0,0,1-.315-.315v-3.425a.315.315,0,0,1,.315-.315h3.425a.315.315,0,0,1,.315.315v3.425a.315.315,0,0,1-.315.315" transform="translate(34.749 37.676)" fill="#fff"/>
          </g>
          <g id="g2530" transform="translate(34.951 5.597)">
            <path id="path2532" d="M-31.009-33.621h-3.425a.315.315,0,0,1-.315-.315v-3.425a.315.315,0,0,1,.315-.315h3.425a.315.315,0,0,1,.315.315v3.425A.315.315,0,0,1-31.009-33.621Z" transform="translate(34.749 37.676)" fill="none" stroke="#000" stroke-linecap="round" stroke-linejoin="round" stroke-miterlimit="10" stroke-width="1.5"/>
          </g>
          <g id="g2534" transform="translate(33.503 12.785)">
            <path id="path2536" d="M-26.3,0h-3.173" transform="translate(29.475 0)" fill="#fff" stroke="#000" stroke-linecap="round" stroke-linejoin="round" stroke-miterlimit="10" stroke-width="1.5"/>
          </g>
          <g id="g2538" transform="translate(33.55 23.393)">
            <path id="path2540" d="M-56.854,0h-6.858" transform="translate(63.712 0)" fill="#fff" stroke="#000" stroke-linecap="round" stroke-linejoin="round" stroke-miterlimit="10" stroke-width="1.5"/>
          </g>
          <g id="g2542" transform="translate(51.203 32.705)">
            <path id="path2544" d="M-84.234-87.8h-9.73a.431.431,0,0,1-.431-.431v-9.73a.431.431,0,0,1,.431-.431h9.73a.431.431,0,0,1,.431.431v9.73a.431.431,0,0,1-.431.431" transform="translate(94.394 98.394)" fill="#00f3a7"/>
          </g>
          <g id="g2546" transform="translate(51.203 32.705)">
            <path id="path2548" d="M-30.011-84.234v-9.73a.431.431,0,0,1,.431-.431H-33.2a.431.431,0,0,0-.431.431v9.73a.431.431,0,0,0,.431.431h3.62a.431.431,0,0,1-.431-.431" transform="translate(33.631 94.394)" fill="#05e39c"/>
          </g>
          <g id="g2550" transform="translate(51.203 32.705)">
            <path id="path2552" d="M-84.234-87.8h-9.73a.431.431,0,0,1-.431-.431v-9.73a.431.431,0,0,1,.431-.431h9.73a.431.431,0,0,1,.431.431v9.73A.431.431,0,0,1-84.234-87.8Z" transform="translate(94.394 98.394)" fill="none" stroke="#000" stroke-linecap="round" stroke-linejoin="round" stroke-miterlimit="10" stroke-width="1.5"/>
          </g>
          <g id="g2554" transform="translate(28.153 55.6)">
            <path id="path2556" d="M-57.118-60.688h-6.459a.431.431,0,0,1-.431-.431v-6.459a.431.431,0,0,1,.431-.431h6.459a.431.431,0,0,1,.431.431v6.459a.431.431,0,0,1-.431.431" transform="translate(64.008 68.008)" fill="#fd8087"/>
          </g>
          <g id="g2558" transform="translate(28.152 55.6)">
            <path id="path2560" d="M-25.983-57.118v-6.459a.431.431,0,0,1,.431-.431h-3.134a.431.431,0,0,0-.431.431v6.459a.431.431,0,0,0,.431.431h3.134a.431.431,0,0,1-.431-.431" transform="translate(29.117 64.008)" fill="#fe646f"/>
          </g>
          <g id="g2562" transform="translate(28.153 55.6)">
            <path id="path2564" d="M-57.118-60.688h-6.459a.431.431,0,0,1-.431-.431v-6.459a.431.431,0,0,1,.431-.431h6.459a.431.431,0,0,1,.431.431v6.459A.431.431,0,0,1-57.118-60.688Z" transform="translate(64.008 68.008)" fill="none" stroke="#000" stroke-linecap="round" stroke-linejoin="round" stroke-miterlimit="10" stroke-width="1.5"/>
          </g>
          <g id="g2566" transform="translate(8.611 3.444)">
            <path id="path2568" d="M-48.172-51.741h-5.38a.431.431,0,0,1-.431-.431v-5.38a.431.431,0,0,1,.431-.431h5.38a.431.431,0,0,1,.431.431v5.38a.431.431,0,0,1-.431.431" transform="translate(53.983 57.983)" fill="#fed402"/>
          </g>
          <g id="g2570" transform="translate(8.611 3.444)">
            <path id="path2572" d="M-23.563-48.172v-5.38a.431.431,0,0,1,.431-.431h-2.842a.431.431,0,0,0-.431.431v5.38a.431.431,0,0,0,.431.431h2.842a.431.431,0,0,1-.431-.431" transform="translate(26.405 53.983)" fill="#fac600"/>
          </g>
          <g id="g2574" transform="translate(8.611 3.444)">
            <path id="path2576" d="M-48.172-51.741h-5.38a.431.431,0,0,1-.431-.431v-5.38a.431.431,0,0,1,.431-.431h5.38a.431.431,0,0,1,.431.431v5.38A.431.431,0,0,1-48.172-51.741Z" transform="translate(53.983 57.983)" fill="none" stroke="#000" stroke-linecap="round" stroke-linejoin="round" stroke-miterlimit="10" stroke-width="1.5"/>
          </g>
          <g id="g2578" transform="translate(5.082 36.89)">
            <path id="path2580" d="M-108.007,0h-12.6a.431.431,0,0,0-.431.431V21.18a.431.431,0,0,0,.431.431h16.427a.431.431,0,0,0,.431-.431V4.26a.431.431,0,0,0-.126-.3L-107.7.126a.431.431,0,0,0-.3-.126" transform="translate(121.034)" fill="#fed402"/>
          </g>
          <g id="g2582" transform="translate(5.082 36.89)">
            <path id="path2584" d="M-39.963-175.589v-20.749a.431.431,0,0,1,.431-.431h-4.82a.431.431,0,0,0-.431.431v20.749a.431.431,0,0,0,.431.431h4.82a.431.431,0,0,1-.431-.431" transform="translate(44.784 196.769)" fill="#fac600"/>
          </g>
          <g id="g2586" transform="translate(5.082 36.89)">
            <path id="path2588" d="M-107.783-179.159h3.857a.431.431,0,0,0,.431-.431v-16.919a.43.43,0,0,0-.126-.3l-3.83-3.83a.431.431,0,0,0-.3-.126h-12.6a.431.431,0,0,0-.431.431v20.749a.431.431,0,0,0,.431.431h7.547" transform="translate(120.784 200.769)" fill="none" stroke="#000" stroke-linecap="round" stroke-linejoin="round" stroke-miterlimit="10" stroke-width="1.5"/>
          </g>
          <g id="g2590" transform="translate(10.269 52.536)">
            <path id="path2592" d="M0,0H6.915" fill="none" stroke="#000" stroke-linecap="round" stroke-linejoin="round" stroke-miterlimit="10" stroke-width="1.5"/>
          </g>
          <g id="g2594" transform="translate(10.269 47.696)">
            <path id="path2596" d="M0,0H6.915" transform="translate(0 0)" fill="none" stroke="#000" stroke-linecap="round" stroke-linejoin="round" stroke-miterlimit="10" stroke-width="1.5"/>
          </g>
          <g id="g2598" transform="translate(10.269 42.855)">
            <path id="path2600" d="M0,0H3.919" fill="none" stroke="#000" stroke-linecap="round" stroke-linejoin="round" stroke-miterlimit="10" stroke-width="1.5"/>
          </g>
          <g id="g2602" transform="translate(55.253 10.277)">
            <path id="path2604" d="M-77.134,0h-8.873a.431.431,0,0,0-.431.431V15.086a.431.431,0,0,0,.431.431h11.552a.431.431,0,0,0,.431-.431V3.109a.431.431,0,0,0-.126-.3L-76.83.126a.431.431,0,0,0-.3-.126" transform="translate(86.438)" fill="#d8ecfe"/>
          </g>
          <g id="g2606" transform="translate(55.253 10.277)">
            <path id="path2608" d="M-33.926-125.07v-14.655a.431.431,0,0,1,.431-.431h-4.092a.431.431,0,0,0-.431.431v14.655a.431.431,0,0,0,.431.431H-33.5a.431.431,0,0,1-.431-.431" transform="translate(38.019 140.156)" fill="#c4e2ff"/>
          </g>
          <g id="g2610" transform="translate(55.253 10.277)">
            <path id="path2612" d="M-77.134,0h-8.873a.431.431,0,0,0-.431.431V15.086a.431.431,0,0,0,.431.431h11.552a.431.431,0,0,0,.431-.431V3.109a.431.431,0,0,0-.126-.3L-76.83.126A.431.431,0,0,0-77.134,0Z" transform="translate(86.438)" fill="none" stroke="#000" stroke-linecap="round" stroke-linejoin="round" stroke-miterlimit="10" stroke-width="1.5"/>
          </g>
          <g id="g2614" transform="translate(58.977 21.511)">
            <path id="path2616" d="M0,0H4.965" fill="none" stroke="#000" stroke-linecap="round" stroke-linejoin="round" stroke-miterlimit="10" stroke-width="1.5"/>
          </g>
          <g id="g2618" transform="translate(58.977 18.035)">
            <path id="path2620" d="M0,0H4.965" fill="none" stroke="#000" stroke-linecap="round" stroke-linejoin="round" stroke-miterlimit="10" stroke-width="1.5"/>
          </g>
          <g id="g2622" transform="translate(58.977 14.559)">
            <path id="path2624" d="M0,0H2.814" transform="translate(0 0)" fill="none" stroke="#000" stroke-linecap="round" stroke-linejoin="round" stroke-miterlimit="10" stroke-width="1.5"/>
          </g>
        </g>
      </g>
    </g>
  </g>
</svg>
