<svg xmlns="http://www.w3.org/2000/svg" width="74" height="86" viewBox="0 0 74 86">
  <g id="Grupo_1070746" data-name="Grupo 1070746" transform="translate(-1067.666 -1139.6)">
    <g id="Grupo_1070006" data-name="Grupo 1070006" transform="translate(-0.334 594.6)">
      <rect id="Rectángulo_374304" data-name="Rectángulo 374304" width="74" height="86" rx="6" transform="translate(1068 545)" fill="#fff"/>
    </g>
    <g id="texto" transform="translate(1022.166 1143.176)">
      <g id="Grupo_1070307" data-name="Grupo 1070307" transform="translate(60.5 7.5)">
        <line id="Línea_418" data-name="Línea 418" x1="42.289" transform="translate(0.319 10.717)" fill="none" stroke="#fc6148" stroke-linecap="round" stroke-linejoin="round" stroke-miterlimit="10" stroke-width="2"/>
        <path id="Trazado_817071" data-name="Trazado 817071" d="M141.983,7.5h31.484a1.473,1.473,0,0,1,1.473,1.473v24.3" transform="translate(-131.982 -7.5)" fill="none" stroke="#fc6148" stroke-linecap="round" stroke-linejoin="round" stroke-miterlimit="10" stroke-width="2"/>
        <path id="Trazado_817072" data-name="Trazado 817072" d="M103.457,63.492v3.535a1.473,1.473,0,0,1-1.473,1.473H61.973A1.473,1.473,0,0,1,60.5,67.027V8.973A1.473,1.473,0,0,1,61.973,7.5H66.3" transform="translate(-60.5 -7.5)" fill="none" stroke="#fc6148" stroke-linecap="round" stroke-linejoin="round" stroke-miterlimit="10" stroke-width="2"/>
        <line id="Línea_419" data-name="Línea 419" y2="7.33" transform="translate(42.957 44.233)" fill="none" stroke="#fc6148" stroke-linecap="round" stroke-linejoin="round" stroke-miterlimit="10" stroke-width="2"/>
        <path id="Trazado_817073" data-name="Trazado 817073" d="M212.612,39.839H210.4a.737.737,0,0,1-.738-.738V36.895a.737.737,0,0,1,.738-.738h2.207a.737.737,0,0,1,.738.738V39.1A.738.738,0,0,1,212.612,39.839Z" transform="translate(-191.359 -32.64)" fill="none" stroke="#fc6148" stroke-linecap="round" stroke-linejoin="round" stroke-miterlimit="10" stroke-width="2"/>
        <path id="Trazado_817074" data-name="Trazado 817074" d="M272.612,39.839H270.4a.737.737,0,0,1-.738-.738V36.895a.737.737,0,0,1,.738-.738h2.207a.737.737,0,0,1,.738.738V39.1A.738.738,0,0,1,272.612,39.839Z" transform="translate(-243.995 -32.64)" fill="none" stroke="#fc6148" stroke-linecap="round" stroke-linejoin="round" stroke-miterlimit="10" stroke-width="2"/>
        <path id="Trazado_817075" data-name="Trazado 817075" d="M332.612,39.839H330.4a.737.737,0,0,1-.738-.738V36.895a.737.737,0,0,1,.738-.738h2.207a.737.737,0,0,1,.738.738V39.1A.738.738,0,0,1,332.612,39.839Z" transform="translate(-296.631 -32.64)" fill="none" stroke="#fc6148" stroke-linecap="round" stroke-linejoin="round" stroke-miterlimit="10" stroke-width="2"/>
        <g id="Grupo_1070305" data-name="Grupo 1070305" transform="translate(7.521 16.853)">
          <line id="Línea_420" data-name="Línea 420" x2="19.27" transform="translate(0)" fill="none" stroke="#fc6148" stroke-linecap="round" stroke-linejoin="round" stroke-miterlimit="10" stroke-width="2"/>
          <line id="Línea_421" data-name="Línea 421" x2="27.432" transform="translate(0 3.928)" fill="none" stroke="#fc6148" stroke-linecap="round" stroke-linejoin="round" stroke-miterlimit="10" stroke-width="2"/>
          <line id="Línea_422" data-name="Línea 422" x2="6.421" transform="translate(0 7.855)" fill="none" stroke="#fc6148" stroke-linecap="round" stroke-linejoin="round" stroke-miterlimit="10" stroke-width="2"/>
          <path id="Trazado_817076" data-name="Trazado 817076" d="M127.31,259.9h-4.64a.89.89,0,0,1-.89-.89v-8.467a.89.89,0,0,1,.89-.89h4.64a.89.89,0,0,1,.89.89v8.467A.89.89,0,0,1,127.31,259.9Z" transform="translate(-121.78 -236.788)" fill="none" stroke="#fc6148" stroke-linecap="round" stroke-linejoin="round" stroke-miterlimit="10" stroke-width="2"/>
        </g>
        <g id="Grupo_1070306" data-name="Grupo 1070306" transform="translate(7.57 47.156)">
          <line id="Línea_423" data-name="Línea 423" x2="5.446" fill="none" stroke="#fc6148" stroke-linecap="round" stroke-linejoin="round" stroke-miterlimit="10" stroke-width="2"/>
          <line id="Línea_424" data-name="Línea 424" x2="12.926" transform="translate(0 3.928)" fill="none" stroke="#fc6148" stroke-linecap="round" stroke-linejoin="round" stroke-miterlimit="10" stroke-width="2"/>
          <line id="Línea_425" data-name="Línea 425" x2="9.586" transform="translate(17.925 3.928)" fill="none" stroke="#fc6148" stroke-linecap="round" stroke-linejoin="round" stroke-miterlimit="10" stroke-width="2"/>
          <line id="Línea_426" data-name="Línea 426" x2="27.432" transform="translate(0 7.855)" fill="none" stroke="#fc6148" stroke-linecap="round" stroke-linejoin="round" stroke-miterlimit="10" stroke-width="2"/>
        </g>
        <path id="Trazado_817077" data-name="Trazado 817077" d="M254.995,222.2v13.3a2.2,2.2,0,0,1-2.205,2.2h-7.7a1.435,1.435,0,0,0-1.164.6l-2.029,2.813a.8.8,0,0,1-1.291,0l-2.029-2.813a1.435,1.435,0,0,0-1.164-.6h-7.7a2.2,2.2,0,0,1-2.205-2.2V222.2a2.2,2.2,0,0,1,2.205-2.2h23.082A2.2,2.2,0,0,1,254.995,222.2Z" transform="translate(-207.005 -193.919)" fill="none" stroke="#fc6148" stroke-linecap="round" stroke-linejoin="round" stroke-miterlimit="10" stroke-width="2"/>
        <path id="Trazado_817078" data-name="Trazado 817078" d="M307.276,273.07l3.34,3.437,5.839-5.932" transform="translate(-276.988 -238.285)" fill="none" stroke="#fc6148" stroke-linecap="round" stroke-linejoin="round" stroke-miterlimit="10" stroke-width="2"/>
      </g>
    </g>
  </g>
</svg>
