<svg xmlns="http://www.w3.org/2000/svg" width="174" height="71" viewBox="0 0 174 71">
  <g id="Grupo_1070549" data-name="Grupo 1070549" transform="translate(-321 -6631)">
    <g id="Grupo_1070548" data-name="Grupo 1070548">
      <path id="Trazado_817404" data-name="Trazado 817404" d="M12,0H162a12,12,0,0,1,12,12V59a12,12,0,0,1-12,12H12A12,12,0,0,1,0,59V12A12,12,0,0,1,12,0Z" transform="translate(321 6631)" fill="#c3c3c3"/>
    </g>
    <path id="Trazado_817182" data-name="Trazado 817182" d="M1.223,10.92a.826.826,0,0,1,.411-.714l5.4-3.136a.413.413,0,0,1,.62.357V30.136a.286.286,0,0,1-.286.286H1.509a.286.286,0,0,1-.286-.286Z" transform="translate(345.253 6645.22)" fill="#fff"/>
    <path id="Trazado_817183" data-name="Trazado 817183" d="M1.223,10.288a.286.286,0,0,1,.143-.247L7.222,6.656a.286.286,0,0,1,.429.247V18.582a.428.428,0,0,1-.429.428H1.652a.428.428,0,0,1-.428-.428Z" transform="translate(345.253 6644.917)" fill="#fff"/>
    <path id="Trazado_817184" data-name="Trazado 817184" d="M17.463,6.492l-15.667,9a1.143,1.143,0,0,0-.574.991v6.679l16.953-9.788a1.143,1.143,0,0,0,.571-.99V7.235A.857.857,0,0,0,17.463,6.492Z" transform="translate(345.253 6644.735)" fill="#fff"/>
    <path id="Trazado_817185" data-name="Trazado 817185" d="M1.914,15.85a1.312,1.312,0,0,0-.691,1.156s0,.007,0,.01h0V15.458Z" transform="translate(345.253 6651.645)" fill="#6501e5" fill-rule="evenodd"/>
    <path id="Trazado_817186" data-name="Trazado 817186" d="M10.879,11.013a1.145,1.145,0,0,0-.117-1.1l.731-.413V10a1.143,1.143,0,0,1-.571.989Z" transform="translate(352.511 6647.114)" fill="#9327fe" fill-rule="evenodd"/>
    <path id="Trazado_817187" data-name="Trazado 817187" d="M18.236,15.172c-.2-.6-10.242-7.351-17.157-12.026a.285.285,0,0,1,.161-.521H9.475a.286.286,0,0,1,.162.051l8.826,6.089a1.143,1.143,0,0,1,.494.941v5.048Z" transform="translate(345.047 6641.88)" fill="#9327fe"/>
    <path id="Trazado_817188" data-name="Trazado 817188" d="M16.791,13.344a3.574,3.574,0,0,0-.959-.121,3.36,3.36,0,0,0-3.094,1.74V13.344H9.211V25.358h3.646V20.113c0-2.393,1.319-3.263,2.782-3.263a4.912,4.912,0,0,1,1.151.121Z" transform="translate(351.331 6649.944)" fill="#0556f3"/>
    <path id="Trazado_817189" data-name="Trazado 817189" d="M20.533,22.441a2.715,2.715,0,0,1-2.686-3,2.7,2.7,0,1,1,5.373,0A2.689,2.689,0,0,1,20.533,22.441Zm0-9.355A6.183,6.183,0,0,0,14.2,19.444a6.2,6.2,0,0,0,6.332,6.382,6.189,6.189,0,0,0,6.332-6.382A6.169,6.169,0,0,0,20.533,13.086Z" transform="translate(355.128 6649.839)" fill="#0556f3"/>
    <path id="Trazado_817190" data-name="Trazado 817190" d="M22.249,26.077c.336,2.151,2.518,4.279,5.948,4.279,4.461,0,6.38-3,6.38-6.454V13.386H31.1v1.281a3.6,3.6,0,0,0-3.31-1.5,5.633,5.633,0,0,0-5.54,5.874,5.571,5.571,0,0,0,5.54,5.85,3.692,3.692,0,0,0,3.19-1.354v.556c0,2.176-1.127,3.07-2.95,3.07a2.5,2.5,0,0,1-2.566-2.006ZM28.461,21.7a2.484,2.484,0,0,1-2.566-2.659,2.556,2.556,0,1,1,5.109,0A2.454,2.454,0,0,1,28.461,21.7Z" transform="translate(361.251 6649.902)" fill="#0556f3"/>
    <path id="Trazado_817191" data-name="Trazado 817191" d="M38.578,13.344a3.573,3.573,0,0,0-.959-.121,3.361,3.361,0,0,0-3.094,1.74V13.344H31V25.358h3.646V20.113c0-2.393,1.319-3.263,2.782-3.263a4.911,4.911,0,0,1,1.151.121Z" transform="translate(367.909 6649.944)" fill="#0556f3"/>
    <path id="Trazado_817192" data-name="Trazado 817192" d="M36.2,22.151c0,1.91,1.511,3.65,4.125,3.65a3.753,3.753,0,0,0,3.358-1.692,5.924,5.924,0,0,0,.12,1.354h3.286a11.9,11.9,0,0,1-.144-1.861V17.727c0-2.466-1.415-4.641-5.277-4.641-3.5,0-5.085,2.272-5.229,3.989l3.166.653a1.923,1.923,0,0,1,2.039-1.765c1.151,0,1.751.6,1.751,1.305,0,.411-.216.725-.863.822l-2.806.435C37.763,18.815,36.2,20.024,36.2,22.151Zm5.013.991c-1.007,0-1.415-.6-1.415-1.233,0-.846.576-1.209,1.343-1.33l2.254-.363v.532C43.4,22.61,42.3,23.142,41.217,23.142Z" transform="translate(371.869 6649.839)" fill="#0556f3"/>
    <path id="Trazado_817193" data-name="Trazado 817193" d="M47.694,25.463V18.549A1.946,1.946,0,0,1,49.66,16.47a1.821,1.821,0,0,1,1.919,2.03v6.962h3.6V18.525a1.945,1.945,0,0,1,1.991-2.055,1.816,1.816,0,0,1,1.895,2.03v6.962h3.526V17.679c0-3.263-2.159-4.593-4.413-4.593a4.077,4.077,0,0,0-3.693,1.886,3.682,3.682,0,0,0-3.526-1.886,4.138,4.138,0,0,0-3.43,1.741V13.449H44.048V25.463Z" transform="translate(377.837 6649.839)" fill="#0556f3"/>
    <path id="Trazado_817194" data-name="Trazado 817194" d="M71.127,25.306V22.139H65.539l5.492-5.826V13.292H61.269v3.142h5.109l-5.253,5.632v3.239Z" transform="translate(390.831 6649.996)" fill="#0556f3"/>
    <path id="Trazado_817195" data-name="Trazado 817195" d="M60.637,25.4H56.446l1.233-7.876H56.446v-4.39h5.417v4.39Z" transform="translate(387.271 6649.877)" fill="#065aff"/>
    <path id="Trazado_817196" data-name="Trazado 817196" d="M61.863,8.631H56.446v5.194h5.417Z" transform="translate(387.271 6646.45)" fill="#065aff"/>
  </g>
</svg>
