<svg xmlns="http://www.w3.org/2000/svg" width="74" height="61" viewBox="0 0 74 61">
  <g id="Grupo_1070745" data-name="Grupo 1070745" transform="translate(-191 -1462)">
    <g id="Grupo_1070744" data-name="Grupo 1070744" transform="translate(0 -437.201)">
      <rect id="Rectángulo_36213" data-name="Rectángulo 36213" width="74" height="61" rx="6" transform="translate(191 1899.201)" fill="#fff"/>
    </g>
    <path id="Trazado_773723" data-name="Trazado 773723" d="M225.24,32.413,216.827,24H200V59.756h25.24Z" transform="translate(22.125 1445.945)" fill="#f0de9c"/>
    <path id="Trazado_773724" data-name="Trazado 773724" d="M392,24v8.413h8.413Z" transform="translate(-153.048 1445.945)" fill="#f0c033"/>
    <path id="Trazado_773725" data-name="Trazado 773725" d="M152,384h4.207v4.207H152Z" transform="translate(65.919 1117.495)" fill="#c6d6e2"/>
    <circle id="Elipse_8321" data-name="Elipse 8321" cx="13.429" cy="13.429" r="13.429" transform="translate(206.814 1476.339)" fill="#37a0c5"/>
    <path id="Trazado_773726" data-name="Trazado 773726" d="M136,432h7.011v10.517H136Z" transform="translate(80.517 1073.701)" fill="#37a0c5"/>
    <circle id="Elipse_8322" data-name="Elipse 8322" cx="10.58" cy="10.58" r="10.58" transform="translate(209.255 1478.78)" fill="#8ccee9"/>
    <path id="Trazado_773727" data-name="Trazado 773727" d="M218.437,24.619l-8.413-8.413a.7.7,0,0,0-.5-.205H192.7a.7.7,0,0,0-.7.7v4.207h1.4V17.4h15.424v7.712a.7.7,0,0,0,.7.7h7.712V51.756H196.207v1.4h21.734a.7.7,0,0,0,.7-.7V25.114a.7.7,0,0,0-.205-.5Zm-8.208-6.225,6.02,6.02h-6.02Z" transform="translate(29.424 1453.244)"/>
    <path id="Trazado_773728" data-name="Trazado 773728" d="M288,104h1.4v1.4H288Z" transform="translate(-58.162 1372.956)"/>
    <path id="Trazado_773729" data-name="Trazado 773729" d="M336,168h1.4v1.4H336Z" transform="translate(-101.956 1314.565)"/>
    <path id="Trazado_773730" data-name="Trazado 773730" d="M368,168h4.207v1.4H368Z" transform="translate(-131.151 1314.565)"/>
    <path id="Trazado_773731" data-name="Trazado 773731" d="M432,168h2.8v1.4H432Z" transform="translate(-189.542 1314.565)"/>
    <path id="Trazado_773732" data-name="Trazado 773732" d="M336,200h4.207v1.4H336Z" transform="translate(-101.956 1285.369)"/>
    <path id="Trazado_773733" data-name="Trazado 773733" d="M400,200h5.609v1.4H400Z" transform="translate(-160.347 1285.369)"/>
    <path id="Trazado_773734" data-name="Trazado 773734" d="M352,232h4.207v1.4H352Z" transform="translate(-116.554 1256.174)"/>
    <path id="Trazado_773735" data-name="Trazado 773735" d="M416,232h4.207v1.4H416Z" transform="translate(-174.944 1256.174)"/>
    <path id="Trazado_773736" data-name="Trazado 773736" d="M384,264h7.011v1.4H384Z" transform="translate(-145.749 1226.979)"/>
    <path id="Trazado_773737" data-name="Trazado 773737" d="M368,320h4.207v1.4H368Z" transform="translate(-131.151 1175.887)"/>
    <path id="Trazado_773738" data-name="Trazado 773738" d="M368,352h4.207v1.4H368Z" transform="translate(-131.151 1146.69)"/>
    <path id="Trazado_773739" data-name="Trazado 773739" d="M33.528,117.446h-.7v-1.684a14.064,14.064,0,0,0,10.936-10.936h3.086v-1.4H43.974q.069-.692.07-1.4a14.022,14.022,0,1,0-16.827,13.74v1.684h-.7a.7.7,0,0,0-.7.7v5.609h1.4v-4.908h5.609v4.908h1.4v-5.609a.7.7,0,0,0-.7-.7ZM17.4,102.022a12.62,12.62,0,1,1,12.62,12.62A12.634,12.634,0,0,1,17.4,102.022ZM28.62,115.974q.692.069,1.4.07a13.952,13.952,0,0,0,1.4-.07v1.472h-2.8Z" transform="translate(190 1387.554)"/>
    <path id="Trazado_773740" data-name="Trazado 773740" d="M70.435,131.218a11.218,11.218,0,1,0-11.218,11.218A11.218,11.218,0,0,0,70.435,131.218Zm-21.033,0a9.815,9.815,0,1,1,9.815,9.815A9.816,9.816,0,0,1,49.4,131.218Z" transform="translate(160.804 1358.358)"/>
    <path id="Trazado_773741" data-name="Trazado 773741" d="M112,176h2.8v1.4H112Z" transform="translate(102.413 1307.267)"/>
    <path id="Trazado_773742" data-name="Trazado 773742" d="M160,176h4.207v1.4H160Z" transform="translate(58.62 1307.267)"/>
    <path id="Trazado_773743" data-name="Trazado 773743" d="M224,176h2.8v1.4H224Z" transform="translate(0.229 1307.267)"/>
    <path id="Trazado_773744" data-name="Trazado 773744" d="M80,208h4.207v1.4H80Z" transform="translate(131.609 1278.07)"/>
    <path id="Trazado_773745" data-name="Trazado 773745" d="M144,208h5.609v1.4H144Z" transform="translate(73.218 1278.07)"/>
    <path id="Trazado_773746" data-name="Trazado 773746" d="M224,208h4.207v1.4H224Z" transform="translate(0.229 1278.07)"/>
    <path id="Trazado_773747" data-name="Trazado 773747" d="M80,240h7.011v1.4H80Z" transform="translate(131.609 1248.875)"/>
    <path id="Trazado_773748" data-name="Trazado 773748" d="M176,240h4.207v1.4H176Z" transform="translate(44.022 1248.875)"/>
    <path id="Trazado_773749" data-name="Trazado 773749" d="M240,240h2.8v1.4H240Z" transform="translate(-14.369 1248.875)"/>
    <path id="Trazado_773750" data-name="Trazado 773750" d="M80,272h4.207v1.4H80Z" transform="translate(131.609 1219.68)"/>
    <path id="Trazado_773751" data-name="Trazado 773751" d="M144,272h5.609v1.4H144Z" transform="translate(73.218 1219.68)"/>
    <path id="Trazado_773752" data-name="Trazado 773752" d="M224,272h4.207v1.4H224Z" transform="translate(0.229 1219.68)"/>
    <path id="Trazado_773753" data-name="Trazado 773753" d="M112,304h4.207v1.4H112Z" transform="translate(102.413 1190.484)"/>
    <path id="Trazado_773754" data-name="Trazado 773754" d="M176,304h5.609v1.4H176Z" transform="translate(44.022 1190.484)"/>
  </g>
</svg>
