<svg xmlns="http://www.w3.org/2000/svg" width="105" height="103" viewBox="0 0 105 103">
  <g id="Grupo_1070746" data-name="Grupo 1070746" transform="translate(-849 -4649.284)">
    <rect id="Rectángulo_374322" data-name="Rectángulo 374322" width="105" height="103" rx="6" transform="translate(849 4649.284)" fill="#fff"/>
    <path id="Trazado_817149" data-name="Trazado 817149" d="M173.556,81.832H121.71a2.92,2.92,0,0,1-2.92-2.92V10.423a2.92,2.92,0,0,1,2.92-2.92h44.273l10.492,10.416V78.912A2.92,2.92,0,0,1,173.556,81.832Z" transform="translate(757.707 4656.161)" fill="#b3dafe"/>
    <path id="Trazado_817150" data-name="Trazado 817150" d="M439.358,31.227l5.386,5.347V97.566a2.92,2.92,0,0,1-2.92,2.92h4.357a2.92,2.92,0,0,0,2.92-2.92V36.574l-7.188-7.136Z" transform="translate(485.083 4637.506)" fill="#8ac9fe"/>
    <path id="Trazado_817151" data-name="Trazado 817151" d="M428.955,7.5l10.489,10.416-7.391.922a3.6,3.6,0,0,1-4.016-4.019Z" transform="translate(494.735 4656.161)" fill="#7bacdf"/>
    <g id="Grupo_1070406" data-name="Grupo 1070406" transform="translate(859.853 4712.829)">
      <path id="Trazado_817152" data-name="Trazado 817152" d="M67.832,336.24H9.826s-2.148,4.786-2.325,4.786v9.048l2.325,4.786H67.832l2.325-4.786v-9.048C69.979,341.026,67.832,336.24,67.832,336.24Z" transform="translate(-7.501 -336.24)" fill="#d5e3f4"/>
      <path id="Trazado_817153" data-name="Trazado 817153" d="M392.43,336.24h-3.248s2.148,4.786,2.325,4.786v9.048l-2.325,4.786h3.248l2.325-4.786v-9.048C394.577,341.026,392.43,336.24,392.43,336.24Z" transform="translate(-332.099 -336.24)" fill="#b3ceec"/>
    </g>
    <g id="Grupo_1070410" data-name="Grupo 1070410" transform="translate(885.006 4670.329)">
      <g id="Grupo_1070407" data-name="Grupo 1070407">
        <path id="Trazado_817154" data-name="Trazado 817154" d="M185.338,56.121h-8.751a.9.9,0,0,1-.9-.9V52.974a.9.9,0,0,1,.9-.9h8.751a.9.9,0,0,1,.9.9v2.245A.9.9,0,0,1,185.338,56.121Z" transform="translate(-175.684 -52.071)" fill="#d5e3f4"/>
      </g>
      <g id="Grupo_1070408" data-name="Grupo 1070408" transform="translate(0 4.05)">
        <path id="Trazado_817155" data-name="Trazado 817155" d="M185.338,83.2h-8.751a.9.9,0,0,1-.9-.9V80.057a.9.9,0,0,1,.9-.9h8.751a.9.9,0,0,1,.9.9V82.3A.9.9,0,0,1,185.338,83.2Z" transform="translate(-175.684 -79.154)" fill="#b3ceec"/>
      </g>
      <g id="Grupo_1070409" data-name="Grupo 1070409" transform="translate(0 8.101)">
        <path id="Trazado_817156" data-name="Trazado 817156" d="M185.338,110.287h-8.751a.9.9,0,0,1-.9-.9V107.14a.9.9,0,0,1,.9-.9h8.751a.9.9,0,0,1,.9.9v2.245A.9.9,0,0,1,185.338,110.287Z" transform="translate(-175.684 -106.237)" fill="#d5e3f4"/>
      </g>
    </g>
    <g id="Grupo_1070411" data-name="Grupo 1070411" transform="translate(858.731 4662.542)">
      <path id="Trazado_817157" data-name="Trazado 817157" d="M75.452,66.522a1.122,1.122,0,0,0-1.122,1.122v4.89a1.8,1.8,0,0,1-1.8,1.8H20.686a1.8,1.8,0,0,1-1.8-1.8v-2.5H61.452a1.122,1.122,0,0,0,1.009-.632l2.325-4.786a1.122,1.122,0,0,0,.113-.49V55.076a1.118,1.118,0,0,0-.3-.765c-.288-.488-1.3-2.649-2.122-4.481a1.122,1.122,0,0,0-1.023-.663H45.08a1.122,1.122,0,0,0,0,2.243H60.729c.21.461.5,1.106.8,1.746.329.7.6,1.269.806,1.676.11.219.212.421.318.6v8.434l-1.906,3.923H4.149L2.243,63.866V55.432c.106-.178.207-.38.318-.6.205-.407.476-.971.806-1.675.3-.64.594-1.285.8-1.746H40.743a1.122,1.122,0,0,0,0-2.243H18.888V4.045a1.8,1.8,0,0,1,1.8-1.8h5.451a1.122,1.122,0,0,0,0-2.243H20.686a4.046,4.046,0,0,0-4.042,4.042V49.168H3.447a1.121,1.121,0,0,0-1.023.662C1.6,51.663.589,53.824.3,54.312a1.118,1.118,0,0,0-.3.764v9.048a1.121,1.121,0,0,0,.113.49L2.438,69.4a1.122,1.122,0,0,0,1.009.632h13.2v2.5a4.046,4.046,0,0,0,4.042,4.042H72.531a4.046,4.046,0,0,0,4.042-4.042v-4.89A1.121,1.121,0,0,0,75.452,66.522ZM1.068,53.956h0Z" transform="translate(0 -0.003)"/>
      <path id="Trazado_817158" data-name="Trazado 817158" d="M243.151,10.744,232.659.328a1.122,1.122,0,0,0-.79-.326H197.384a1.122,1.122,0,1,0,0,2.243H230.6L229.837,8.3a4.722,4.722,0,0,0,4.673,5.309,4.811,4.811,0,0,0,.6-.037l6.134-.765v50.5a1.122,1.122,0,0,0,2.243,0V11.54a1.122,1.122,0,0,0-.331-.8Zm-8.324.605a2.477,2.477,0,0,1-2.765-2.767l.635-5.056,7.237,7.185Z" transform="translate(-166.91 -0.002)"/>
      <path id="Trazado_817159" data-name="Trazado 817159" d="M153.332,172.071h5.653a1.122,1.122,0,1,0,0-2.243h-5.653a1.122,1.122,0,0,0,0,2.243Z" transform="translate(-129.446 -144.429)"/>
      <path id="Trazado_817160" data-name="Trazado 817160" d="M224,169.828h-8.644a1.122,1.122,0,1,0,0,2.243H224a1.122,1.122,0,0,0,0-2.243Z" transform="translate(-182.194 -144.429)"/>
      <path id="Trazado_817161" data-name="Trazado 817161" d="M313.5,169.828H297.38a1.122,1.122,0,1,0,0,2.243H313.5a1.122,1.122,0,0,0,0-2.243Z" transform="translate(-251.951 -144.429)"/>
      <path id="Trazado_817162" data-name="Trazado 817162" d="M433.561,169.828H429.4a1.122,1.122,0,0,0,0,2.243h4.157a1.122,1.122,0,0,0,0-2.243Z" transform="translate(-364.229 -144.429)"/>
      <path id="Trazado_817163" data-name="Trazado 817163" d="M153.332,207.521h13.131a1.122,1.122,0,0,0,0-2.243H153.332a1.122,1.122,0,0,0,0,2.243Z" transform="translate(-129.446 -174.578)"/>
      <path id="Trazado_817164" data-name="Trazado 817164" d="M264.234,206.4a1.121,1.121,0,0,0,1.122,1.122h4.157a1.122,1.122,0,0,0,0-2.243h-4.157A1.122,1.122,0,0,0,264.234,206.4Z" transform="translate(-224.716 -174.578)"/>
      <path id="Trazado_817165" data-name="Trazado 817165" d="M332.006,205.278H317.38a1.122,1.122,0,1,0,0,2.243h14.626a1.122,1.122,0,1,0,0-2.243Z" transform="translate(-268.959 -174.578)"/>
      <path id="Trazado_817166" data-name="Trazado 817166" d="M442.065,205.278H439.4a1.122,1.122,0,0,0,0,2.243h2.662a1.122,1.122,0,0,0,0-2.243Z" transform="translate(-372.734 -174.578)"/>
      <path id="Trazado_817167" data-name="Trazado 817167" d="M153.332,242.97h7.149a1.122,1.122,0,1,0,0-2.243h-7.149a1.122,1.122,0,0,0,0,2.243Z" transform="translate(-129.446 -204.725)"/>
      <path id="Trazado_817168" data-name="Trazado 817168" d="M239.608,241.849a1.122,1.122,0,0,0-1.122-1.122H225.356a1.122,1.122,0,0,0,0,2.243h13.131A1.122,1.122,0,0,0,239.608,241.849Z" transform="translate(-190.698 -204.725)"/>
      <path id="Trazado_817169" data-name="Trazado 817169" d="M345.65,241.849a1.121,1.121,0,0,0-1.122-1.122H337.38a1.122,1.122,0,1,0,0,2.243h7.149A1.122,1.122,0,0,0,345.65,241.849Z" transform="translate(-285.968 -204.725)"/>
      <path id="Trazado_817170" data-name="Trazado 817170" d="M416.552,240.727H409.4a1.122,1.122,0,1,0,0,2.243h7.149a1.122,1.122,0,1,0,0-2.243Z" transform="translate(-347.221 -204.725)"/>
      <path id="Trazado_817171" data-name="Trazado 817171" d="M153.332,278.419h16.122a1.122,1.122,0,0,0,0-2.243H153.332a1.122,1.122,0,1,0,0,2.243Z" transform="translate(-129.446 -234.872)"/>
      <path id="Trazado_817172" data-name="Trazado 817172" d="M292.13,277.3a1.122,1.122,0,0,0-1.122-1.122h-5.653a1.122,1.122,0,1,0,0,2.243h5.653A1.122,1.122,0,0,0,292.13,277.3Z" transform="translate(-241.725 -234.872)"/>
      <path id="Trazado_817173" data-name="Trazado 817173" d="M347.38,276.176a1.122,1.122,0,0,0,0,2.243h4.157a1.122,1.122,0,0,0,0-2.243Z" transform="translate(-294.473 -234.872)"/>
      <path id="Trazado_817174" data-name="Trazado 817174" d="M399.4,278.419h8.644a1.122,1.122,0,0,0,0-2.243H399.4a1.122,1.122,0,1,0,0,2.243Z" transform="translate(-338.716 -234.872)"/>
      <path id="Trazado_817175" data-name="Trazado 817175" d="M66.92,390.994a1.122,1.122,0,0,0,0,2.243H68.7a1.122,1.122,0,0,0,0-2.243Z" transform="translate(-55.957 -332.518)"/>
      <path id="Trazado_817176" data-name="Trazado 817176" d="M344.123,393.237a1.122,1.122,0,0,0,0-2.243h-1.784a1.122,1.122,0,0,0,0,2.243Z" transform="translate(-290.186 -332.518)"/>
      <path id="Trazado_817177" data-name="Trazado 817177" d="M280.544,360.187a1.121,1.121,0,0,0-1.122,1.122v9.207a1.122,1.122,0,0,0,.931,1.106,8.456,8.456,0,0,0,1.161.025c.493,0,1.21,0,2.262-.009a1.122,1.122,0,0,0-.006-2.243h-.006c-.722,0-1.5.007-2.1.008v-8.093A1.122,1.122,0,0,0,280.544,360.187Z" transform="translate(-237.632 -306.319)"/>
      <path id="Trazado_817178" data-name="Trazado 817178" d="M122.278,369.4a3.239,3.239,0,0,1-2.38-1,1.122,1.122,0,0,0-1.662,1.507,5.514,5.514,0,0,0,4.042,1.735,3.77,3.77,0,0,0,3.848-2.922c.227-1.273-.352-2.936-2.659-3.787-1.137-.42-2.2-.876-2.514-1.016a.668.668,0,0,1-.24-.63.955.955,0,0,1,.754-.763,3.1,3.1,0,0,1,2.564.592,1.122,1.122,0,0,0,1.438-1.722,5.339,5.339,0,0,0-4.649-1.018,3.212,3.212,0,0,0-2.328,2.592,2.9,2.9,0,0,0,1.293,2.87c.3.194,2.411,1.017,2.905,1.2.411.152,1.354.581,1.227,1.288a1.585,1.585,0,0,1-1.639,1.072Z" transform="translate(-100.306 -306.32)"/>
      <path id="Trazado_817179" data-name="Trazado 817179" d="M189.206,360.187a5.729,5.729,0,1,0,3.222,10.464l.628.628a1.122,1.122,0,0,0,1.586-1.586L194,369.05a5.727,5.727,0,0,0-4.793-8.863Zm0,9.215a3.487,3.487,0,1,1,3.15-1.994l-.662-.662a1.122,1.122,0,0,0-1.586,1.586l.687.687a3.462,3.462,0,0,1-1.589.384Z" transform="translate(-156.037 -306.319)"/>
      <path id="Trazado_817180" data-name="Trazado 817180" d="M178.96,44.571h-8.751a2.027,2.027,0,0,0-2.025,2.025V48.84a2.012,2.012,0,0,0,.213.9,2.012,2.012,0,0,0-.213.9v2.245a2.013,2.013,0,0,0,.213.9,2.012,2.012,0,0,0-.213.9v2.245a2.027,2.027,0,0,0,2.025,2.025h8.751a2.027,2.027,0,0,0,2.025-2.025V54.7a2.013,2.013,0,0,0-.213-.9,2.012,2.012,0,0,0,.213-.9V50.646a2.012,2.012,0,0,0-.213-.9,2.012,2.012,0,0,0,.213-.9V46.6A2.027,2.027,0,0,0,178.96,44.571Zm-8.532,6.294h8.313v1.807h-8.313Zm0-4.05h8.313v1.807h-8.313Zm8.313,9.908h-8.313V54.915h8.313Z" transform="translate(-143.031 -37.905)"/>
    </g>
  </g>
</svg>
