<svg xmlns="http://www.w3.org/2000/svg" width="160" height="160" viewBox="0 0 160 160">
  <g id="Grupo_1070585" data-name="Grupo 1070585" transform="translate(-406 -8385.016)">
    <rect id="Rectángulo_374537" data-name="Rectángulo 374537" width="160" height="160" rx="12" transform="translate(406 8385.016)" fill="#fff"/>
    <g id="integracion-de-sistema" transform="translate(432.305 8406.943)">
      <g id="Grupo_1070505" data-name="Grupo 1070505" transform="translate(11.384 40.208)">
        <path id="Trazado_817356" data-name="Trazado 817356" d="M59.75,24a14.19,14.19,0,1,1-17.878.017H14.85A6.848,6.848,0,0,0,8,30.867v41.1H93.622V30.85A6.848,6.848,0,0,0,86.772,24Z" transform="translate(-8 -24)" fill="#7cb5e8"/>
      </g>
      <g id="Grupo_1070506" data-name="Grupo 1070506" transform="translate(63.134 40.208)" opacity="0.3">
        <path id="Trazado_817357" data-name="Trazado 817357" d="M65.242,24H38.22a14.123,14.123,0,0,1,.514,21.525A20.3,20.3,0,0,0,56.92,56.81H72.092V30.85A6.848,6.848,0,0,0,65.242,24Z" transform="translate(-38.22 -24)" fill="#fff"/>
      </g>
      <g id="Grupo_1070507" data-name="Grupo 1070507" transform="translate(79.18 40.191)" opacity="0.5">
        <path id="Trazado_817358" data-name="Trazado 817358" d="M53,29.4h7.672v2.671a4.743,4.743,0,0,0,4.743,4.743V30.806a6.852,6.852,0,0,0-6.85-6.816H47.59A5.4,5.4,0,0,0,53,29.4Z" transform="translate(-47.59 -23.99)" fill="#fff"/>
      </g>
      <g id="Grupo_1070508" data-name="Grupo 1070508" transform="translate(11.384 88.156)">
        <path id="Trazado_817359" data-name="Trazado 817359" d="M86.772,62.275H14.85A6.848,6.848,0,0,1,8,55.425V52H93.622v3.425A6.848,6.848,0,0,1,86.772,62.275Z" transform="translate(-8 -52)" fill="#e2e2e2"/>
      </g>
      <g id="Grupo_1070509" data-name="Grupo 1070509" transform="translate(56.147 88.156)" opacity="0.5">
        <path id="Trazado_817360" data-name="Trazado 817360" d="M40.75,57.137H75V52H34.14A6.849,6.849,0,0,0,40.75,57.137Z" transform="translate(-34.14 -52)" fill="#fff"/>
      </g>
      <g id="Grupo_1070510" data-name="Grupo 1070510" transform="translate(30.221 26.509)">
        <path id="Trazado_817361" data-name="Trazado 817361" d="M62.017,36.087a19.4,19.4,0,0,0-3-6.627l3.2-4.127L57.6,20.709l-4.3,3.339a19.333,19.333,0,0,0-6.387-2.569L46.228,16H39.686L39,21.48a19.707,19.707,0,0,0-6.387,2.569l-4.3-3.339-4.624,4.624,3.2,4.127a19.4,19.4,0,0,0-3,6.627L19,36.7v6.542l4.624.582A19.391,19.391,0,0,0,26.4,51.156l-2.689,3.459,4.624,4.624,3.288-2.552a19.451,19.451,0,0,0,7.586,3.271l.5,3.99h6.542l.5-4.007a19.451,19.451,0,0,0,7.586-3.271l3.288,2.552L62.239,54.6l-2.689-3.459a19.5,19.5,0,0,0,2.774-7.329l4.624-.582V36.686ZM42.974,50.865A10.172,10.172,0,1,1,53.146,40.693,10.173,10.173,0,0,1,42.974,50.865Z" transform="translate(-19 -16)" fill="#4e6575"/>
      </g>
      <g id="Grupo_1070511" data-name="Grupo 1070511" transform="translate(38.783 98.431)">
        <path id="Trazado_817362" data-name="Trazado 817362" d="M24,58H54.824V68.275H24Z" transform="translate(-24 -58)" fill="#4e6575"/>
      </g>
      <g id="Grupo_1070512" data-name="Grupo 1070512" transform="translate(50.822 98.431)" opacity="0.3">
        <path id="Trazado_817363" data-name="Trazado 817363" d="M37.828,64.336H49.815V58H31.03A6.825,6.825,0,0,0,37.828,64.336Z" transform="translate(-31.03 -58)" fill="#e2e2e2"/>
      </g>
      <g id="Grupo_1070513" data-name="Grupo 1070513" transform="translate(93.581 24.796)">
        <circle id="Elipse_9250" data-name="Elipse 9250" cx="5.137" cy="5.137" r="5.137" fill="#ffab03"/>
      </g>
      <g id="Grupo_1070514" data-name="Grupo 1070514" transform="translate(81.594 11.097)">
        <circle id="Elipse_9251" data-name="Elipse 9251" cx="5.137" cy="5.137" r="5.137" fill="#ef4a51"/>
      </g>
      <g id="Grupo_1070515" data-name="Grupo 1070515" transform="translate(4.534 24.796)">
        <circle id="Elipse_9252" data-name="Elipse 9252" cx="5.137" cy="5.137" r="5.137" fill="#ffab03"/>
      </g>
      <g id="Grupo_1070516" data-name="Grupo 1070516" transform="translate(16.521 11.097)">
        <circle id="Elipse_9253" data-name="Elipse 9253" cx="5.137" cy="5.137" r="5.137" fill="#ef4a51"/>
      </g>
      <g id="Grupo_1070517" data-name="Grupo 1070517" transform="translate(49.058 2.534)">
        <circle id="Elipse_9254" data-name="Elipse 9254" cx="5.137" cy="5.137" r="5.137" transform="translate(0)" fill="#8aba55"/>
      </g>
      <g id="Grupo_1070518" data-name="Grupo 1070518" transform="translate(95.636 24.796)" opacity="0.3">
        <path id="Trazado_817364" data-name="Trazado 817364" d="M60.282,15a5,5,0,0,0-2.826.856,5.083,5.083,0,0,0,4.88,6.679,5,5,0,0,0,2.826-.856,5.191,5.191,0,0,0,.257-1.541A5.13,5.13,0,0,0,60.282,15Z" transform="translate(-57.2 -15)" fill="#fff"/>
      </g>
      <g id="Grupo_1070519" data-name="Grupo 1070519" transform="translate(83.649 11.097)" opacity="0.3">
        <path id="Trazado_817365" data-name="Trazado 817365" d="M53.282,7a5,5,0,0,0-2.826.856,5.083,5.083,0,0,0,4.88,6.679,5,5,0,0,0,2.826-.856,5.191,5.191,0,0,0,.257-1.541A5.13,5.13,0,0,0,53.282,7Z" transform="translate(-50.2 -7)" fill="#e2e2e2"/>
      </g>
      <g id="Grupo_1070520" data-name="Grupo 1070520" transform="translate(6.589 24.796)" opacity="0.3">
        <path id="Trazado_817366" data-name="Trazado 817366" d="M8.282,15a5,5,0,0,0-2.826.856,5.083,5.083,0,0,0,4.88,6.679,5,5,0,0,0,2.826-.856,5.191,5.191,0,0,0,.257-1.541A5.13,5.13,0,0,0,8.282,15Z" transform="translate(-5.2 -15)" fill="#fff"/>
      </g>
      <g id="Grupo_1070521" data-name="Grupo 1070521" transform="translate(18.576 11.097)" opacity="0.3">
        <path id="Trazado_817367" data-name="Trazado 817367" d="M15.282,7a5,5,0,0,0-2.826.856,5.083,5.083,0,0,0,4.88,6.679,5,5,0,0,0,2.826-.856,5.191,5.191,0,0,0,.257-1.541A5.13,5.13,0,0,0,15.282,7Z" transform="translate(-12.2 -7)" fill="#e2e2e2"/>
      </g>
      <g id="Grupo_1070522" data-name="Grupo 1070522" transform="translate(51.113 2.534)" opacity="0.3">
        <path id="Trazado_817368" data-name="Trazado 817368" d="M34.282,2a5,5,0,0,0-2.826.856A5.1,5.1,0,0,0,31.2,4.4a5.13,5.13,0,0,0,5.137,5.137,5,5,0,0,0,2.826-.856,5.191,5.191,0,0,0,.257-1.541A5.13,5.13,0,0,0,34.282,2Z" transform="translate(-31.2 -2)" fill="#fff"/>
      </g>
      <g id="Grupo_1070523" data-name="Grupo 1070523" transform="translate(39.211 26.509)" opacity="0.3">
        <path id="Trazado_817369" data-name="Trazado 817369" d="M55.3,29.46l3.2-4.127-4.624-4.624-4.3,3.339A19.333,19.333,0,0,0,43.19,21.48L42.5,16H35.963l-.685,5.48a19.707,19.707,0,0,0-6.387,2.569l-4.2-3.271A23,23,0,0,0,24.25,25.3a23.413,23.413,0,0,0,4.88,14.3A10.167,10.167,0,1,1,45.5,48.69c.736.069,1.49.12,2.26.12a23.3,23.3,0,0,0,10.172-2.346,17.124,17.124,0,0,0,.634-2.654l4.315-.548c.1-.086.205-.188.308-.291v-6.3l-4.932-.616A19.137,19.137,0,0,0,55.3,29.46Z" transform="translate(-24.25 -16)" fill="#e2e2e2"/>
      </g>
      <g id="Grupo_1070524" data-name="Grupo 1070524" transform="translate(28.919 25.241)">
        <path id="Trazado_817370" data-name="Trazado 817370" d="M46.786,65.76H40.245a1.264,1.264,0,0,1-1.267-1.13l-.394-3.1a20.809,20.809,0,0,1-6.37-2.74l-2.552,1.986a1.282,1.282,0,0,1-1.7-.1L23.343,56.05a1.282,1.282,0,0,1-.1-1.7L25.381,51.6a20.941,20.941,0,0,1-2.312-6.079l-3.7-.462a1.29,1.29,0,0,1-1.13-1.267V37.248a1.264,1.264,0,0,1,1.13-1.267l4.076-.514a20.25,20.25,0,0,1,2.432-5.411L23.24,26.665a1.282,1.282,0,0,1,.1-1.7l4.624-4.624a1.282,1.282,0,0,1,1.7-.1l3.613,2.808A20.6,20.6,0,0,1,38.4,20.98l.565-4.589a1.29,1.29,0,0,1,1.267-1.13h6.542a1.264,1.264,0,0,1,1.267,1.13L48.6,20.98a20.341,20.341,0,0,1,5.12,2.072l3.613-2.808a1.282,1.282,0,0,1,1.7.1l4.624,4.624a1.282,1.282,0,0,1,.1,1.7L61.12,30.055a20.8,20.8,0,0,1,2.432,5.411l4.058.514a1.29,1.29,0,0,1,1.13,1.267v6.542a1.264,1.264,0,0,1-1.13,1.267l-3.7.462A20.464,20.464,0,0,1,61.6,51.6l2.141,2.757a1.282,1.282,0,0,1-.1,1.7l-4.624,4.624a1.282,1.282,0,0,1-1.7.1L54.766,58.79a20.809,20.809,0,0,1-6.37,2.74L48,64.63a1.182,1.182,0,0,1-1.216,1.13Zm-5.411-2.569h4.264L46,60.314a1.272,1.272,0,0,1,1.027-1.1,18.26,18.26,0,0,0,7.09-3.048,1.312,1.312,0,0,1,1.541.034l2.4,1.867,3.014-3.014-1.986-2.569a1.289,1.289,0,0,1-.069-1.473,18.2,18.2,0,0,0,2.586-6.85,1.308,1.308,0,0,1,1.113-1.079l3.511-.445V38.378l-3.8-.479a1.3,1.3,0,0,1-1.1-.976,18.131,18.131,0,0,0-2.791-6.2,1.285,1.285,0,0,1,.034-1.524l2.517-3.219-3.014-3.014L54.646,25.6a1.289,1.289,0,0,1-1.473.069,18.393,18.393,0,0,0-5.959-2.4,1.255,1.255,0,0,1-1.01-1.1l-.548-4.367H41.392l-.548,4.367a1.274,1.274,0,0,1-1.01,1.1,18.092,18.092,0,0,0-5.959,2.4A1.289,1.289,0,0,1,32.4,25.6l-3.408-2.654L25.98,25.963,28.5,29.182a1.285,1.285,0,0,1,.034,1.524,17.812,17.812,0,0,0-2.791,6.2,1.3,1.3,0,0,1-1.1.976l-3.8.479v4.264l3.511.445a1.308,1.308,0,0,1,1.113,1.079A18.2,18.2,0,0,0,28.052,51a1.289,1.289,0,0,1-.069,1.473L26,55.04l3.014,3.014,2.4-1.867a1.311,1.311,0,0,1,1.541-.034,18.151,18.151,0,0,0,7.09,3.048,1.272,1.272,0,0,1,1.027,1.1Z" transform="translate(-18.24 -15.26)"/>
      </g>
      <g id="Grupo_1070525" data-name="Grupo 1070525" transform="translate(42.739 39.746)">
        <path id="Trazado_817371" data-name="Trazado 817371" d="M37.766,46.642A11.456,11.456,0,1,1,49.222,35.186,11.467,11.467,0,0,1,37.766,46.642Zm0-20.344a8.888,8.888,0,1,0,8.888,8.888A8.9,8.9,0,0,0,37.766,26.3Z" transform="translate(-26.31 -23.73)"/>
      </g>
      <g id="Grupo_1070526" data-name="Grupo 1070526" transform="translate(10.1 86.872)">
        <path id="Trazado_817372" data-name="Trazado 817372" d="M87.307,64.093H15.384A8.141,8.141,0,0,1,7.25,55.959V52.534A1.294,1.294,0,0,1,8.534,51.25H94.156a1.294,1.294,0,0,1,1.284,1.284v3.425A8.141,8.141,0,0,1,87.307,64.093ZM9.819,53.819v2.141a5.576,5.576,0,0,0,5.565,5.565H87.307a5.576,5.576,0,0,0,5.565-5.565V53.819Z" transform="translate(-7.25 -51.25)"/>
      </g>
      <g id="Grupo_1070527" data-name="Grupo 1070527" transform="translate(37.499 97.147)">
        <path id="Trazado_817373" data-name="Trazado 817373" d="M55.358,70.093H24.534a1.294,1.294,0,0,1-1.284-1.284V58.534a1.294,1.294,0,0,1,1.284-1.284H55.358a1.294,1.294,0,0,1,1.284,1.284V68.809A1.294,1.294,0,0,1,55.358,70.093Zm-29.54-2.569H54.074V59.819H25.819Z" transform="translate(-23.25 -57.25)"/>
      </g>
      <g id="Grupo_1070528" data-name="Grupo 1070528" transform="translate(30.649 107.421)">
        <path id="Trazado_817374" data-name="Trazado 817374" d="M65.058,65.819H20.534a1.284,1.284,0,1,1,0-2.569H65.058a1.284,1.284,0,1,1,0,2.569Z" transform="translate(-19.25 -63.25)"/>
      </g>
      <g id="Grupo_1070529" data-name="Grupo 1070529" transform="translate(52.911 11.679)">
        <path id="Trazado_817375" data-name="Trazado 817375" d="M33.534,18.317a1.294,1.294,0,0,1-1.284-1.284V8.624a1.284,1.284,0,0,1,2.569,0v8.408A1.294,1.294,0,0,1,33.534,18.317Z" transform="translate(-32.25 -7.34)"/>
      </g>
      <g id="Grupo_1070530" data-name="Grupo 1070530" transform="translate(71.799 14.95)">
        <path id="Trazado_817376" data-name="Trazado 817376" d="M44.564,23.806a1.294,1.294,0,0,1-1.284-1.284V10.534A1.294,1.294,0,0,1,44.564,9.25h8.511a1.284,1.284,0,1,1,0,2.569H45.849v10.7A1.294,1.294,0,0,1,44.564,23.806Z" transform="translate(-43.28 -9.25)"/>
      </g>
      <g id="Grupo_1070531" data-name="Grupo 1070531" transform="translate(82.022 28.649)">
        <path id="Trazado_817377" data-name="Trazado 817377" d="M53.959,40.368H50.534a1.284,1.284,0,0,1,0-2.569h2.141V18.534a1.294,1.294,0,0,1,1.284-1.284h6.85a1.284,1.284,0,0,1,0,2.569H55.244V39.084A1.294,1.294,0,0,1,53.959,40.368Z" transform="translate(-49.25 -17.25)"/>
      </g>
      <g id="Grupo_1070532" data-name="Grupo 1070532" transform="translate(92.297 23.512)">
        <path id="Trazado_817378" data-name="Trazado 817378" d="M61.672,27.093a6.422,6.422,0,1,1,6.422-6.422A6.424,6.424,0,0,1,61.672,27.093Zm0-10.275a3.853,3.853,0,1,0,3.853,3.853A3.859,3.859,0,0,0,61.672,16.819Z" transform="translate(-55.25 -14.25)"/>
      </g>
      <g id="Grupo_1070533" data-name="Grupo 1070533" transform="translate(80.31 9.812)">
        <path id="Trazado_817379" data-name="Trazado 817379" d="M54.672,19.093a6.422,6.422,0,1,1,6.422-6.422A6.424,6.424,0,0,1,54.672,19.093Zm0-10.275a3.853,3.853,0,1,0,3.853,3.853A3.859,3.859,0,0,0,54.672,8.819Z" transform="translate(-48.25 -6.25)"/>
      </g>
      <g id="Grupo_1070534" data-name="Grupo 1070534" transform="translate(25.512 14.95)">
        <path id="Trazado_817380" data-name="Trazado 817380" d="M26.045,23.806a1.294,1.294,0,0,1-1.284-1.284v-10.7H17.534a1.284,1.284,0,1,1,0-2.569h8.511a1.294,1.294,0,0,1,1.284,1.284V22.521A1.283,1.283,0,0,1,26.045,23.806Z" transform="translate(-16.25 -9.25)"/>
      </g>
      <g id="Grupo_1070535" data-name="Grupo 1070535" transform="translate(13.525 28.649)">
        <path id="Trazado_817381" data-name="Trazado 817381" d="M20.809,40.368H17.384A1.294,1.294,0,0,1,16.1,39.084V19.819H10.534a1.284,1.284,0,1,1,0-2.569h6.85a1.294,1.294,0,0,1,1.284,1.284V37.8h2.141a1.284,1.284,0,1,1,0,2.569Z" transform="translate(-9.25 -17.25)"/>
      </g>
      <g id="Grupo_1070536" data-name="Grupo 1070536" transform="translate(3.25 23.512)">
        <path id="Trazado_817382" data-name="Trazado 817382" d="M9.672,27.093a6.422,6.422,0,1,1,6.422-6.422A6.424,6.424,0,0,1,9.672,27.093Zm0-10.275a3.853,3.853,0,1,0,3.853,3.853A3.859,3.859,0,0,0,9.672,16.819Z" transform="translate(-3.25 -14.25)"/>
      </g>
      <g id="Grupo_1070537" data-name="Grupo 1070537" transform="translate(15.237 9.812)">
        <path id="Trazado_817383" data-name="Trazado 817383" d="M16.672,19.093a6.422,6.422,0,1,1,6.422-6.422A6.424,6.424,0,0,1,16.672,19.093Zm0-10.275a3.853,3.853,0,1,0,3.853,3.853A3.859,3.859,0,0,0,16.672,8.819Z" transform="translate(-10.25 -6.25)"/>
      </g>
      <g id="Grupo_1070538" data-name="Grupo 1070538" transform="translate(47.773 1.25)">
        <path id="Trazado_817384" data-name="Trazado 817384" d="M35.672,14.093a6.422,6.422,0,1,1,6.422-6.422A6.424,6.424,0,0,1,35.672,14.093Zm0-10.275a3.853,3.853,0,1,0,3.853,3.853A3.859,3.859,0,0,0,35.672,3.819Z" transform="translate(-29.25 -1.25)"/>
      </g>
      <g id="Grupo_1070539" data-name="Grupo 1070539" transform="translate(10.1 38.924)">
        <path id="Trazado_817385" data-name="Trazado 817385" d="M94.156,73.767H8.534A1.294,1.294,0,0,1,7.25,72.483v-41.1a8.141,8.141,0,0,1,8.134-8.134H29.1a1.284,1.284,0,1,1,0,2.569H15.384a5.576,5.576,0,0,0-5.565,5.565V71.2H92.872V31.384a5.576,5.576,0,0,0-5.565-5.565H73.59a1.284,1.284,0,1,1,0-2.569H87.307a8.141,8.141,0,0,1,8.134,8.134v41.1A1.294,1.294,0,0,1,94.156,73.767Z" transform="translate(-7.25 -23.25)"/>
      </g>
    </g>
  </g>
</svg>
