<svg xmlns="http://www.w3.org/2000/svg" width="108.37" height="108.37" viewBox="0 0 108.37 108.37">
  <g id="computer" transform="translate(-2 -2)">
    <path id="Trazado_601640" data-name="Trazado 601640" d="M107.757,18.612V69.185H3V18.612A3.623,3.623,0,0,1,6.612,15h97.533A3.623,3.623,0,0,1,107.757,18.612Z" transform="translate(0.806 10.48)" fill="#57a4ff"/>
    <path id="Trazado_601641" data-name="Trazado 601641" d="M107.757,18.612V69.185H3V61.96H78.859a21.674,21.674,0,0,0,21.674-21.674V18.612A3.623,3.623,0,0,0,96.92,15h7.225A3.623,3.623,0,0,1,107.757,18.612Z" transform="translate(0.806 10.48)" fill="#2488ff"/>
    <path id="Trazado_601642" data-name="Trazado 601642" d="M53,27h7.225V52.286H53Z" transform="translate(41.114 20.154)" fill="#ff7956"/>
    <path id="Trazado_601643" data-name="Trazado 601643" d="M45,29h7.225V50.674H45Z" transform="translate(34.665 21.766)" fill="#ffde55"/>
    <path id="Trazado_601644" data-name="Trazado 601644" d="M63.348,64.225H20L25.418,57H57.929Z" transform="translate(14.511 44.339)" fill="#c6c5ca"/>
    <path id="Trazado_601645" data-name="Trazado 601645" d="M37,33h7.225V47.449H37Z" transform="translate(28.216 24.991)" fill="#00ddc2"/>
    <path id="Trazado_601646" data-name="Trazado 601646" d="M45,9.5a16.19,16.19,0,0,1,3.251,9.753,14.923,14.923,0,0,1-.108,1.806H32V3A16.241,16.241,0,0,1,45,9.5Z" transform="translate(24.185 0.806)" fill="#ff7956"/>
    <path id="Trazado_601647" data-name="Trazado 601647" d="M28.093,31.068A16.252,16.252,0,0,1,39.255,3V21.062H55.4a15.228,15.228,0,0,1-.831,3.612,16.243,16.243,0,0,1-26.478,6.394Z" transform="translate(16.929 0.806)" fill="#ffde55"/>
    <path id="Trazado_601648" data-name="Trazado 601648" d="M55.4,18.015a15.228,15.228,0,0,1-.831,3.612A16.251,16.251,0,0,1,23,16.209a16.787,16.787,0,0,1,.217-2.709,16.59,16.59,0,0,0,.722,2.709A15.961,15.961,0,0,0,28.093,22.6a16.228,16.228,0,0,0,25.7-4.588Z" transform="translate(16.929 9.271)" fill="#2488ff"/>
    <path id="Trazado_601649" data-name="Trazado 601649" d="M50.286,61.837H25L26.806,51H48.48Z" transform="translate(18.542 39.502)" fill="#57a4ff"/>
    <path id="Trazado_601650" data-name="Trazado 601650" d="M107.757,45v7.225a3.623,3.623,0,0,1-3.612,3.612H6.612A3.623,3.623,0,0,1,3,52.225V45Z" transform="translate(0.806 34.665)" fill="#c6c5ca"/>
    <path id="Trazado_601651" data-name="Trazado 601651" d="M26,51H47.674v5.418H26Z" transform="translate(19.348 39.502)" fill="#2488ff"/>
    <path id="Trazado_601652" data-name="Trazado 601652" d="M16.031,28.031h9.031A9.031,9.031,0,1,1,16.031,19Z" transform="translate(4.031 13.705)" fill="#ffde55"/>
    <path id="Trazado_601653" data-name="Trazado 601653" d="M37,33h7.225V47.449H37Z" transform="translate(28.216 24.991)" fill="#00d7df"/>
    <path id="Trazado_601654" data-name="Trazado 601654" d="M53,27h7.225v3.612H53Z" transform="translate(41.114 20.154)" fill="#ff5023"/>
    <path id="Trazado_601655" data-name="Trazado 601655" d="M45,29h7.225v3.612H45Z" transform="translate(34.665 21.766)" fill="#ebbf00"/>
    <path id="Trazado_601656" data-name="Trazado 601656" d="M37,33h7.225v3.612H37Z" transform="translate(28.216 24.991)" fill="#009698"/>
    <path id="Trazado_601657" data-name="Trazado 601657" d="M104.951,23.674H73.885a18.422,18.422,0,0,0,.361-3.612,18,18,0,0,0-2.619-9.32l6.827-5.129H92.308V2H77.859a1.777,1.777,0,0,0-1.084.361L69.46,7.852a17.984,17.984,0,0,0-26.551,0L35.595,2.361A1.777,1.777,0,0,0,34.511,2H20.062V5.612H33.915l6.827,5.129a18,18,0,0,0-2.619,9.32,18.422,18.422,0,0,0,.361,3.612H7.418A5.435,5.435,0,0,0,2,29.092v57.8a5.435,5.435,0,0,0,5.418,5.418H43.542v7.225H38.123a1.831,1.831,0,0,0-1.445.722L31.26,107.48a1.806,1.806,0,0,0,1.445,2.89h46.96a1.806,1.806,0,0,0,1.445-2.89l-5.418-7.225a1.831,1.831,0,0,0-1.445-.722H68.828V92.308h36.123a5.435,5.435,0,0,0,5.418-5.418v-57.8a5.435,5.435,0,0,0-5.418-5.418ZM57.991,5.739a14.41,14.41,0,0,1,8.561,4.281L62.326,13.2l2.167,2.89,4.226-3.179a14.35,14.35,0,0,1,1.915,7.152H57.991ZM43.65,12.909l4.226,3.179,2.167-2.89-4.226-3.179a14.41,14.41,0,0,1,8.561-4.281V21.868a1.806,1.806,0,0,0,1.806,1.806h13.98A14.44,14.44,0,1,1,43.65,12.909Zm29.693,90.236,2.709,3.612H36.317l2.709-3.612ZM47.154,99.533V92.308H65.216v7.225Zm59.6-12.643a1.806,1.806,0,0,1-1.806,1.806H7.418A1.806,1.806,0,0,1,5.612,86.89V81.471H106.757Zm0-9.031H5.612V29.092a1.806,1.806,0,0,1,1.806-1.806H39.64a18.047,18.047,0,0,0,33.089,0h32.222a1.806,1.806,0,0,1,1.806,1.806Z" transform="translate(0 0)"/>
    <path id="Trazado_601658" data-name="Trazado 601658" d="M54,2h7.225V5.612H54Z" transform="translate(41.92 0)"/>
    <path id="Trazado_601659" data-name="Trazado 601659" d="M44,6h3.612V9.612H44Z" transform="translate(33.859 3.225)"/>
    <path id="Trazado_601660" data-name="Trazado 601660" d="M48,6H66.062V9.612H48Z" transform="translate(37.083 3.225)"/>
    <path id="Trazado_601661" data-name="Trazado 601661" d="M44,10H58.449v3.612H44Z" transform="translate(33.859 6.449)"/>
    <path id="Trazado_601662" data-name="Trazado 601662" d="M54,10h7.225v3.612H54Z" transform="translate(41.92 6.449)"/>
    <path id="Trazado_601663" data-name="Trazado 601663" d="M6,2h7.225V5.612H6Z" transform="translate(3.225 0)"/>
    <path id="Trazado_601664" data-name="Trazado 601664" d="M18,6h3.612V9.612H18Z" transform="translate(12.899 3.225)"/>
    <path id="Trazado_601665" data-name="Trazado 601665" d="M6,6H24.062V9.612H6Z" transform="translate(3.225 3.225)"/>
    <path id="Trazado_601666" data-name="Trazado 601666" d="M12,10H26.449v3.612H12Z" transform="translate(8.062 6.449)"/>
    <path id="Trazado_601667" data-name="Trazado 601667" d="M6,10h7.225v3.612H6Z" transform="translate(3.225 6.449)"/>
    <path id="Trazado_601668" data-name="Trazado 601668" d="M6,32h9.031v3.612H6Z" transform="translate(3.225 24.185)"/>
    <path id="Trazado_601669" data-name="Trazado 601669" d="M13,32H47.317v3.612H13Z" transform="translate(8.868 24.185)"/>
    <path id="Trazado_601670" data-name="Trazado 601670" d="M6,36H34.9v3.612H6Z" transform="translate(3.225 27.409)"/>
    <path id="Trazado_601671" data-name="Trazado 601671" d="M24,36H38.449v3.612H24Z" transform="translate(17.736 27.409)"/>
    <path id="Trazado_601672" data-name="Trazado 601672" d="M6,40H24.062v3.612H6Z" transform="translate(3.225 30.634)"/>
    <path id="Trazado_601673" data-name="Trazado 601673" d="M18,40H43.286v3.612H18Z" transform="translate(12.899 30.634)"/>
    <path id="Trazado_601674" data-name="Trazado 601674" d="M37.806,50.062h7.225a1.806,1.806,0,0,0,1.806-1.806V33.806A1.806,1.806,0,0,0,45.031,32H37.806A1.806,1.806,0,0,0,36,33.806V48.255A1.806,1.806,0,0,0,37.806,50.062Zm1.806-14.449h3.612V46.449H39.612Z" transform="translate(27.409 24.185)"/>
    <path id="Trazado_601675" data-name="Trazado 601675" d="M53.031,28H45.806A1.806,1.806,0,0,0,44,29.806V51.48a1.806,1.806,0,0,0,1.806,1.806h7.225a1.806,1.806,0,0,0,1.806-1.806V29.806A1.806,1.806,0,0,0,53.031,28ZM51.225,49.674H47.612V31.612h3.612Z" transform="translate(33.859 20.96)"/>
    <path id="Trazado_601676" data-name="Trazado 601676" d="M61.031,26H53.806A1.806,1.806,0,0,0,52,27.806V53.092A1.806,1.806,0,0,0,53.806,54.9h7.225a1.806,1.806,0,0,0,1.806-1.806V27.806A1.806,1.806,0,0,0,61.031,26ZM59.225,51.286H55.612V29.612h3.612Z" transform="translate(40.308 19.348)"/>
    <path id="Trazado_601677" data-name="Trazado 601677" d="M16.837,39.674A10.848,10.848,0,0,0,27.674,28.837a1.806,1.806,0,0,0-1.806-1.806H18.643V19.806A1.806,1.806,0,0,0,16.837,18a10.837,10.837,0,0,0,0,21.674ZM15.031,21.84v7a1.806,1.806,0,0,0,1.806,1.806h7a7.225,7.225,0,1,1-8.8-8.8Z" transform="translate(3.225 12.899)"/>
    <path id="Trazado_601678" data-name="Trazado 601678" d="M20,24h3.612v3.612H20Z" transform="translate(14.511 17.736)"/>
    <path id="Trazado_601679" data-name="Trazado 601679" d="M24,24H38.449v3.612H24Z" transform="translate(17.736 17.736)"/>
    <path id="Trazado_601680" data-name="Trazado 601680" d="M20,28H41.674v3.612H20Z" transform="translate(14.511 20.96)"/>
    <path id="Trazado_601681" data-name="Trazado 601681" d="M46.656,38.675l3.1-6.226H59.48a1.806,1.806,0,0,0,1.389-.65l8.489-10.187h6.378V18H68.511a1.806,1.806,0,0,0-1.389.65L58.633,28.837h-9.99a1.806,1.806,0,0,0-1.626,1l-3.1,6.226H36v3.612h9.031a1.806,1.806,0,0,0,1.626-1Z" transform="translate(27.409 12.899)"/>
  </g>
</svg>
