<svg xmlns="http://www.w3.org/2000/svg" width="156" height="151" viewBox="0 0 156 151">
  <g id="Grupo_1070547" data-name="Grupo 1070547" transform="translate(-1068 -682)">
    <g id="Grupo_1064830" data-name="Grupo 1064830" transform="translate(0 -807)">
      <g id="Grupo_110668" data-name="Grupo 110668" transform="translate(6.5 6.27)">
        <rect id="Rectángulo_37257" data-name="Rectángulo 37257" width="156" height="151" rx="12" transform="translate(1061.5 1482.731)" fill="#ff6148"/>
      </g>
    </g>
    <circle id="Elipse_8316" data-name="Elipse 8316" cx="3.14" cy="3.14" r="3.14" transform="translate(1111.427 789.685)" fill="#706cb5"/>
    <circle id="Elipse_8317" data-name="Elipse 8317" cx="3.14" cy="3.14" r="3.14" transform="translate(1099.467 733.824)" fill="#706cb5"/>
    <circle id="Elipse_8318" data-name="Elipse 8318" cx="3.14" cy="3.14" r="3.14" transform="translate(1129.237 710.504)" fill="#706cb5"/>
    <circle id="Elipse_8319" data-name="Elipse 8319" cx="3.14" cy="3.14" r="3.14" transform="translate(1121.727 727.765)" fill="#706cb5"/>
    <circle id="Elipse_8320" data-name="Elipse 8320" cx="3.14" cy="3.14" r="3.14" transform="translate(1140.217 798.135)" fill="#706cb5"/>
    <rect id="Rectángulo_374048" data-name="Rectángulo 374048" width="37.79" height="37.79" rx="3.2" transform="translate(1133.327 738.425)" fill="#bbdbff"/>
    <rect id="Rectángulo_374049" data-name="Rectángulo 374049" width="25" height="25" rx="0.73" transform="translate(1164.727 744.814) rotate(90)" fill="#75a4fa"/>
    <path id="Trazado_601682" data-name="Trazado 601682" d="M51.24,28.92h3V66.71h-3Z" transform="translate(1097.987 709.504)" fill="#5c86c7"/>
    <path id="Trazado_601683" data-name="Trazado 601683" d="M51.24,60.31h3V66.7h-3Z" transform="translate(1097.987 709.504)" fill="#75a4fa"/>
    <path id="Trazado_601684" data-name="Trazado 601684" d="M51.24,28.92h3v6.39h-3Z" transform="translate(1097.987 709.504)" fill="#75a4fa"/>
    <rect id="Rectángulo_374050" data-name="Rectángulo 374050" width="13" height="13" rx="0.47" transform="translate(1158.727 750.814) rotate(90)" fill="#fff"/>
    <path id="Trazado_601685" data-name="Trazado 601685" d="M51.24,41.31h3v13h-3Z" transform="translate(1097.987 709.504)" fill="#d4efff"/>
    <g id="Grupo_1064831" data-name="Grupo 1064831" transform="translate(1097.987 709.504)">
      <path id="Trazado_601686" data-name="Trazado 601686" d="M70,67.7H38.45a4.11,4.11,0,0,1-4.11-4.1V32a4.11,4.11,0,0,1,4.11-4.1H70A4.11,4.11,0,0,1,74.13,32V63.6A4.11,4.11,0,0,1,70,67.7ZM38.45,29.92A2.11,2.11,0,0,0,36.34,32V63.6a2.11,2.11,0,0,0,2.11,2.1H70a2.11,2.11,0,0,0,2.11-2.1V32A2.11,2.11,0,0,0,70,29.92Z" fill="#302d3d"/>
      <path id="Trazado_601687" data-name="Trazado 601687" d="M66.74,61.31h-25a1,1,0,0,1-1-1v-25a1,1,0,0,1,1-1h25a1,1,0,0,1,1,1v25A1,1,0,0,1,66.74,61.31Zm-24-2h23v-23h-23Z" fill="#302d3d"/>
      <path id="Trazado_601688" data-name="Trazado 601688" d="M35.34,42.68H23.54a1,1,0,0,1,0-2h11.8a1,1,0,0,1,0,2Z" fill="#302d3d"/>
      <path id="Trazado_601689" data-name="Trazado 601689" d="M35.34,48.64H18.43a1,1,0,0,1,0-2H35.34a1,1,0,0,1,0,2Z" fill="#302d3d"/>
      <path id="Trazado_601690" data-name="Trazado 601690" d="M35.34,54.61H23.54a1,1,0,0,1,0-2h11.8a1,1,0,0,1,0,2Z" fill="#302d3d"/>
      <path id="Trazado_601691" data-name="Trazado 601691" d="M15.59,80.17l-.13-18.54A4.56,4.56,0,0,1,20,57l15.26-.11a1,1,0,0,1,0,2L20,59a2.57,2.57,0,0,0-2.55,2.59l.13,18.54a1,1,0,1,1-2,0Z" fill="#302d3d"/>
      <path id="Trazado_601692" data-name="Trazado 601692" d="M30.32,74.31H27.83a3.54,3.54,0,0,1-3.53-3.53V65.26a3.53,3.53,0,0,1,3.53-3.53h7.51a1,1,0,0,1,0,2H27.83a1.54,1.54,0,0,0-1.53,1.53v5.52a1.54,1.54,0,0,0,1.53,1.53h2.49a1,1,0,0,1,0,2Z" fill="#302d3d"/>
      <path id="Trazado_601693" data-name="Trazado 601693" d="M35.34,38.15H19.12a4.58,4.58,0,0,1-4.57-4.57V31A2.57,2.57,0,0,0,12,28.46H7.77a1,1,0,0,1,0-2H12A4.57,4.57,0,0,1,16.55,31v2.55a2.57,2.57,0,0,0,2.57,2.57H35.34a1,1,0,0,1,0,2Z" fill="#302d3d"/>
      <path id="Trazado_601694" data-name="Trazado 601694" d="M35.34,33.89H30.45a4.58,4.58,0,0,1-4.57-4.57V24.63a1,1,0,0,1,2,0v4.69a2.58,2.58,0,0,0,2.57,2.57h4.89a1,1,0,1,1,0,2Z" fill="#302d3d"/>
      <path id="Trazado_601695" data-name="Trazado 601695" d="M30,89.49a1,1,0,0,1-1-1V84.32a3.54,3.54,0,0,1,3.53-3.53H38a1.54,1.54,0,0,0,1.54-1.53V66.7a1,1,0,0,1,2,0V79.26A3.54,3.54,0,0,1,38,82.79H32.48A1.54,1.54,0,0,0,31,84.32v4.17A1,1,0,0,1,30,89.49Z" fill="#302d3d"/>
      <path id="Trazado_601696" data-name="Trazado 601696" d="M44.88,75.77a1,1,0,0,1-1-1V66.7a1,1,0,0,1,2,0v8.07A1,1,0,0,1,44.88,75.77Z" fill="#302d3d"/>
      <path id="Trazado_601697" data-name="Trazado 601697" d="M45.52,89.63a1,1,0,0,1-1-1V84.94a4.61,4.61,0,0,1,1.34-3.23l1.91-1.9A2.58,2.58,0,0,0,48.52,78V66.7a1,1,0,0,1,2,0V78a4.61,4.61,0,0,1-1.34,3.23l-1.9,1.91a2.57,2.57,0,0,0-.76,1.81v3.69a1,1,0,0,1-1,.99Z" fill="#302d3d"/>
      <path id="Trazado_601698" data-name="Trazado 601698" d="M40.58,29.92a1,1,0,0,1-1-1V25.61a3.28,3.28,0,0,0-1-2.33l-3.67-3.67a5.26,5.26,0,0,1-1.55-3.74V7.29a1,1,0,0,1,2,0v8.58a3.29,3.29,0,0,0,1,2.33L40,21.87a5.27,5.27,0,0,1,1.56,3.74v3.31a1,1,0,0,1-.98,1Z" fill="#302d3d"/>
      <path id="Trazado_601699" data-name="Trazado 601699" d="M44.88,29.92a1,1,0,0,1-1-1V7.29a1,1,0,0,1,2,0V28.92A1,1,0,0,1,44.88,29.92Z" fill="#302d3d"/>
      <path id="Trazado_601700" data-name="Trazado 601700" d="M49.52,29.92a1,1,0,0,1-1-1V13.87a1,1,0,0,1,2,0V28.92A1,1,0,0,1,49.52,29.92Z" fill="#302d3d"/>
      <path id="Trazado_601701" data-name="Trazado 601701" d="M16.59,87.46a4.15,4.15,0,1,1,4.14-4.15,4.15,4.15,0,0,1-4.14,4.15Zm0-6.29a2.15,2.15,0,1,0,2.14,2.14,2.15,2.15,0,0,0-2.14-2.14Z" fill="#302d3d"/>
      <path id="Trazado_601702" data-name="Trazado 601702" d="M4.63,31.6a4.15,4.15,0,1,1,4.14-4.14A4.15,4.15,0,0,1,4.63,31.6Zm0-6.29a2.15,2.15,0,1,0,2.14,2.15,2.15,2.15,0,0,0-2.14-2.15Z" fill="#302d3d"/>
      <path id="Trazado_601703" data-name="Trazado 601703" d="M34.39,8.29a4.15,4.15,0,1,1,4.14-4.15,4.15,4.15,0,0,1-4.14,4.15Zm0-6.29a2.15,2.15,0,1,0,2.14,2.14A2.15,2.15,0,0,0,34.39,2Z" fill="#302d3d"/>
      <path id="Trazado_601704" data-name="Trazado 601704" d="M26.88,25.54A4.15,4.15,0,1,1,31,21.39a4.15,4.15,0,0,1-4.12,4.15Zm0-6.29A2.15,2.15,0,1,0,29,21.39a2.15,2.15,0,0,0-2.12-2.14Z" fill="#302d3d"/>
      <path id="Trazado_601705" data-name="Trazado 601705" d="M45.52,95.91a4.16,4.16,0,1,1,3.045-1.344A4.14,4.14,0,0,1,45.52,95.91Zm0-6.29a2.14,2.14,0,1,0,2.14,2,2.14,2.14,0,0,0-2.14-2Z" fill="#302d3d"/>
    </g>
    <path id="Trazado_601706" data-name="Trazado 601706" d="M86.15,52.26a10.21,10.21,0,0,1-5.34,16.92,13.63,13.63,0,0,1-4.48,14.76,22.268,22.268,0,0,1-2,1.34,10.061,10.061,0,0,1-20.12-.34V11.31a9.47,9.47,0,1,1,18.89,1,7.31,7.31,0,0,1,9.31,11c.25,0,.48-.06.73-.06,7.1,0,11.22,6.75,6.56,11.34a9.47,9.47,0,0,1-3.57,17.64Z" transform="translate(1097.987 709.504)" fill="#00e6a9"/>
    <path id="Trazado_601707" data-name="Trazado 601707" d="M82.2,39.15a10.21,10.21,0,0,1-5.34,16.92,13.62,13.62,0,0,1-4.48,14.76,22.269,22.269,0,0,1-2,1.34,10.08,10.08,0,0,1-16.17,7.65V11.31a9.47,9.47,0,1,1,18.89,1,7.31,7.31,0,0,1,9.31,11c.25,0,.48-.06.73-.06a9.42,9.42,0,0,1,6.5,2.44A9.46,9.46,0,0,1,82.2,39.15Z" transform="translate(1097.987 709.504)" fill="#2effc7"/>
    <path id="Trazado_601708" data-name="Trazado 601708" d="M76,36.84l5.87-.67a6.45,6.45,0,0,0,5.31-8.64,6.58,6.58,0,0,0-4-1.25c-.65.07.38,0-8.88.37l5.91-5.38a4.3,4.3,0,0,0-5.59-6.35l-5.21,3c1-8.43.67-5.43.75-7.32a5.12,5.12,0,0,0-2.23-4.4c-5.18-3.45-10.69.2-10.69,5.11V24.07A16.93,16.93,0,0,0,74.17,41,2.48,2.48,0,0,0,76,36.84Z" transform="translate(1097.987 709.504)" fill="#a3ffe6"/>
    <path id="Trazado_601709" data-name="Trazado 601709" d="M64.3,96A11.08,11.08,0,0,1,53.24,84.93V11.31a10.469,10.469,0,1,1,20.931-.56A8.34,8.34,0,0,1,84.28,22.33c6.92.67,10.69,7.17,7,12.08A10.48,10.48,0,0,1,88,52.92a11.21,11.21,0,0,1-5.91,17,14.63,14.63,0,0,1-6.7,16A11,11,0,0,1,64.3,96ZM63.72,2.84a8.48,8.48,0,0,0-8.48,8.47V84.93a9.07,9.07,0,0,0,18.13.3,1,1,0,0,1,.52-.85,12.64,12.64,0,0,0,6.56-11.07c0-3.23-1-3.82-.5-4.63a1,1,0,0,1,.66-.48,9.21,9.21,0,0,0,4.81-15.26A1,1,0,0,1,86,51.27a8.47,8.47,0,0,0,3.19-15.78,1,1,0,0,1-.2-1.58c4.06-4,.27-9.64-5.86-9.64-.15,0-.43.05-.68.07a1,1,0,0,1-.82-1.64,6.31,6.31,0,0,0-8-9.51,1,1,0,0,1-1.5-1,8.49,8.49,0,0,0-8.41-9.35Z" transform="translate(1097.987 709.504)" fill="#302d3d"/>
    <path id="Trazado_601710" data-name="Trazado 601710" d="M79.52,46.52a1,1,0,0,1-1-1,12.59,12.59,0,0,0-6.9-11.25,1,1,0,1,1,.91-1.78,14.55,14.55,0,0,1,8,13,1,1,0,0,1-1.01,1.03Z" transform="translate(1097.987 709.504)" fill="#302d3d"/>
    <path id="Trazado_601711" data-name="Trazado 601711" d="M63.05,70.73a1,1,0,0,1-.7-1.71,9.66,9.66,0,0,0,2.36-9.88,1,1,0,1,1,1.91-.62,11.67,11.67,0,0,1-2.86,11.92,1,1,0,0,1-.71.29Z" transform="translate(1097.987 709.504)" fill="#302d3d"/>
    <path id="Trazado_601712" data-name="Trazado 601712" d="M66.71,22.53a1.07,1.07,0,0,1-.46-.11A9.56,9.56,0,0,1,61,13.87a1,1,0,1,1,2,0,7.55,7.55,0,0,0,4.15,6.76,1,1,0,0,1-.44,1.9Z" transform="translate(1097.987 709.504)" fill="#302d3d"/>
    <path id="Trazado_601713" data-name="Trazado 601713" d="M65.66,50.77a.93.93,0,0,1-.45-.11,5.74,5.74,0,0,1-3.16-5.14,1,1,0,1,1,2,0,3.77,3.77,0,0,0,2.07,3.36,1,1,0,0,1-.46,1.89Z" transform="translate(1097.987 709.504)" fill="#302d3d"/>
    <path id="Trazado_601714" data-name="Trazado 601714" d="M80.84,70.27a1,1,0,0,1-1-.71,12.53,12.53,0,0,0-5.3-6.9A1,1,0,1,1,75.65,61a14.58,14.58,0,0,1,6.14,8,1,1,0,0,1-.95,1.27Z" transform="translate(1097.987 709.504)" fill="#302d3d"/>
    <path id="Trazado_601715" data-name="Trazado 601715" d="M75.79,27.38A1,1,0,0,1,75,25.75a10,10,0,0,1,7.36-3.46,1,1,0,0,1,.09,2A8.09,8.09,0,0,0,76.57,27,1,1,0,0,1,75.79,27.38Z" transform="translate(1097.987 709.504)" fill="#302d3d"/>
    <path id="Trazado_601716" data-name="Trazado 601716" d="M74.36,86.25a1,1,0,0,1-1-1A9.07,9.07,0,0,0,71.14,79a1,1,0,1,1,1.51-1.31,11.06,11.06,0,0,1,2.71,7.62,1,1,0,0,1-1,.94Z" transform="translate(1097.987 709.504)" fill="#302d3d"/>
  </g>
</svg>
