<svg xmlns="http://www.w3.org/2000/svg" xmlns:xlink="http://www.w3.org/1999/xlink" width="368" height="223" viewBox="0 0 368 223">
  <defs>
    <clipPath id="clip-path">
      <path id="path2733" d="M0-682.665H57.85v57.85H0Z" transform="translate(0 682.665)"/>
    </clipPath>
  </defs>
  <g id="Grupo_1070570" data-name="Grupo 1070570" transform="translate(-212.666 -1105)">
    <g id="Grupo_1070569" data-name="Grupo 1070569">
      <text id="_01" data-name="01" transform="translate(386.666 1286)" fill="#f7a969" font-size="168" font-family="SegoeUI-Bold, Segoe UI" font-weight="700"><tspan x="0" y="0">01</tspan></text>
    </g>
    <g id="Grupo_1070568" data-name="Grupo 1070568">
      <g id="Grupo_1070310" data-name="Grupo 1070310">
        <g id="Grupo_1070007" data-name="Grupo 1070007" transform="translate(-0.334 594.6)">
          <rect id="Rectángulo_374302" data-name="Rectángulo 374302" width="74" height="86" rx="6" transform="translate(213 545)" fill="#fff1e5"/>
        </g>
        <g id="g2727" transform="translate(220.741 1836.34)">
          <g id="g2729" transform="translate(0 -682.665)">
            <g id="g2731" clip-path="url(#clip-path)">
              <g id="g2737" transform="translate(29.332 29.332)">
                <path id="path2739" d="M-87.169,0l3.348,3.348a1.142,1.142,0,0,1,0,1.613l-6.457,6.457a1.142,1.142,0,0,1-1.613,0L-95.24,8.071" transform="translate(95.24)" fill="none" stroke="#000" stroke-linecap="round" stroke-linejoin="round" stroke-miterlimit="10" stroke-width="2"/>
              </g>
              <g id="g2741" transform="translate(4.729 4.729)">
                <path id="path2743" d="M-13.216-232.89a15.546,15.546,0,0,0,14.3,9.482A15.54,15.54,0,0,0,16.6-238.931,15.539,15.539,0,0,0,1.082-254.453,15.539,15.539,0,0,0-14.44-238.931a15.572,15.572,0,0,0,.162,2.239" transform="translate(14.44 254.453)" fill="none" stroke="#000" stroke-linecap="round" stroke-linejoin="round" stroke-miterlimit="10" stroke-width="2"/>
              </g>
              <g id="g2745" transform="translate(9.78 9.293)">
                <path id="path2747" d="M-2.954-161.147,5.687-175.2a1.826,1.826,0,0,1,3.111,0l8.641,14.051a1.826,1.826,0,0,1-1.556,2.783H-1.4A1.826,1.826,0,0,1-2.954-161.147Z" transform="translate(3.228 176.068)" fill="none" stroke="#000" stroke-linecap="round" stroke-linejoin="round" stroke-miterlimit="10" stroke-width="2"/>
              </g>
              <g id="g2749" transform="translate(19.395 22.458)">
                <path id="path2751" d="M-18.491-9.245a.856.856,0,0,1-.856.856.856.856,0,0,1-.856-.856.856.856,0,0,1,.856-.856.856.856,0,0,1,.856.856" transform="translate(20.203 10.101)"/>
              </g>
              <g id="g2753" transform="translate(20.263 14.341)">
                <path id="path2755" d="M0-59.841v-5.54" transform="translate(0 65.381)" fill="none" stroke="#000" stroke-linecap="round" stroke-linejoin="round" stroke-miterlimit="10" stroke-width="2"/>
              </g>
              <g id="g2757" transform="translate(0.847 0.847)">
                <path id="path2759" d="M-352.02-55.867a19.347,19.347,0,0,1,6.214,14.231,19.4,19.4,0,0,1-19.4,19.4,19.4,19.4,0,0,1-19.4-19.4,19.4,19.4,0,0,1,19.4-19.4,19.309,19.309,0,0,1,10.037,2.794" transform="translate(384.612 61.04)" fill="none" stroke="#000" stroke-linecap="round" stroke-linejoin="round" stroke-miterlimit="10" stroke-width="2"/>
              </g>
              <g id="g2761" transform="translate(34.939 40.104)">
                <path id="path2763" d="M-27.893-27.893l-2.583-2.583" transform="translate(30.476 30.476)" fill="none" stroke="#000" stroke-linecap="round" stroke-linejoin="round" stroke-miterlimit="10" stroke-width="2"/>
              </g>
              <g id="g2765" transform="translate(40.104 34.939)">
                <path id="path2767" d="M0,0,2.583,2.583" fill="none" stroke="#000" stroke-linecap="round" stroke-linejoin="round" stroke-miterlimit="10" stroke-width="2"/>
              </g>
              <g id="g2769" transform="translate(49.571 41.5)">
                <path id="path2771" d="M-80.262-80.262l-7.431-7.431" transform="translate(87.693 87.693)" fill="none" stroke="#000" stroke-linecap="round" stroke-linejoin="round" stroke-miterlimit="10" stroke-width="2"/>
              </g>
              <g id="g2773" transform="translate(36.542 36.542)">
                <path id="path2775" d="M-110.533-23.363l-1.829-1.829a1.142,1.142,0,0,0-1.613,0l-6.457,6.457a1.142,1.142,0,0,0,0,1.613l12.056,12.056" transform="translate(120.766 25.527)" fill="none" stroke="#000" stroke-linecap="round" stroke-linejoin="round" stroke-miterlimit="10" stroke-width="2"/>
              </g>
            </g>
          </g>
        </g>
      </g>
    </g>
  </g>
</svg>
