<svg xmlns="http://www.w3.org/2000/svg" width="351" height="223" viewBox="0 0 351 223">
  <g id="Grupo_1070571" data-name="Grupo 1070571" transform="translate(-642.666 -1105)">
    <text id="_02" data-name="02" transform="translate(799.666 1286)" fill="#f9dabf" font-size="168" font-family="SegoeUI-Bold, Segoe UI" font-weight="700"><tspan x="0" y="0">02</tspan></text>
    <g id="Grupo_1070309" data-name="Grupo 1070309">
      <g id="Grupo_1070005" data-name="Grupo 1070005" transform="translate(-0.334 594.6)">
        <rect id="Rectángulo_374303" data-name="Rectángulo 374303" width="74" height="86" rx="6" transform="translate(643 545)" fill="#ffb476"/>
      </g>
      <g id="Layer_x0020_1" transform="translate(650.354 1119.675)">
        <g id="_569517840" transform="translate(0 31)">
          <g id="Grupo_1070292" data-name="Grupo 1070292" transform="translate(6.491 6.417)">
            <path id="Trazado_817058" data-name="Trazado 817058" d="M215.947,256.111h-40.02a.918.918,0,0,1-.927-.927V204.927a.918.918,0,0,1,.927-.927h30.6a.927.927,0,0,1,0,1.854H176.78v48.513h38.277v-7.047a.927.927,0,1,1,1.854,0v7.937A1.028,1.028,0,0,1,215.947,256.111Zm0-29.894a.918.918,0,0,1-.927-.927v-10.9a.909.909,0,0,1,1.817,0v10.979A.9.9,0,0,1,215.947,226.217Z" transform="translate(-175 -204)" fill-rule="evenodd"/>
          </g>
          <g id="Grupo_1070293" data-name="Grupo 1070293" transform="translate(37.09 6.461)">
            <path id="Trazado_817059" data-name="Trazado 817059" d="M1010.348,216.439h-9.421a.918.918,0,0,1-.927-.927v-9.421a.867.867,0,0,1,.556-.816.852.852,0,0,1,.964.223l9.495,9.458a.935.935,0,0,1,.185.964A.869.869,0,0,1,1010.348,216.439Zm-8.568-1.78h6.379l-6.379-6.379Z" transform="translate(-1000 -205.208)" fill-rule="evenodd"/>
          </g>
          <g id="Grupo_1070294" data-name="Grupo 1070294">
            <path id="Trazado_817060" data-name="Trazado 817060" d="M7.418,80.478H.927A.918.918,0,0,1,0,79.55V31.927A.918.918,0,0,1,.927,31H34.716a.918.918,0,0,1,.927.927v6.417a.927.927,0,1,1-1.854,0V32.817H1.854V78.623H7.418a.918.918,0,0,1,.927.927A.968.968,0,0,1,7.418,80.478Z" transform="translate(0 -31)" fill-rule="evenodd"/>
          </g>
          <g id="Grupo_1070295" data-name="Grupo 1070295" transform="translate(23.255 20.9)">
            <path id="Trazado_817061" data-name="Trazado 817061" d="M640.5,621.52a13.5,13.5,0,1,1,9.532-23.07,13.5,13.5,0,0,1,0,19.138A13.224,13.224,0,0,1,640.5,621.52Zm0-25.184a11.665,11.665,0,0,0-8.271,19.954,11.685,11.685,0,0,0,16.579,0,11.665,11.665,0,0,0-8.308-19.954Z" transform="translate(-627 -594.5)" fill-rule="evenodd"/>
          </g>
          <g id="Grupo_1070296" data-name="Grupo 1070296" transform="translate(45.991 43.617)">
            <path id="Trazado_817062" data-name="Trazado 817062" d="M1252.388,1224.4a2.241,2.241,0,0,1-1.595-.668l-10.125-10.163a2.242,2.242,0,0,1-.668-1.595,2.38,2.38,0,0,1,.668-1.595l2.707-2.707a2.194,2.194,0,0,1,3.153,0l10.125,10.125a2.194,2.194,0,0,1,0,3.152l-2.745,2.708A1.71,1.71,0,0,1,1252.388,1224.4Zm-7.418-15.541a.5.5,0,0,0-.3.111l-2.745,2.708a.5.5,0,0,0,0,.63l10.163,10.125a.451.451,0,0,0,.594,0l2.745-2.745a.451.451,0,0,0,0-.593l-10.125-10.126A.6.6,0,0,0,1244.97,1208.855Z" transform="translate(-1240 -1207)" fill-rule="evenodd"/>
          </g>
          <g id="Grupo_1070297" data-name="Grupo 1070297" transform="translate(44.786 42.412)">
            <path id="Trazado_817063" data-name="Trazado 817063" d="M1211.376,1179.3a.968.968,0,0,1-.631-.26l-2.967-2.967a.9.9,0,0,1,0-1.3.854.854,0,0,1,1.261,0l3,2.967a.9.9,0,0,1,0,1.3A1.53,1.53,0,0,1,1211.376,1179.3Z" transform="translate(-1207.5 -1174.5)" fill-rule="evenodd"/>
          </g>
          <g id="Grupo_1070298" data-name="Grupo 1070298" transform="translate(11.943 50.627)">
            <path id="Trazado_817064" data-name="Trazado 817064" d="M348,1397.817H322.927a.909.909,0,1,1,0-1.817H348a.909.909,0,1,1,0,1.817Z" transform="translate(-322 -1396)" fill-rule="evenodd"/>
          </g>
          <g id="Grupo_1070299" data-name="Grupo 1070299" transform="translate(11.943 43.766)">
            <path id="Trazado_817065" data-name="Trazado 817065" d="M331.347,1212.854h-8.419a.927.927,0,1,1,0-1.854h8.382a.928.928,0,0,1,.037,1.854Z" transform="translate(-322 -1211)" fill-rule="evenodd"/>
          </g>
          <g id="Grupo_1070300" data-name="Grupo 1070300" transform="translate(11.943 36.941)">
            <path id="Trazado_817066" data-name="Trazado 817066" d="M331.347,1028.855h-8.419a.942.942,0,0,1-.927-.927.918.918,0,0,1,.927-.927h8.382a.918.918,0,0,1,.927.927A.936.936,0,0,1,331.347,1028.855Z" transform="translate(-322 -1027)" fill-rule="evenodd"/>
          </g>
          <g id="Grupo_1070301" data-name="Grupo 1070301" transform="translate(11.943 30.08)">
            <path id="Trazado_817067" data-name="Trazado 817067" d="M331.347,843.855h-8.419a.927.927,0,1,1,0-1.855h8.382a.928.928,0,0,1,.037,1.855Z" transform="translate(-322 -842)" fill-rule="evenodd"/>
          </g>
          <g id="Grupo_1070302" data-name="Grupo 1070302" transform="translate(11.943 23.181)">
            <path id="Trazado_817068" data-name="Trazado 817068" d="M331.347,657.855h-8.419a.918.918,0,0,1-.927-.927.942.942,0,0,1,.927-.927h8.382a.942.942,0,0,1,.927.927A.911.911,0,0,1,331.347,657.855Z" transform="translate(-322 -656)" fill-rule="evenodd"/>
          </g>
          <g id="Grupo_1070303" data-name="Grupo 1070303" transform="translate(11.943 16.245)">
            <path id="Trazado_817069" data-name="Trazado 817069" d="M343.141,470.854H322.927a.927.927,0,1,1,0-1.854h20.214a.927.927,0,1,1,0,1.854Z" transform="translate(-322 -469)" fill-rule="evenodd"/>
          </g>
          <g id="Grupo_1070304" data-name="Grupo 1070304" transform="translate(27.384 28.784)">
            <path id="Trazado_817070" data-name="Trazado 817070" d="M743.362,818.458c-.111,0-.223,0-.26-.037h-.111a.4.4,0,0,1-.3-.074.337.337,0,0,1-.26-.111c-.111-.037-.223-.074-.26-.148s-.074,0-.074-.037a1.611,1.611,0,0,0-.26-.148c-.037-.074-.074-.074-.148-.111l-.037-.037-.223-.111a.29.29,0,0,0-.148-.148.758.758,0,0,1-.185-.334l-2.448-4.191a2.469,2.469,0,0,1,.89-3.338h.037a2.512,2.512,0,0,1,3.375.89l1.261,2.225,9.272-5.341a2.434,2.434,0,1,1,2.411,4.228l-11.349,6.454a2.138,2.138,0,0,1-.26.148c-.074.074-.186.074-.223.111-.037,0-.037.074-.111.074a.92.92,0,0,1-.334.037h-.26Zm-.223-1.854h.3c.074,0,.074,0,.111-.037.074,0,.074-.074.111-.074a.287.287,0,0,0,.111-.037l11.2-6.491a.664.664,0,0,0,.26-.853.614.614,0,0,0-.89-.223l-10.051,5.823a.915.915,0,0,1-1.261-.334l-1.743-2.967a.653.653,0,0,0-.853-.26.6.6,0,0,0-.223.89l2.522,4.3c.037.074.037.074.111.111l.037.037c.074,0,.074.074.111.111a.036.036,0,0,1,.037.037c.074,0,.074.074.111.074C743.1,816.6,743.14,816.6,743.14,816.6Z" transform="translate(-738.33 -807.074)" fill-rule="evenodd"/>
          </g>
        </g>
      </g>
    </g>
  </g>
</svg>
