<svg xmlns="http://www.w3.org/2000/svg" width="74" height="61" viewBox="0 0 74 61">
  <g id="Grupo_1070749" data-name="Grupo 1070749" transform="translate(-611 -1598)">
    <rect id="Rectángulo_373664" data-name="Rectángulo 373664" width="74" height="61" rx="6" transform="translate(611 1598)" fill="#fff"/>
    <g id="engranajes" transform="translate(615.436 1571.304)">
      <path id="Trazado_773681" data-name="Trazado 773681" d="M316.3,423.516v2.767a1.412,1.412,0,0,1-1.412,1.412H297.18l-1.989-2.795,1.989-2.8h17.71A1.412,1.412,0,0,1,316.3,423.516Z" transform="translate(-258.674 -348.54)" fill="#918291"/>
      <path id="Trazado_773682" data-name="Trazado 773682" d="M38.506,422.1v5.59H8.912A1.412,1.412,0,0,1,7.5,426.28v-2.767A1.411,1.411,0,0,1,8.912,422.1Z" transform="translate(0 -348.537)" fill="#fe646f"/>
      <path id="Trazado_773683" data-name="Trazado 773683" d="M88.512,427.7l2.945-5.591h5.65L94.162,427.7" transform="translate(-72.841 -348.54)" fill="#fd8087"/>
      <path id="Trazado_773684" data-name="Trazado 773684" d="M12.966,422.1l-2.943,5.59H8.912A1.412,1.412,0,0,1,7.5,426.28v-2.767A1.411,1.411,0,0,1,8.912,422.1Z" transform="translate(0 -348.537)" fill="#fd8087"/>
      <path id="Trazado_773685" data-name="Trazado 773685" d="M200.54,427.7l2.945-5.591h5.65L206.19,427.7" transform="translate(-173.569 -348.54)" fill="#fd8087"/>
      <path id="Trazado_773686" data-name="Trazado 773686" d="M53.01,427.7h3.206a1.412,1.412,0,0,0,1.412-1.412v-2.767a1.411,1.411,0,0,0-1.412-1.411H8.912A1.411,1.411,0,0,0,7.5,423.519v2.767A1.412,1.412,0,0,0,8.912,427.7h40.6" transform="translate(0 -348.542)" fill="none" stroke="#000" stroke-linecap="round" stroke-linejoin="round" stroke-miterlimit="10" stroke-width="1"/>
      <line id="Línea_353" data-name="Línea 353" y2="6.164" transform="translate(39.213 73.762)" fill="none" stroke="#000" stroke-linecap="round" stroke-linejoin="round" stroke-miterlimit="10" stroke-width="1"/>
      <line id="Línea_354" data-name="Línea 354" x1="2.945" y2="5.59" transform="translate(32.62 73.565)" fill="none" stroke="#000" stroke-linecap="round" stroke-linejoin="round" stroke-miterlimit="10" stroke-width="1"/>
      <line id="Línea_355" data-name="Línea 355" x1="2.945" y2="5.59" transform="translate(26.971 73.565)" fill="none" stroke="#000" stroke-linecap="round" stroke-linejoin="round" stroke-miterlimit="10" stroke-width="1"/>
      <line id="Línea_356" data-name="Línea 356" x1="2.945" y2="5.59" transform="translate(21.321 73.565)" fill="none" stroke="#000" stroke-linecap="round" stroke-linejoin="round" stroke-miterlimit="10" stroke-width="1"/>
      <line id="Línea_357" data-name="Línea 357" x1="2.945" y2="5.59" transform="translate(15.671 73.565)" fill="none" stroke="#000" stroke-linecap="round" stroke-linejoin="round" stroke-miterlimit="10" stroke-width="1"/>
      <line id="Línea_358" data-name="Línea 358" x1="2.945" y2="5.59" transform="translate(10.021 73.565)" fill="none" stroke="#000" stroke-linecap="round" stroke-linejoin="round" stroke-miterlimit="10" stroke-width="1"/>
      <g id="Grupo_1065473" data-name="Grupo 1065473" transform="translate(8.393 34.467)">
        <g id="Grupo_1065470" data-name="Grupo 1065470" transform="translate(16.268 0)">
          <path id="Trazado_773687" data-name="Trazado 773687" d="M208.944,48.062l-3.092-.248a.379.379,0,0,1-.338-.284,12.147,12.147,0,0,0-1.362-3.286.379.379,0,0,1,.037-.441l2.013-2.362a.845.845,0,0,0-.046-1.145l-2.263-2.263a.846.846,0,0,0-1.146-.046L200.385,40a.381.381,0,0,1-.441.037,12.126,12.126,0,0,0-3.286-1.363.379.379,0,0,1-.286-.338l-.246-3.09a.846.846,0,0,0-.842-.778h-3.2a.847.847,0,0,0-.843.778l-.246,3.09a.378.378,0,0,1-.285.338,12.129,12.129,0,0,0-3.286,1.363.381.381,0,0,1-.441-.037l-2.361-2.013a.846.846,0,0,0-1.146.046L181.212,40.3a.845.845,0,0,0-.046,1.145l2.013,2.362a.379.379,0,0,1,.037.441,12.143,12.143,0,0,0-1.362,3.286.379.379,0,0,1-.338.284l-3.092.248a.845.845,0,0,0-.777.842v3.2a.844.844,0,0,0,.777.841l3.092.248a.379.379,0,0,1,.338.284,12.164,12.164,0,0,0,1.362,3.287.38.38,0,0,1-.037.441l-2.013,2.361a.845.845,0,0,0,.046,1.145l2.263,2.263a.846.846,0,0,0,1.146.046l2.361-2.012a.382.382,0,0,1,.441-.038,12.13,12.13,0,0,0,3.286,1.363.379.379,0,0,1,.285.338l.246,3.092a.847.847,0,0,0,.843.777h3.2a.846.846,0,0,0,.842-.777l.246-3.092a.379.379,0,0,1,.286-.338,12.127,12.127,0,0,0,3.286-1.363.382.382,0,0,1,.441.038l2.361,2.012a.846.846,0,0,0,1.146-.046l2.263-2.263a.845.845,0,0,0,.046-1.145l-2.013-2.361a.38.38,0,0,1-.037-.441,12.166,12.166,0,0,0,1.362-3.287.379.379,0,0,1,.338-.284l3.092-.248a.844.844,0,0,0,.777-.841V48.9A.845.845,0,0,0,208.944,48.062Zm-15.259,5.275a2.832,2.832,0,1,1,2.831-2.832A2.832,2.832,0,0,1,193.685,53.336Z" transform="translate(-177.647 -34.467)" fill="#918291"/>
          <g id="Grupo_1065469" data-name="Grupo 1065469" transform="translate(0 0)">
            <path id="Trazado_773688" data-name="Trazado 773688" d="M404.488,292.041a.38.38,0,0,0-.441-.037q-.468.28-.962.519l2.362,2.012a.845.845,0,0,0,1.145-.046l.354-.354Z" transform="translate(-380.346 -265.98)" fill="#7a6d79"/>
            <path id="Trazado_773689" data-name="Trazado 773689" d="M404.49,70.063a.38.38,0,0,1-.441.037q-.468-.28-.962-.519l2.361-2.012a.845.845,0,0,1,1.146.046l.354.354Z" transform="translate(-380.348 -64.05)" fill="#7a6d79"/>
            <path id="Trazado_773690" data-name="Trazado 773690" d="M183.178,90.293a.845.845,0,0,1-.046-1.146l2.012-2.361a.38.38,0,0,0,.037-.441,12.137,12.137,0,0,1-1.363-3.286.378.378,0,0,0-.338-.285l-3.091-.247a.845.845,0,0,1-.778-.842v-3.2a.845.845,0,0,1,.778-.843l3.091-.247a.378.378,0,0,0,.338-.285,12.144,12.144,0,0,1,1.363-3.286.38.38,0,0,0-.037-.441l-2.012-2.361a.845.845,0,0,1,.046-1.146l1.91-1.91-.469-.4a.845.845,0,0,0-1.146.046l-2.263,2.264a.845.845,0,0,0-.046,1.145l2.012,2.361a.38.38,0,0,1,.037.441,12.136,12.136,0,0,0-1.363,3.286.378.378,0,0,1-.337.285l-3.091.247a.845.845,0,0,0-.778.843v3.2a.845.845,0,0,0,.778.842l3.091.247a.378.378,0,0,1,.337.285,12.142,12.142,0,0,0,1.363,3.286.381.381,0,0,1-.037.441l-2.012,2.361a.845.845,0,0,0,.046,1.145l2.263,2.263a.845.845,0,0,0,1.146.046l.469-.4Z" transform="translate(-177.645 -64.047)" fill="#7a6d79"/>
            <path id="Trazado_773691" data-name="Trazado 773691" d="M281.2,297.722h-1.968a.845.845,0,0,1-.843-.778l-.247-3.091a.378.378,0,0,0-.285-.337,12.144,12.144,0,0,1-3.286-1.363l.565-.481a.38.38,0,0,1,.441-.037,20.631,20.631,0,0,0,4.248,1.882.378.378,0,0,1,.285.337l.247,3.091A.845.845,0,0,0,281.2,297.722Z" transform="translate(-264.797 -265.648)" fill="#7a6d79"/>
            <path id="Trazado_773692" data-name="Trazado 773692" d="M281.2,34.469h-1.968a.845.845,0,0,0-.843.778l-.247,3.091a.378.378,0,0,1-.285.337,12.143,12.143,0,0,0-3.286,1.363l.565.481a.38.38,0,0,0,.441.037,20.624,20.624,0,0,1,4.248-1.882.378.378,0,0,0,.285-.337l.247-3.091A.845.845,0,0,1,281.2,34.469Z" transform="translate(-264.797 -34.469)" fill="#7a6d79"/>
          </g>
          <path id="Trazado_773693" data-name="Trazado 773693" d="M208.94,48.064l-3.091-.247a.379.379,0,0,1-.338-.285,12.122,12.122,0,0,0-1.363-3.286.379.379,0,0,1,.037-.441l2.012-2.362a.845.845,0,0,0-.046-1.145l-2.263-2.263a.845.845,0,0,0-1.145-.046L200.382,40a.379.379,0,0,1-.441.038,12.119,12.119,0,0,0-3.286-1.363.379.379,0,0,1-.285-.338l-.247-3.091a.845.845,0,0,0-.842-.778h-3.2a.845.845,0,0,0-.842.778l-.247,3.091a.379.379,0,0,1-.285.338,12.123,12.123,0,0,0-3.286,1.363.379.379,0,0,1-.441-.038l-2.362-2.012a.845.845,0,0,0-1.145.046L181.209,40.3a.845.845,0,0,0-.046,1.145l2.012,2.362a.379.379,0,0,1,.038.441,12.12,12.12,0,0,0-1.363,3.286.379.379,0,0,1-.338.285l-3.091.247a.845.845,0,0,0-.778.842v3.2a.845.845,0,0,0,.778.842l3.091.247a.379.379,0,0,1,.338.285,12.125,12.125,0,0,0,1.363,3.286.379.379,0,0,1-.037.441l-2.012,2.362a.845.845,0,0,0,.046,1.145l2.263,2.263a.845.845,0,0,0,1.145.046l2.362-2.012a.379.379,0,0,1,.441-.038,12.119,12.119,0,0,0,3.286,1.363.379.379,0,0,1,.285.338l.247,3.091a.845.845,0,0,0,.842.778h3.2a.845.845,0,0,0,.842-.778l.247-3.091a.379.379,0,0,1,.285-.338,12.124,12.124,0,0,0,3.286-1.363.379.379,0,0,1,.441.038l2.362,2.012a.845.845,0,0,0,1.145-.046l2.263-2.263a.845.845,0,0,0,.046-1.145l-2.012-2.362a.379.379,0,0,1-.038-.441,12.117,12.117,0,0,0,1.363-3.286.379.379,0,0,1,.338-.285l3.091-.247a.845.845,0,0,0,.778-.842v-3.2A.845.845,0,0,0,208.94,48.064Z" transform="translate(-177.643 -34.469)" fill="none" stroke="#000" stroke-linecap="round" stroke-linejoin="round" stroke-miterlimit="10" stroke-width="1"/>
          <path id="Trazado_773694" data-name="Trazado 773694" d="M263.309,111.912a8.226,8.226,0,1,0,8.226,8.226A8.227,8.227,0,0,0,263.309,111.912Zm0,11.058a2.832,2.832,0,1,1,2.831-2.832A2.832,2.832,0,0,1,263.309,122.97Z" transform="translate(-247.271 -104.101)" fill="#7a6d79"/>
          <circle id="Elipse_5990" data-name="Elipse 5990" cx="2.832" cy="2.832" r="2.832" transform="translate(13.206 13.206)" fill="none" stroke="#000" stroke-linecap="round" stroke-linejoin="round" stroke-miterlimit="10" stroke-width="1"/>
          <path id="Trazado_773695" data-name="Trazado 773695" d="M259.865,112.665a8.233,8.233,0,1,1-2.777,2.095" transform="translate(-247.279 -104.097)" fill="none" stroke="#000" stroke-linecap="round" stroke-linejoin="round" stroke-miterlimit="10" stroke-width="1"/>
        </g>
        <g id="Grupo_1065472" data-name="Grupo 1065472" transform="translate(0 17.27)">
          <path id="Trazado_773696" data-name="Trazado 773696" d="M33.9,217.572l-1.875-1.378a6.808,6.808,0,0,0,0-2.133l1.875-1.379a.861.861,0,0,0,.235-1.123l-1.327-2.3a.86.86,0,0,0-1.09-.358l-2.133.935a6.832,6.832,0,0,0-1.846-1.066l-.256-2.313a.861.861,0,0,0-.855-.766H23.978a.861.861,0,0,0-.855.766l-.256,2.313a6.832,6.832,0,0,0-1.846,1.066l-2.133-.935a.86.86,0,0,0-1.09.358l-1.327,2.3a.859.859,0,0,0,.235,1.123l1.875,1.379a6.809,6.809,0,0,0,0,2.133l-1.875,1.378a.859.859,0,0,0-.235,1.123L17.8,221a.859.859,0,0,0,1.09.357l2.133-.935a6.775,6.775,0,0,0,1.846,1.066l.256,2.314a.86.86,0,0,0,.855.765h2.655a.86.86,0,0,0,.855-.765l.256-2.314a6.775,6.775,0,0,0,1.846-1.066l2.133.935a.859.859,0,0,0,1.09-.357l1.327-2.3A.861.861,0,0,0,33.9,217.572Zm-8.6.689a3.133,3.133,0,1,1,3.133-3.133A3.132,3.132,0,0,1,25.305,218.261Z" transform="translate(-16.355 -205.693)" fill="#7a6d79"/>
          <g id="Grupo_1065471" data-name="Grupo 1065471" transform="translate(0 0)">
            <path id="Trazado_773697" data-name="Trazado 773697" d="M115.017,268.173a3.129,3.129,0,0,0-.91.135,3.134,3.134,0,0,1,0,6,3.133,3.133,0,1,0,.91-6.132Z" transform="translate(-104.247 -261.872)" fill="#685e68"/>
            <path id="Trazado_773698" data-name="Trazado 773698" d="M70.627,209.842a6.833,6.833,0,0,1,1.846-1.066l.257-2.313a.861.861,0,0,1,.855-.766h-1.82a.861.861,0,0,0-.855.766l-.256,2.313a6.815,6.815,0,0,0-1.15.573Z" transform="translate(-64.141 -205.697)" fill="#685e68"/>
            <path id="Trazado_773699" data-name="Trazado 773699" d="M72.722,355.06l-.256-2.314a6.775,6.775,0,0,1-1.846-1.066l-1.126.494a6.762,6.762,0,0,0,1.151.573l.256,2.314a.86.86,0,0,0,.855.765h1.82A.86.86,0,0,1,72.722,355.06Z" transform="translate(-64.134 -336.956)" fill="#685e68"/>
            <path id="Trazado_773700" data-name="Trazado 773700" d="M19.616,248.971l-1.327-2.3a.859.859,0,0,1,.235-1.123L20.4,244.17a6.809,6.809,0,0,1,0-2.133l-1.875-1.379a.859.859,0,0,1-.235-1.123l1.327-2.3.019-.03-.75-.329a.86.86,0,0,0-1.09.358l-1.327,2.3a.859.859,0,0,0,.235,1.123l1.875,1.379a6.809,6.809,0,0,0,0,2.133L16.7,245.548a.859.859,0,0,0-.235,1.123l1.327,2.3a.859.859,0,0,0,1.09.357l.749-.329C19.628,248.99,19.621,248.981,19.616,248.971Z" transform="translate(-16.352 -233.669)" fill="#685e68"/>
          </g>
          <path id="Trazado_773701" data-name="Trazado 773701" d="M33.906,217.579,32.031,216.2a6.833,6.833,0,0,0,0-2.133l1.875-1.378a.86.86,0,0,0,.235-1.123l-1.327-2.3a.86.86,0,0,0-1.09-.358l-2.133.935a6.8,6.8,0,0,0-1.846-1.067l-.256-2.313a.86.86,0,0,0-.855-.765H23.98a.86.86,0,0,0-.855.765l-.256,2.313a6.8,6.8,0,0,0-1.846,1.067l-2.133-.935a.86.86,0,0,0-1.09.358l-1.327,2.3a.86.86,0,0,0,.235,1.123l1.875,1.378a6.834,6.834,0,0,0,0,2.133l-1.875,1.378a.86.86,0,0,0-.235,1.123L17.8,221a.86.86,0,0,0,1.09.358l2.133-.935a6.8,6.8,0,0,0,1.846,1.067l.256,2.313a.86.86,0,0,0,.855.765h2.655a.86.86,0,0,0,.855-.765l.256-2.313a6.8,6.8,0,0,0,1.846-1.067l2.133.935a.86.86,0,0,0,1.09-.358l1.327-2.3A.86.86,0,0,0,33.906,217.579Z" transform="translate(-16.357 -205.699)" fill="none" stroke="#000" stroke-linecap="round" stroke-linejoin="round" stroke-miterlimit="10" stroke-width="1"/>
          <path id="Trazado_773702" data-name="Trazado 773702" d="M76.451,274.355a3.1,3.1,0,0,0,.7.08,3.129,3.129,0,1,0-3.063-2.468" transform="translate(-68.203 -261.867)" fill="none" stroke="#000" stroke-linecap="round" stroke-linejoin="round" stroke-miterlimit="10" stroke-width="1"/>
        </g>
      </g>
    </g>
  </g>
</svg>
