<svg xmlns="http://www.w3.org/2000/svg" width="74" height="61" viewBox="0 0 74 61">
  <g id="Grupo_1070750" data-name="Grupo 1070750" transform="translate(-1031 -1598)">
    <g id="Grupo_1070031" data-name="Grupo 1070031" transform="translate(0 -437.201)">
      <rect id="Rectángulo_373665" data-name="Rectángulo 373665" width="74" height="61" rx="6" transform="translate(1031 2035.201)" fill="#fff"/>
    </g>
    <g id="analizar" transform="translate(1046 1604.616)">
      <g id="Grupo_1070053" data-name="Grupo 1070053" transform="translate(0)">
        <g id="Grupo_1070051" data-name="Grupo 1070051">
          <path id="Trazado_773803" data-name="Trazado 773803" d="M139.432,47.9H112.374V8.513A1.014,1.014,0,0,1,113.388,7.5h26.044a1.014,1.014,0,0,1,1.014,1.014V46.889a1.014,1.014,0,0,1-1.014,1.014Z" transform="translate(-102.11 -6.814)" fill="#ffea76"/>
          <path id="Trazado_773804" data-name="Trazado 773804" d="M388,7.5h-2.071a1.014,1.014,0,0,1,1.014,1.014V46.89a1.014,1.014,0,0,1-1.014,1.014H388a1.014,1.014,0,0,0,1.014-1.014V8.514A1.014,1.014,0,0,0,388,7.5Z" transform="translate(-350.682 -6.815)" fill="#ffe54c"/>
          <path id="Trazado_773805" data-name="Trazado 773805" d="M87.221,63.567l-1.863-1.413H63.307a1.014,1.014,0,0,0-1.014,1.014v38.376a1.014,1.014,0,0,0,1.014,1.014H89.351a1.014,1.014,0,0,0,1.014-1.014V67.313l-2.444-.623Z" transform="translate(-56.603 -56.477)" fill="#faf7f8"/>
          <g id="Grupo_1070050" data-name="Grupo 1070050">
            <path id="Trazado_773806" data-name="Trazado 773806" fill="#dedbee"/>
            <path id="Trazado_773807" data-name="Trazado 773807" d="M336.76,147.582a1.014,1.014,0,0,1-1.014,1.014h2.081a1.014,1.014,0,0,0,1.014-1.014V113.35l-2.081-.531Z" transform="translate(-305.079 -102.514)" fill="#dedbee"/>
          </g>
          <path id="Trazado_773808" data-name="Trazado 773808" d="M310.74,62.154a5.074,5.074,0,0,1-.329,4.827A.708.708,0,0,0,310.892,68c1.992.412,3.661.268,4.856-.687v-.95a4.208,4.208,0,0,0-4.208-4.208Z" transform="translate(-281.986 -56.477)" fill="#d2cfe9"/>
        </g>
        <circle id="Elipse_8331" data-name="Elipse 8331" cx="7.331" cy="7.331" r="7.331" transform="translate(14.83 19.945)" fill="#64caff"/>
        <path id="Trazado_773809" data-name="Trazado 773809" d="M232.013,218.361a7.391,7.391,0,0,0-1.066.078,7.331,7.331,0,0,1,0,14.505,7.331,7.331,0,1,0,1.066-14.583Z" transform="translate(-209.852 -198.416)" fill="#00b8ff"/>
        <circle id="Elipse_8332" data-name="Elipse 8332" cx="4.731" cy="4.731" r="4.731" transform="translate(17.43 22.545)" fill="#b8e3ff"/>
        <path id="Trazado_773810" data-name="Trazado 773810" d="M233.313,246.821a4.758,4.758,0,0,0-.935.093,4.732,4.732,0,0,1,0,9.277,4.731,4.731,0,1,0,.935-9.37Z" transform="translate(-211.152 -224.276)" fill="#a2dbff"/>
        <g id="Grupo_1070052" data-name="Grupo 1070052" transform="translate(40.995 17.136)">
          <path id="Trazado_773811" data-name="Trazado 773811" d="M453.423,191.662h-4.139a.474.474,0,0,1-.474-.474v-3.1a.474.474,0,0,1,.474-.474h4.139a.474.474,0,0,1,.474.474v3.1A.474.474,0,0,1,453.423,191.662Z" transform="translate(-448.81 -187.61)" fill="#ff7383"/>
          <path id="Trazado_773812" data-name="Trazado 773812" d="M483.308,187.608H481.7a.474.474,0,0,1,.474.474v3.1a.474.474,0,0,1-.474.474h1.609a.474.474,0,0,0,.474-.474v-3.1A.474.474,0,0,0,483.308,187.608Z" transform="translate(-478.695 -187.608)" fill="#ff546a"/>
        </g>
        <path id="Trazado_773813" data-name="Trazado 773813" d="M14.853,375.383H7.974a.474.474,0,0,1-.474-.474v-3.1a.474.474,0,0,1,.474-.474h6.88a.474.474,0,0,1,.474.474v3.1A.474.474,0,0,1,14.853,375.383Z" transform="translate(-6.815 -337.413)" fill="#ff7383"/>
        <path id="Trazado_773814" data-name="Trazado 773814" d="M72,371.33H70.39a.474.474,0,0,1,.474.474v3.1a.474.474,0,0,1-.474.474H72a.474.474,0,0,0,.474-.474v-3.1A.474.474,0,0,0,72,371.33Z" transform="translate(-63.96 -337.412)" fill="#ff546a"/>
        <path id="Trazado_773815" data-name="Trazado 773815" d="M405.091,371.329h-9a.474.474,0,0,0-.474.474v3.1a.474.474,0,0,0,.474.474h9a.474.474,0,0,0,.474-.474v-3.1A.474.474,0,0,0,405.091,371.329Z" transform="translate(-359.483 -337.411)" fill="#ff7383"/>
        <path id="Trazado_773816" data-name="Trazado 773816" d="M483.308,375.382H481.7a.474.474,0,0,0,.474-.474v-3.1a.474.474,0,0,0-.474-.474h1.609a.474.474,0,0,1,.474.474v3.1A.474.474,0,0,1,483.308,375.382Z" transform="translate(-437.7 -337.412)" fill="#ff546a"/>
      </g>
      <g id="Grupo_1070054" data-name="Grupo 1070054" transform="translate(0 0)">
        <path id="Trazado_773817" data-name="Trazado 773817" d="M41.468,21.874h4.139a1.16,1.16,0,0,0,1.159-1.159v-3.1a1.16,1.16,0,0,0-1.159-1.159H41.468A1.16,1.16,0,0,0,40.31,17.61v.867H39.021V6.268a.685.685,0,0,0-1.37,0V18.477h-3.2V9.886a4.9,4.9,0,0,0-4.893-4.893h-18.6V1.7a.329.329,0,0,1,.329-.329H37.322a.329.329,0,0,1,.329.329v1.92a.685.685,0,1,0,1.37,0V1.7a1.7,1.7,0,0,0-1.7-1.7H11.278a1.7,1.7,0,0,0-1.7,1.7V4.992H6.7A1.7,1.7,0,0,0,5,6.691V33.233H1.159A1.16,1.16,0,0,0,0,34.391v3.1a1.16,1.16,0,0,0,1.159,1.159H5v6.413a1.7,1.7,0,0,0,1.7,1.7h3.6a.685.685,0,1,0,0-1.37H6.7a.329.329,0,0,1-.329-.329V38.655H8.038A1.16,1.16,0,0,0,9.2,37.5v-.867h5.638A1.584,1.584,0,0,0,16.094,36l1.576-2.089a8,8,0,0,0,9.194-.15L28.554,36a1.584,1.584,0,0,0,1.258.627h3.264v8.439a.329.329,0,0,1-.329.329H12.955a.685.685,0,1,0,0,1.37H32.748a1.7,1.7,0,0,0,1.7-1.7V41.774h2.875a1.7,1.7,0,0,0,1.7-1.7v-1.42h6.586A1.16,1.16,0,0,0,46.767,37.5v-3.1a1.16,1.16,0,0,0-1.159-1.159H39.022V19.848H40.31v.867a1.16,1.16,0,0,0,1.159,1.159ZM33.077,9.886v.6a5.342,5.342,0,0,1-4.032.367c-.005,0-.007,0-.011-.009a.028.028,0,0,1,0-.027,6.147,6.147,0,0,0,.717-4.448A3.528,3.528,0,0,1,33.077,9.886Zm-25.25,27.4H1.37V34.6H7.827ZM15,35.177a.208.208,0,0,1-.165.082H9.2v-.867a1.16,1.16,0,0,0-1.159-1.159H6.375V6.691A.329.329,0,0,1,6.7,6.362H28.311a4.574,4.574,0,0,1-.5,3.83,1.39,1.39,0,0,0-.017,1.243,1.376,1.376,0,0,0,.969.758,10.339,10.339,0,0,0,2.085.234,5.789,5.789,0,0,0,2.224-.4v6.451H29.191a1.584,1.584,0,0,0-1.258.627l-1.2,1.59a8.005,8.005,0,0,0-9.594.336A.685.685,0,1,0,18,22.1a6.637,6.637,0,0,1,7.909-.309l-.741.982a5.414,5.414,0,0,0-6.978,8.182l-.75.994a6.637,6.637,0,0,1-1.013-8.024.685.685,0,0,0-1.182-.693,8.006,8.006,0,0,0,1.363,9.82Zm11.31-4.423a5.406,5.406,0,0,0-.109-7.08l.752-1a6.634,6.634,0,0,1,.113,9.079Zm-1.463-1.939a.685.685,0,1,0-1.094.825l.72.955a4.039,4.039,0,0,1-4.407.143l.828-1.1a.685.685,0,0,0-1.094-.825l-.771,1.022a4.044,4.044,0,0,1,5.309-5.969l-1.207,1.6a.685.685,0,1,0,1.094.825l1.13-1.5a4.039,4.039,0,0,1,.1,4.826Zm-2.686,5.108a6.608,6.608,0,0,1-3.664-1.1l.742-.983a5.406,5.406,0,0,0,6.061-.147l.741.981A6.61,6.61,0,0,1,22.161,33.922Zm7.652,1.337a.207.207,0,0,1-.165-.082L27.9,32.864a8,8,0,0,0-.116-11.292l1.239-1.642a.208.208,0,0,1,.165-.082h3.886V35.259H29.813Zm7.839,4.817a.329.329,0,0,1-.329.329H34.447V36.629h1V37.5a1.16,1.16,0,0,0,1.159,1.159h1.041Zm7.745-2.79H36.821V34.6H45.4Zm-7.745-4.052H36.61a1.16,1.16,0,0,0-1.159,1.159v.867h-1V19.848h3.2ZM41.68,17.821H45.4V20.5H41.68Z" transform="translate(0 0)"/>
        <path id="Trazado_773818" data-name="Trazado 773818" d="M100.438,94.971h13.037a.685.685,0,1,0,0-1.37H100.438a.685.685,0,0,0,0,1.37Z" transform="translate(-90.641 -85.051)"/>
        <path id="Trazado_773819" data-name="Trazado 773819" d="M100.438,127.6h13.037a.685.685,0,0,0,0-1.37H100.438a.685.685,0,0,0,0,1.37Z" transform="translate(-90.641 -114.701)"/>
        <path id="Trazado_773820" data-name="Trazado 773820" d="M100.438,160.232h13.037a.685.685,0,1,0,0-1.37H100.438a.685.685,0,1,0,0,1.37Z" transform="translate(-90.641 -144.351)"/>
        <path id="Trazado_773821" data-name="Trazado 773821" d="M108.489,192.177a.685.685,0,0,0-.685-.685h-7.366a.685.685,0,1,0,0,1.37H107.8A.685.685,0,0,0,108.489,192.177Z" transform="translate(-90.641 -174.001)"/>
        <path id="Trazado_773822" data-name="Trazado 773822" d="M100.438,430.888H107.8a.685.685,0,0,0,0-1.37h-7.366a.685.685,0,1,0,0,1.37Z" transform="translate(-90.641 -390.285)"/>
        <path id="Trazado_773823" data-name="Trazado 773823" d="M100.438,460.374H107.8a.685.685,0,0,0,0-1.37h-7.366a.685.685,0,1,0,0,1.37Z" transform="translate(-90.641 -417.078)"/>
      </g>
    </g>
  </g>
</svg>
