<svg xmlns="http://www.w3.org/2000/svg" width="74" height="61" viewBox="0 0 74 61">
  <g id="Grupo_1070748" data-name="Grupo 1070748" transform="translate(-191 -1598)">
    <rect id="Rectángulo_373666" data-name="Rectángulo 373666" width="74" height="61" rx="6" transform="translate(191 1598)" fill="#fff"/>
    <path id="Trazado_773792" data-name="Trazado 773792" d="M199.75,97.5h5.03v34.118h-5.03Z" transform="translate(25.021 1517.87)" fill="#3e6e94"/>
    <path id="Trazado_773793" data-name="Trazado 773793" d="M229.75,97.5h2.515v34.118H229.75Z" transform="translate(-2.464 1517.87)" fill="#355f80"/>
    <path id="Trazado_773794" data-name="Trazado 773794" d="M64.934,15.044H35.427a1.677,1.677,0,0,1-1.677-1.677V9.177A1.677,1.677,0,0,1,35.427,7.5H64.934A1.677,1.677,0,0,1,66.61,9.177v4.191A1.677,1.677,0,0,1,64.934,15.044Z" transform="translate(177.106 1600.326)" fill="#b2d49a"/>
    <path id="Trazado_773795" data-name="Trazado 773795" d="M378.265,7.5H375.75a1.677,1.677,0,0,1,1.677,1.677v4.191a1.677,1.677,0,0,1-1.677,1.677h2.515a1.677,1.677,0,0,0,1.677-1.677V9.177A1.677,1.677,0,0,0,378.265,7.5Z" transform="translate(-136.225 1600.326)" fill="#91caa0"/>
    <path id="Trazado_773796" data-name="Trazado 773796" d="M64.934,150.044H35.427a1.676,1.676,0,0,1-1.677-1.677v-4.191a1.676,1.676,0,0,1,1.677-1.677H64.934a1.676,1.676,0,0,1,1.677,1.677v4.191A1.676,1.676,0,0,1,64.934,150.044Z" transform="translate(177.106 1476.643)" fill="#b2d49a"/>
    <path id="Trazado_773797" data-name="Trazado 773797" d="M378.265,142.5H375.75a1.677,1.677,0,0,1,1.677,1.677v4.191a1.677,1.677,0,0,1-1.677,1.677h2.515a1.677,1.677,0,0,0,1.677-1.677v-4.191A1.677,1.677,0,0,0,378.265,142.5Z" transform="translate(-136.225 1476.643)" fill="#91caa0"/>
    <path id="Trazado_773798" data-name="Trazado 773798" d="M64.934,285.044H35.427a1.676,1.676,0,0,1-1.677-1.677v-4.191a1.677,1.677,0,0,1,1.677-1.677H64.934a1.677,1.677,0,0,1,1.677,1.677v4.191A1.676,1.676,0,0,1,64.934,285.044Z" transform="translate(177.106 1352.959)" fill="#b2d49a"/>
    <circle id="Elipse_8330" data-name="Elipse 8330" cx="9.997" cy="9.997" r="9.997" transform="translate(228.123 1629.493)" fill="#f18a98"/>
    <path id="Trazado_773799" data-name="Trazado 773799" d="M345.246,265.978a10.088,10.088,0,0,0-1.257.079,10,10,0,0,1,0,19.838,10,10,0,1,0,1.257-19.916Z" transform="translate(-107.126 1363.516)" fill="#ee7382"/>
    <path id="Trazado_773800" data-name="Trazado 773800" d="M283.084,308.756l5.029-8.766a1.347,1.347,0,0,1,2.336,0l5.029,8.766a1.347,1.347,0,0,1-1.168,2.017H284.252A1.347,1.347,0,0,1,283.084,308.756Z" transform="translate(-51.161 1332.975)" fill="#ffe17a"/>
    <path id="Trazado_773801" data-name="Trazado 773801" d="M351.443,308.756l-5.029-8.766a1.347,1.347,0,0,0-2.336,0l-.089.155,4.94,8.61a1.347,1.347,0,0,1-1.168,2.017h2.515a1.347,1.347,0,0,0,1.168-2.017Z" transform="translate(-107.125 1332.975)" fill="#fcd36a"/>
    <path id="Trazado_773802" data-name="Trazado 773802" d="M30.651,26.405a.629.629,0,1,0,.629.629A.629.629,0,0,0,30.651,26.405Zm3.772,0a.629.629,0,1,0,.629.629A.629.629,0,0,0,34.423,26.405ZM30.651,15.089a.629.629,0,1,0,.629.629A.629.629,0,0,0,30.651,15.089Zm3.772,0a.629.629,0,1,0,.629.629A.629.629,0,0,0,34.423,15.089Zm3.772,0a.629.629,0,1,0,.629.629A.629.629,0,0,0,38.2,15.089Zm17.771,0H42.051a.629.629,0,0,0,0,1.257H55.967a.629.629,0,1,0,0-1.257Zm-1.2,12.991a.629.629,0,1,0-1.257,0v4.472a.629.629,0,0,0,1.257,0ZM38.824,4.4a.629.629,0,1,0-.629.629A.629.629,0,0,0,38.824,4.4Zm-3.772,0a.629.629,0,1,0-.629.629A.629.629,0,0,0,35.052,4.4Zm20.915.629a.629.629,0,1,0,0-1.257H42.051a.629.629,0,0,0,0,1.257ZM30.022,4.4a.629.629,0,1,0,.629-.629A.629.629,0,0,0,30.022,4.4Zm24.12,17.267a10.564,10.564,0,0,0-4.424.966H46.452V20.118h11.61a2.308,2.308,0,0,0,2.305-2.305V13.622a2.308,2.308,0,0,0-2.305-2.305H46.452V8.8h11.61A2.308,2.308,0,0,0,60.368,6.5V2.305A2.308,2.308,0,0,0,58.062,0H28.555A2.308,2.308,0,0,0,26.25,2.305V6.5A2.308,2.308,0,0,0,28.555,8.8H32.82a.629.629,0,1,0,0-1.257H28.555A1.049,1.049,0,0,1,27.507,6.5V2.305a1.049,1.049,0,0,1,1.048-1.048H58.062A1.049,1.049,0,0,1,59.11,2.305V6.5a1.049,1.049,0,0,1-1.048,1.048H35.754a.629.629,0,0,0,0,1.257h4.411v2.515H28.555a2.308,2.308,0,0,0-2.305,2.305v4.191a2.308,2.308,0,0,0,2.305,2.305h11.61v2.515H28.555a2.308,2.308,0,0,0-2.305,2.305V29.13a2.308,2.308,0,0,0,2.305,2.305h11.61V41.662H39.69a.629.629,0,1,0,0,1.257h7.237a.629.629,0,1,0,0-1.257h-.475V39.619a10.624,10.624,0,1,0,7.69-17.952ZM41.423,8.8h3.772v2.515H41.423ZM28.555,18.861a1.049,1.049,0,0,1-1.048-1.048V13.622a1.049,1.049,0,0,1,1.048-1.048H58.062a1.049,1.049,0,0,1,1.048,1.048v4.191a1.049,1.049,0,0,1-1.048,1.048Zm16.64,1.257v2.515H41.423V20.118ZM28.555,30.178a1.049,1.049,0,0,1-1.048-1.048V24.938a1.049,1.049,0,0,1,1.048-1.048H47.646A10.714,10.714,0,0,0,45.3,26.405h-3.25a.629.629,0,0,0,0,1.257H44.58a10.542,10.542,0,0,0-.851,2.515Zm16.64,11.484H41.423V31.435h2.129q-.034.425-.035.858a10.564,10.564,0,0,0,1.678,5.726Zm8.948,0a9.369,9.369,0,1,1,9.369-9.369A9.379,9.379,0,0,1,54.142,41.662Zm6.743-7.442-1.552-2.706a.629.629,0,0,0-1.091.626l1.552,2.706a.686.686,0,0,1-.623,1.076H49.113a.689.689,0,0,1-.623-1.076l5.029-8.766a.7.7,0,0,1,1.246,0l2,3.491a.629.629,0,0,0,1.091-.626l-2-3.491a1.987,1.987,0,0,0-3.427,0L47.4,34.22a1.991,1.991,0,0,0,1.714,2.959H59.172A2,2,0,0,0,60.885,34.22Zm-6.743-.469a.629.629,0,1,0,.629.629A.629.629,0,0,0,54.142,33.751ZM38.2,26.405a.629.629,0,1,0,.629.629A.629.629,0,0,0,38.2,26.405Z" transform="translate(183.978 1607.197)" fill="#020203"/>
  </g>
</svg>
