<svg xmlns="http://www.w3.org/2000/svg" width="92" height="92" viewBox="0 0 92 92">
  <g id="Grupo_1070556" data-name="Grupo 1070556" transform="translate(-918 -1862)">
    <g id="Grupo_1070177" data-name="Grupo 1070177" transform="translate(7336 11701)">
      <g id="Grupo_1070169" data-name="Grupo 1070169" transform="translate(-7214 -10711)">
        <circle id="Elipse_9027" data-name="Elipse 9027" cx="46" cy="46" r="46" transform="translate(796 872)" fill="#f77e6b"/>
      </g>
      <g id="algoritmo" transform="translate(-6420.454 -9823.672)">
        <path id="Trazado_816812" data-name="Trazado 816812" d="M198.238,22.637,191.7,16.1a1.213,1.213,0,0,1,0-1.715l6.533-6.533a1.213,1.213,0,0,1,1.715,0l6.533,6.533a1.213,1.213,0,0,1,0,1.715l-6.533,6.533A1.213,1.213,0,0,1,198.238,22.637Z" transform="translate(-150.641 -6.602)" fill="#ffb476"/>
        <path id="Trazado_816813" data-name="Trazado 816813" d="M205.63,213.32H192.559a1.21,1.21,0,0,1-1.21-1.21v-3.389a1.21,1.21,0,0,1,1.21-1.21H205.63a1.21,1.21,0,0,1,1.21,1.21v3.389A1.21,1.21,0,0,1,205.63,213.32Z" transform="translate(-150.641 -182.649)" fill="#fff1e5"/>
        <path id="Trazado_816814" data-name="Trazado 816814" d="M283.875,207.512h-3.631a1.21,1.21,0,0,1,1.21,1.21v3.389a1.21,1.21,0,0,1-1.21,1.21h3.631a1.21,1.21,0,0,0,1.21-1.21v-3.389A1.21,1.21,0,0,0,283.875,207.512Z" transform="translate(-228.885 -182.65)" fill="#bbf49b"/>
        <path id="Trazado_816815" data-name="Trazado 816815" d="M205.63,461.82H192.559a1.21,1.21,0,0,1-1.21-1.21v-3.389a1.21,1.21,0,0,1,1.21-1.21H205.63a1.21,1.21,0,0,1,1.21,1.21v3.389A1.21,1.21,0,0,1,205.63,461.82Z" transform="translate(-150.641 -401.376)" fill="#ffe5cf"/>
        <path id="Trazado_816816" data-name="Trazado 816816" d="M205.63,337.57H192.559a1.21,1.21,0,0,1-1.21-1.21v-3.389a1.21,1.21,0,0,1,1.21-1.21H205.63a1.21,1.21,0,0,1,1.21,1.21v3.389A1.21,1.21,0,0,1,205.63,337.57Z" transform="translate(-150.641 -292.013)" fill="#fea95c"/>
        <path id="Trazado_816817" data-name="Trazado 816817" d="M369.277,337.57H356.206a1.21,1.21,0,0,1-1.21-1.21v-3.389a1.21,1.21,0,0,1,1.21-1.21h13.071a1.21,1.21,0,0,1,1.21,1.21v3.389A1.211,1.211,0,0,1,369.277,337.57Z" transform="translate(-294.681 -292.013)" fill="#fea95c"/>
        <circle id="Elipse_9179" data-name="Elipse 9179" cx="5.809" cy="5.809" r="5.809" transform="translate(62.251 21.957)" fill="#ffb476"/>
        <path id="Trazado_816818" data-name="Trazado 816818" d="M233.632,41.535l-3.193-3.193a13.445,13.445,0,0,1-8.248,8.248l3.193,3.193a1.213,1.213,0,0,0,1.715,0l6.533-6.533A1.213,1.213,0,0,0,233.632,41.535Z" transform="translate(-177.788 -33.748)" fill="#e8d0cc"/>
        <path id="Trazado_816819" data-name="Trazado 816819" d="M28.913,337.57H41.984a1.21,1.21,0,0,0,1.21-1.21v-3.389a1.21,1.21,0,0,0-1.21-1.21H28.913a1.21,1.21,0,0,0-1.21,1.21v3.389A1.21,1.21,0,0,0,28.913,337.57Z" transform="translate(-6.601 -292.013)" fill="#fea95c"/>
        <circle id="Elipse_9180" data-name="Elipse 9180" cx="5.809" cy="5.809" r="5.809" transform="translate(23.038 21.957)" fill="#c9e8e0"/>
        <path id="Trazado_816820" data-name="Trazado 816820" d="M58.129,189.61a5.808,5.808,0,0,1-7.921,7.921,5.809,5.809,0,1,0,7.921-7.921Z" transform="translate(-26.41 -166.893)" fill="#8ac9fe"/>
        <path id="Trazado_816821" data-name="Trazado 816821" d="M385.422,189.61a5.808,5.808,0,0,1-7.921,7.921,5.809,5.809,0,1,0,7.921-7.921Z" transform="translate(-314.49 -166.893)" fill="#ffd15b"/>
        <path id="Trazado_816822" data-name="Trazado 816822" d="M283.875,456.012h-3.631a1.21,1.21,0,0,1,1.21,1.21v3.389a1.21,1.21,0,0,1-1.21,1.21h3.631a1.21,1.21,0,0,0,1.21-1.21v-3.389A1.21,1.21,0,0,0,283.875,456.012Z" transform="translate(-228.885 -401.377)" fill="#fe5694"/>
        <g id="Grupo_1070174" data-name="Grupo 1070174" transform="translate(31.752 39.749)">
          <path id="Trazado_816823" data-name="Trazado 816823" d="M283.875,331.762h-3.631a1.21,1.21,0,0,1,1.21,1.21v3.389a1.21,1.21,0,0,1-1.21,1.21h3.631a1.21,1.21,0,0,0,1.21-1.21v-3.389A1.21,1.21,0,0,0,283.875,331.762Z" transform="translate(-260.637 -331.762)" fill="#fe9738"/>
          <path id="Trazado_816824" data-name="Trazado 816824" d="M447.521,331.762H443.89a1.21,1.21,0,0,1,1.21,1.21v3.389a1.21,1.21,0,0,1-1.21,1.21h3.631a1.21,1.21,0,0,0,1.21-1.21v-3.389A1.21,1.21,0,0,0,447.521,331.762Z" transform="translate(-404.677 -331.762)" fill="#fe9738"/>
          <path id="Trazado_816825" data-name="Trazado 816825" d="M120.228,331.762H116.6a1.21,1.21,0,0,1,1.21,1.21v3.389a1.21,1.21,0,0,1-1.21,1.21h3.631a1.21,1.21,0,0,0,1.21-1.21v-3.389A1.21,1.21,0,0,0,120.228,331.762Z" transform="translate(-116.597 -331.762)" fill="#fe9738"/>
        </g>
        <path id="Trazado_816826" data-name="Trazado 816826" d="M74.6,38.85H68.959V34.413a6.707,6.707,0,1,0-7.545-7.545H57.1v-.8a2.111,2.111,0,0,0-2.109-2.109H49.352V17.087a2.1,2.1,0,0,0,.595-.416L51.8,14.822a.9.9,0,0,0-1.271-1.271L48.676,15.4a.316.316,0,0,1-.445,0L41.7,8.867a.316.316,0,0,1,0-.445l6.534-6.533a.313.313,0,0,1,.444,0l6.532,6.531a.316.316,0,0,1,0,.446L53.49,10.586a.9.9,0,1,0,1.271,1.271l1.719-1.719a2.116,2.116,0,0,0,0-2.987L49.948.62a2.11,2.11,0,0,0-2.987,0L40.427,7.152a2.115,2.115,0,0,0,0,2.986l6.533,6.533a2.109,2.109,0,0,0,.595.416v6.876h-.732a.9.9,0,1,0,0,1.8H54.99a.312.312,0,0,1,.312.312v3.389a.312.312,0,0,1-.312.312H41.918a.312.312,0,0,1-.312-.312V26.072a.312.312,0,0,1,.312-.312h.712a.9.9,0,1,0,0-1.8h-.712a2.111,2.111,0,0,0-2.109,2.109v.8H35.493a6.707,6.707,0,1,0-7.545,7.545V38.85H22.312A2.111,2.111,0,0,0,20.2,40.959v3.389a2.111,2.111,0,0,0,2.109,2.109h5.637V57.54a.9.9,0,0,0,.9.9H39.81v.8a2.111,2.111,0,0,0,2.109,2.109h6.77a.9.9,0,1,0,0-1.8h-6.77a.312.312,0,0,1-.312-.312V55.845a.312.312,0,0,1,.312-.312H54.99a.312.312,0,0,1,.312.312v3.389a.312.312,0,0,1-.312.312H52.882a.9.9,0,1,0,0,1.8H54.99A2.111,2.111,0,0,0,57.1,59.234v-.8H68.061a.9.9,0,0,0,.9-.9V46.456H74.6a2.111,2.111,0,0,0,2.109-2.109V40.959A2.112,2.112,0,0,0,74.6,38.85ZM68.06,22.856a4.911,4.911,0,1,1-4.911,4.911,4.916,4.916,0,0,1,4.911-4.911ZM57.1,29.461v-.8h4.316a6.72,6.72,0,0,0,5.747,5.747V38.85H61.525a2.111,2.111,0,0,0-2.109,2.109v.8H57.1v-.8a2.111,2.111,0,0,0-2.109-2.109H49.352V31.57H54.99A2.111,2.111,0,0,0,57.1,29.461Zm-15.18,15.2a.312.312,0,0,1-.312-.312V40.959a.312.312,0,0,1,.312-.312H54.989a.312.312,0,0,1,.312.312v3.389a.312.312,0,0,1-.312.312ZM23.937,27.767a4.911,4.911,0,1,1,4.911,4.911A4.916,4.916,0,0,1,23.937,27.767Zm5.809,6.646a6.72,6.72,0,0,0,5.747-5.747H39.81v.8a2.111,2.111,0,0,0,2.109,2.109h5.637v7.28H41.918a2.111,2.111,0,0,0-2.109,2.109v.8H37.492v-.8a2.111,2.111,0,0,0-2.109-2.109H29.746ZM22,44.348V40.959a.312.312,0,0,1,.312-.312H35.383a.312.312,0,0,1,.312.312v3.389a.312.312,0,0,1-.312.312H22.312A.312.312,0,0,1,22,44.348Zm17.809,11.5v.8H29.746V46.456h5.637a2.111,2.111,0,0,0,2.109-2.109v-.8H39.81v.8a2.111,2.111,0,0,0,2.109,2.109h5.637v7.28H41.918a2.111,2.111,0,0,0-2.109,2.109Zm27.352.8H57.1v-.8a2.111,2.111,0,0,0-2.109-2.109H49.352v-7.28h5.637A2.111,2.111,0,0,0,57.1,44.348v-.8h2.318v.8a2.111,2.111,0,0,0,2.109,2.109h5.637V56.641Zm7.746-12.294a.312.312,0,0,1-.312.312H61.525a.312.312,0,0,1-.312-.312V40.959a.312.312,0,0,1,.312-.312H74.6a.312.312,0,0,1,.312.312v3.389Z"/>
      </g>
    </g>
  </g>
</svg>
