<svg xmlns="http://www.w3.org/2000/svg" width="92" height="92" viewBox="0 0 92 92">
  <g id="Grupo_1070557" data-name="Grupo 1070557" transform="translate(-1233 -1862)">
    <g id="Grupo_1070178" data-name="Grupo 1070178" transform="translate(7314 11701)">
      <g id="Grupo_1070170" data-name="Grupo 1070170" transform="translate(-7214 -10711)">
        <circle id="Elipse_9028" data-name="Elipse 9028" cx="46" cy="46" r="46" transform="translate(1133 872)" fill="#f77e6b"/>
      </g>
      <g id="_04-Evaluation" data-name="04-Evaluation" transform="translate(-6059.192 -9817.609)">
        <path id="Trazado_816827" data-name="Trazado 816827" d="M14.3,49.059H43.757V1H5V39.757Z" transform="translate(-0.225 -0.225)" fill="#f2f6fc"/>
        <path id="Trazado_816828" data-name="Trazado 816828" d="M14.3,60.3V51H5Z" transform="translate(-0.225 -11.467)" fill="#cdd2e1"/>
        <path id="Trazado_816829" data-name="Trazado 816829" d="M9,5h6.2V9.651H9Z" transform="translate(-1.124 -1.124)" fill="#ffa480"/>
        <path id="Trazado_816830" data-name="Trazado 816830" d="M9,8h6.2v2.325H9Z" transform="translate(-1.124 -1.799)" fill="#ff7045"/>
        <path id="Trazado_816831" data-name="Trazado 816831" d="M9,15h6.2v4.651H9Z" transform="translate(-1.124 -3.373)" fill="#ffa480"/>
        <path id="Trazado_816832" data-name="Trazado 816832" d="M9,18h6.2v2.325H9Z" transform="translate(-1.124 -4.047)" fill="#ff7045"/>
        <circle id="Elipse_9181" data-name="Elipse 9181" cx="11.5" cy="11.5" r="11.5" transform="translate(12.192 11.609)" fill="#ffb476"/>
        <path id="Trazado_816833" data-name="Trazado 816833" d="M17.325,26.627A11.632,11.632,0,0,1,27.79,15.059c-.383-.038-.771-.059-1.163-.059a11.627,11.627,0,0,0,0,23.254c.392,0,.78-.021,1.163-.059A11.632,11.632,0,0,1,17.325,26.627Z" transform="translate(-2.473 -3.373)" fill="#ffb476"/>
        <path id="Trazado_816834" data-name="Trazado 816834" d="M29.55,15a11.62,11.62,0,0,0-1.55.115,11.614,11.614,0,0,1,0,23.022A11.622,11.622,0,1,0,29.55,15Z" transform="translate(-5.396 -3.373)" fill="#ffb476"/>
        <path id="Trazado_816835" data-name="Trazado 816835" d="M0,0H5.481V8.77H0Z" transform="translate(39.648 42.634) rotate(-45)" fill="#ffe5cf"/>
        <path id="Trazado_816836" data-name="Trazado 816836" d="M49.713,48.163,50.876,47,53.2,49.325,49.325,53.2,47,50.876l1.163-1.163Z" transform="translate(-9.669 -10.568)" fill="#707789"/>
        <path id="Trazado_816837" data-name="Trazado 816837" d="M48.836,47.286l-1.55,1.55L43.1,44.65a13.311,13.311,0,0,0,1.55-1.55Z" transform="translate(-8.792 -9.691)" fill="#afb4c8"/>
        <path id="Trazado_816838" data-name="Trazado 816838" d="M37.2,35.647a13.311,13.311,0,0,1-1.55,1.55,15.521,15.521,0,1,1,1.55-1.55ZM37.12,25.493A11.627,11.627,0,1,0,25.493,37.12,11.627,11.627,0,0,0,37.12,25.493Z" transform="translate(-1.339 -2.238)" fill="#ff6148"/>
        <path id="Trazado_816839" data-name="Trazado 816839" d="M24.325,27.651,22,29.976l3.876,3.876L34.4,25.325,32.077,23l-6.2,6.2Z" transform="translate(-4.047 -5.172)" fill="#ff7045"/>
        <path id="Trazado_816840" data-name="Trazado 816840" d="M25.876,32.751l-3.1-3.1L22,30.426,25.876,34.3,34.4,25.775,33.627,25Z" transform="translate(-4.047 -5.621)" fill="#ff432e"/>
        <path id="Trazado_816841" data-name="Trazado 816841" d="M14.852,39.533a.775.775,0,0,0-.775-.775H5.55V1.55H42.757V35.657h1.55V.775A.775.775,0,0,0,43.533,0H4.775A.775.775,0,0,0,4,.775V39.533c0,.016.009.031.009.048a.775.775,0,0,0,.04.2c.009.025.015.048.026.072a.775.775,0,0,0,.155.227l9.3,9.3a.779.779,0,0,0,.545.227H42.757v-1.55H14.852Zm-8.206.775H13.3v6.655Z"/>
        <path id="Trazado_816842" data-name="Trazado 816842" d="M51.38,46.408l-8.527-8.527a.775.775,0,0,0-1.1,0l-.615.615L38,35.35A16.324,16.324,0,1,0,35.35,38L38.5,41.142l-.615.615a.775.775,0,0,0,0,1.1l8.527,8.527a.775.775,0,0,0,1.1,0L51.38,47.5A.775.775,0,0,0,51.38,46.408ZM10.524,25.252A14.728,14.728,0,1,1,25.252,39.979,14.728,14.728,0,0,1,10.524,25.252ZM36.518,36.973q.233-.222.454-.454l3.073,3.073-.454.454ZM42.3,39.525l1.229,1.229-2.78,2.78L39.525,42.3Zm4.651,10.21L41.851,44.63l2.78-2.78,5.105,5.105Z" transform="translate(-1.098 -1.997)"/>
        <path id="Trazado_816843" data-name="Trazado 816843" d="M26.4,14A12.4,12.4,0,1,0,38.8,26.4,12.4,12.4,0,0,0,26.4,14Zm0,23.254A10.852,10.852,0,1,1,37.254,26.4,10.852,10.852,0,0,1,26.4,37.254Z" transform="translate(-2.249 -3.148)"/>
        <path id="Trazado_816844" data-name="Trazado 816844" d="M15.751,9.426V4.775A.775.775,0,0,0,14.976,4h-6.2A.775.775,0,0,0,8,4.775V9.426a.775.775,0,0,0,.775.775h6.2A.775.775,0,0,0,15.751,9.426ZM14.2,8.651H9.55V5.55H14.2Z" transform="translate(-0.899 -0.899)"/>
        <path id="Trazado_816845" data-name="Trazado 816845" d="M8,14.775v4.651a.775.775,0,0,0,.775.775H9.55V15.55h2.325V14h-3.1A.775.775,0,0,0,8,14.775Z" transform="translate(-0.899 -3.148)"/>
        <path id="Trazado_816846" data-name="Trazado 816846" d="M20,4h1.55V5.55H20Z" transform="translate(-3.598 -0.899)"/>
        <path id="Trazado_816847" data-name="Trazado 816847" d="M24,4H44.929V5.55H24Z" transform="translate(-4.497 -0.899)"/>
        <path id="Trazado_816848" data-name="Trazado 816848" d="M20,58h1.55v1.55H20Z" transform="translate(-3.598 -13.041)"/>
        <path id="Trazado_816849" data-name="Trazado 816849" d="M24,58H37.953v1.55H24Z" transform="translate(-4.497 -13.041)"/>
        <path id="Trazado_816850" data-name="Trazado 816850" d="M20,54H33.953v1.55H20Z" transform="translate(-3.598 -12.142)"/>
        <path id="Trazado_816851" data-name="Trazado 816851" d="M32.4,22.227a.775.775,0,0,0-1.1,0L25.651,27.88l-1-1a.775.775,0,0,0-1.1,0L21.227,29.2a.775.775,0,0,0,0,1.1L25.1,34.175a.775.775,0,0,0,1.1,0l8.527-8.527a.775.775,0,0,0,0-1.1Zm-6.749,10.3-2.78-2.78L24.1,28.522l1,1a.775.775,0,0,0,1.1,0l5.653-5.653L33.082,25.1Z" transform="translate(-3.823 -4.947)"/>
      </g>
    </g>
  </g>
</svg>
