<svg xmlns="http://www.w3.org/2000/svg" width="98" height="98" viewBox="0 0 98 98">
  <g id="Grupo_1070743" data-name="Grupo 1070743" transform="translate(-1050 -2874.016)">
    <g id="Grupo_1070371" data-name="Grupo 1070371" transform="translate(424 2291.016)">
      <rect id="Rectángulo_374482" data-name="Rectángulo 374482" width="98" height="98" rx="8" transform="translate(626 583)" fill="#fff"/>
    </g>
    <g id="vigilancia" transform="translate(1049.872 2876.016)">
      <path id="Trazado_817273" data-name="Trazado 817273" d="M80,26.209A2.209,2.209,0,0,1,82.209,24h51.9a2.209,2.209,0,0,1,2.209,2.209V62.65a2.209,2.209,0,0,1-2.209,2.209H80Z" transform="translate(-55.166 -6.896)" fill="#2effc7"/>
      <path id="Trazado_817274" data-name="Trazado 817274" d="M320.564,366.356,327.19,352H310.626L304,366.356Z" transform="translate(-248.246 -289.62)" fill="#8be0e8"/>
      <path id="Trazado_817275" data-name="Trazado 817275" d="M240,456h25.4v2.209a2.209,2.209,0,0,1-2.209,2.209H242.209A2.209,2.209,0,0,1,240,458.209Z" transform="translate(-193.08 -379.265)" fill="#548aff"/>
      <path id="Trazado_817276" data-name="Trazado 817276" d="M64,280h7.6v9.939H64Z" transform="translate(-41.374 -227.559)" fill="#ffceb6"/>
      <path id="Trazado_817277" data-name="Trazado 817277" d="M101.521,240v8.7a2.343,2.343,0,0,1-4,1.656L96,248.834V240Z" transform="translate(-68.957 -193.08)" fill="#ffceb6"/>
      <path id="Trazado_817278" data-name="Trazado 817278" d="M43.313,228.147l-2.573-4.289A5.188,5.188,0,0,1,40,221.189h0A5.189,5.189,0,0,1,45.189,216h8.063a2.209,2.209,0,1,1,0,4.417H49.939L47.73,223.73v4.417Z" transform="translate(-20.687 -172.393)" fill="#c47220"/>
      <path id="Trazado_817279" data-name="Trazado 817279" d="M58.233,354.773H49.157a4.417,4.417,0,0,1-3.283-1.462l-4.205-4.673v9.448H24v-15.46A6.626,6.626,0,0,1,30.626,336h7.38a7.73,7.73,0,0,1,5.983,2.835l7.619,9.312h6.626Z" transform="translate(-6.896 -275.829)" fill="#ffb401"/>
      <path id="Trazado_817280" data-name="Trazado 817280" d="M272,423.73V417.1h2.209l4.417-1.1,4.921,2.953a1.237,1.237,0,0,1-.879,2.273l-4.042-.808-3.828,2.871a2.208,2.208,0,0,1-1.325.442Z" transform="translate(-220.663 -344.786)" fill="#ffceb6"/>
      <path id="Trazado_817281" data-name="Trazado 817281" d="M345.939,460.417h-7.73A2.209,2.209,0,0,1,336,458.209V456h12.147v2.209A2.209,2.209,0,0,1,345.939,460.417Z" transform="translate(-275.829 -379.265)" fill="#4367e0"/>
      <path id="Trazado_817282" data-name="Trazado 817282" d="M192,248h6.626v5.521H192Z" transform="translate(-151.706 -199.976)" fill="#ffa100"/>
      <path id="Trazado_817283" data-name="Trazado 817283" d="M240,216h6.626v9.939H240Z" transform="translate(-193.08 -172.393)" fill="#ffb401"/>
      <path id="Trazado_817284" data-name="Trazado 817284" d="M288,176h6.626v15.46H288Z" transform="translate(-234.454 -137.914)" fill="#ffc431"/>
      <path id="Trazado_817285" data-name="Trazado 817285" d="M336,136h6.626v20.981H336Z" transform="translate(-275.829 -103.436)" fill="#ffcc4d"/>
      <path id="Trazado_817286" data-name="Trazado 817286" d="M384,104h6.626v25.4H384Z" transform="translate(-317.203 -75.853)" fill="#ffd873"/>
      <g id="Grupo_1070457" data-name="Grupo 1070457" transform="translate(39.385 21.456)">
        <ellipse id="Elipse_9239" data-name="Elipse 9239" cx="2" cy="2.5" rx="2" ry="2.5" transform="translate(-0.385 15.543)" fill="#c5dafa"/>
        <circle id="Elipse_9240" data-name="Elipse 9240" cx="2.5" cy="2.5" r="2.5" transform="translate(10.615 7.543)" fill="#c5dafa"/>
        <ellipse id="Elipse_9241" data-name="Elipse 9241" cx="2" cy="2.5" rx="2" ry="2.5" transform="translate(20.615 -0.457)" fill="#c5dafa"/>
      </g>
      <path id="Trazado_817287" data-name="Trazado 817287" d="M78.944,226.773H62.38a1.1,1.1,0,0,0-1,.642l-3.811,8.258-4.156,1.039H45.235L37.947,227.8a8.8,8.8,0,0,0-6.621-3.234v-.189a3.452,3.452,0,0,0,2.343-3.264v-6.682a3.313,3.313,0,0,0-1.1-6.436H24.5a6.293,6.293,0,0,0-5.4,9.53l2.416,4.027v3.33A7.743,7.743,0,0,0,16,232.294v15.46h2.209v-15.46a5.528,5.528,0,0,1,5.521-5.521h7.38a6.6,6.6,0,0,1,5.128,2.43l7.619,9.312a1.1,1.1,0,0,0,.855.4h5.521v4.417H42.261a3.318,3.318,0,0,1-2.462-1.1l-8.623-9.581-1.642,1.477,4.134,4.593v9.024h2.209v-6.57l2.28,2.534a5.53,5.53,0,0,0,4.1,1.828h3.744a3.318,3.318,0,0,0,3.123,2.209H70.11a3.317,3.317,0,0,0,3.313-3.313v-1.966l6.524-14.135a1.1,1.1,0,0,0-1-1.567Zm-48.722-4.417a1.23,1.23,0,0,1-.876-.363l-1.2-1.2v-3.625l1.7-2.543H31.46v6.492a1.24,1.24,0,0,1-1.238,1.238Zm-9.8-8.063a4.089,4.089,0,0,1,4.084-4.084h8.063a1.1,1.1,0,0,1,0,2.209H29.251a1.1,1.1,0,0,0-.919.492l-2.209,3.313a1.1,1.1,0,0,0-.185.613v3.313H23.251L21,216.394a4.085,4.085,0,0,1-.582-2.1Zm3.313,8.063h2.855l1.2,1.2a3.432,3.432,0,0,0,1.333.829v.181H23.73ZM52.441,238.92h1.1a1.1,1.1,0,0,0,.268-.033l3.973-.993,4.529,2.717a.132.132,0,0,1-.094.243l-4.042-.808a1.1,1.1,0,0,0-.879.2l-3.828,2.871a1.111,1.111,0,0,1-.663.221h-.368Zm2.356,5.963,2.061-1.546h2.209v1.1a3.3,3.3,0,0,0,.19,1.1H52.809A3.334,3.334,0,0,0,54.8,244.883Zm16.417-.442a1.106,1.106,0,0,1-1.1,1.1H62.38a1.106,1.106,0,0,1-1.1-1.1v-1.1h9.939Zm.4-3.313H64.55a2.313,2.313,0,0,0-1.1-2.411l-3.805-2.283,3.44-7.453H77.218Z" transform="translate(0 -165.497)"/>
      <path id="Trazado_817288" data-name="Trazado 817288" d="M127.214,16h-51.9A3.317,3.317,0,0,0,72,19.313V40.294h2.209V19.313a1.106,1.106,0,0,1,1.1-1.1h51.9a1.106,1.106,0,0,1,1.1,1.1V55.754a1.106,1.106,0,0,1-1.1,1.1H84.147v2.209h43.067a3.317,3.317,0,0,0,3.313-3.313V19.313A3.317,3.317,0,0,0,127.214,16Z" transform="translate(-48.27)"/>
      <circle id="Elipse_9242" data-name="Elipse 9242" cx="1" cy="1" r="1" transform="translate(27 19)"/>
      <circle id="Elipse_9243" data-name="Elipse 9243" cx="1" cy="1" r="1" transform="translate(30 19)"/>
      <ellipse id="Elipse_9244" data-name="Elipse 9244" cx="0.5" cy="1" rx="0.5" ry="1" transform="translate(34 19)"/>
      <path id="Trazado_817289" data-name="Trazado 817289" d="M204.441,96h-6.626a1.1,1.1,0,0,0-1.1,1.1v3.313H191.19a1.1,1.1,0,0,0-1.1,1.1v4.417h-5.521a1.1,1.1,0,0,0-1.1,1.1v4.417h-5.521a1.1,1.1,0,0,0-1.1,1.1v3.313h-5.521a1.1,1.1,0,0,0-1.1,1.1V121.4H168v2.209h39.754V121.4h-2.209V97.1A1.1,1.1,0,0,0,204.441,96Zm-32.024,22.086h4.417V121.4h-4.417Zm6.626-4.417h4.417v7.73h-4.417Zm6.626-5.521h4.417V121.4h-4.417Zm6.626-5.521h4.417V121.4h-4.417ZM203.337,121.4H198.92V98.209h4.417Z" transform="translate(-131.019 -68.957)"/>
      <path id="Trazado_817290" data-name="Trazado 817290" d="M144,67.871h4.607A3.313,3.313,0,0,0,154.9,65.8l5.743-4.232a3.312,3.312,0,0,0,5.184-3.819l5.027-3.7a3.31,3.31,0,0,0,4.981-1.637h6.816V50.2h-6.816a3.313,3.313,0,0,0-6.292,2.068l-5.214,3.842a3.311,3.311,0,0,0-4.809,3.543l-5.931,4.37a3.31,3.31,0,0,0-4.981,1.637H144ZM172.711,50.2a1.1,1.1,0,1,1-1.1,1.1A1.1,1.1,0,0,1,172.711,50.2Zm-9.939,7.73a1.1,1.1,0,1,1-1.1,1.1A1.1,1.1,0,0,1,162.773,57.933Zm-11.043,7.73a1.1,1.1,0,1,1-1.1,1.1A1.1,1.1,0,0,1,151.73,65.663Z" transform="translate(-110.332 -27.577)"/>
      <path id="Trazado_817291" data-name="Trazado 817291" d="M440,64h2.209v2.209H440Z" transform="translate(-365.473 -41.374)"/>
      <path id="Trazado_817292" data-name="Trazado 817292" d="M112,176h2.209v2.209H112Z" transform="translate(-82.749 -137.914)"/>
    </g>
  </g>
</svg>
