<svg xmlns="http://www.w3.org/2000/svg" xmlns:xlink="http://www.w3.org/1999/xlink" width="134.389" height="126.993" viewBox="0 0 134.389 126.993">
  <defs>
    <clipPath id="clip-path">
      <path id="Trazado_814206" data-name="Trazado 814206" d="M0,1.376A1.376,1.376,0,1,0,1.375,0,1.375,1.375,0,0,0,0,1.376" fill="#ff8e7c"/>
    </clipPath>
    <clipPath id="clip-path-2">
      <path id="Trazado_814208" data-name="Trazado 814208" d="M0,1.376A1.376,1.376,0,1,0,1.376,0h0A1.377,1.377,0,0,0,0,1.376" fill="#ff8e7c"/>
    </clipPath>
    <clipPath id="clip-path-3">
      <path id="Trazado_814210" data-name="Trazado 814210" d="M1.375,0A1.375,1.375,0,1,0,2.751,1.376,1.375,1.375,0,0,0,1.375,0Z" fill="#ff8e7c"/>
    </clipPath>
    <clipPath id="clip-path-4">
      <path id="Trazado_814212" data-name="Trazado 814212" d="M0,1.376A1.375,1.375,0,1,0,1.375,0,1.375,1.375,0,0,0,0,1.376" fill="#ff8e7c"/>
    </clipPath>
    <clipPath id="clip-path-6">
      <path id="Trazado_814216" data-name="Trazado 814216" d="M1.375,0A1.375,1.375,0,1,0,2.75,1.376,1.375,1.375,0,0,0,1.375,0Z" fill="#ff8e7c"/>
    </clipPath>
    <clipPath id="clip-path-7">
      <path id="Trazado_814218" data-name="Trazado 814218" d="M0,1.376A1.376,1.376,0,1,0,1.375,0,1.376,1.376,0,0,0,0,1.376" fill="#ff8e7c"/>
    </clipPath>
    <clipPath id="clip-path-13">
      <path id="Trazado_814230" data-name="Trazado 814230" d="M1074.25,1088.088a1.673,1.673,0,1,0,1.673-1.674,1.673,1.673,0,0,0-1.673,1.674" transform="translate(-1074.25 -1086.414)" fill="#ffb476"/>
    </clipPath>
    <clipPath id="clip-path-14">
      <path id="Trazado_814232" data-name="Trazado 814232" d="M1074.25,1053.176a1.673,1.673,0,1,0,1.673-1.673h0a1.675,1.675,0,0,0-1.673,1.673" transform="translate(-1074.25 -1051.503)" fill="#ffb476"/>
    </clipPath>
    <clipPath id="clip-path-15">
      <path id="Trazado_814234" data-name="Trazado 814234" d="M1075.924,1013.613a1.673,1.673,0,1,0,1.673,1.674A1.673,1.673,0,0,0,1075.924,1013.613Z" transform="translate(-1074.251 -1013.613)" fill="#ffb476"/>
    </clipPath>
    <clipPath id="clip-path-16">
      <path id="Trazado_814236" data-name="Trazado 814236" d="M1104.611,1088.088a1.673,1.673,0,1,0,1.673-1.674,1.672,1.672,0,0,0-1.673,1.674" transform="translate(-1104.611 -1086.414)" fill="#ffb476"/>
    </clipPath>
    <clipPath id="clip-path-17">
      <path id="Trazado_814238" data-name="Trazado 814238" d="M1104.611,1053.176a1.673,1.673,0,1,0,1.673-1.673,1.673,1.673,0,0,0-1.673,1.673" transform="translate(-1104.611 -1051.503)" fill="#ffb476"/>
    </clipPath>
    <clipPath id="clip-path-18">
      <path id="Trazado_814240" data-name="Trazado 814240" d="M1106.285,1013.613a1.673,1.673,0,1,0,1.673,1.673A1.672,1.672,0,0,0,1106.285,1013.613Z" transform="translate(-1104.613 -1013.613)" fill="#ffb476"/>
    </clipPath>
    <clipPath id="clip-path-19">
      <path id="Trazado_814242" data-name="Trazado 814242" d="M1136.285,1088.088a1.674,1.674,0,1,0,1.673-1.674,1.674,1.674,0,0,0-1.673,1.674" transform="translate(-1136.285 -1086.414)" fill="#ffb476"/>
    </clipPath>
    <clipPath id="clip-path-20">
      <path id="Trazado_814244" data-name="Trazado 814244" d="M1136.285,1053.176a1.674,1.674,0,1,0,1.674-1.673h0a1.676,1.676,0,0,0-1.673,1.673" transform="translate(-1136.285 -1051.503)" fill="#ffb476"/>
    </clipPath>
    <clipPath id="clip-path-21">
      <path id="Trazado_814246" data-name="Trazado 814246" d="M1137.959,1013.613a1.673,1.673,0,1,0,1.673,1.674A1.673,1.673,0,0,0,1137.959,1013.613Z" transform="translate(-1136.287 -1013.613)" fill="#ffb476"/>
    </clipPath>
    <clipPath id="clip-path-22">
      <path id="Trazado_814248" data-name="Trazado 814248" d="M1166.647,1088.088a1.673,1.673,0,1,0,1.672-1.674,1.672,1.672,0,0,0-1.672,1.674" transform="translate(-1166.647 -1086.414)" fill="#ffb476"/>
    </clipPath>
    <clipPath id="clip-path-23">
      <path id="Trazado_814250" data-name="Trazado 814250" d="M1166.647,1053.176a1.673,1.673,0,1,0,1.672-1.673,1.672,1.672,0,0,0-1.672,1.673" transform="translate(-1166.647 -1051.503)" fill="#ffb476"/>
    </clipPath>
    <clipPath id="clip-path-24">
      <path id="Trazado_814252" data-name="Trazado 814252" d="M1168.32,1013.613a1.673,1.673,0,1,0,1.673,1.673A1.672,1.672,0,0,0,1168.32,1013.613Z" transform="translate(-1166.648 -1013.613)" fill="#ffb476"/>
    </clipPath>
  </defs>
  <g id="Grupo_1070561" data-name="Grupo 1070561" transform="translate(7066 8210.203)">
    <g id="Grupo_1070260" data-name="Grupo 1070260" transform="translate(-1437 491)">
      <g id="Grupo_1070258" data-name="Grupo 1070258" transform="translate(0 628)">
        <g id="Grupo_1070193" data-name="Grupo 1070193" transform="translate(-6734 -11701)">
          <g id="Grupo_1068156" data-name="Grupo 1068156" transform="translate(1105 2371.797)">
            <g id="Grupo_1068103" data-name="Grupo 1068103" transform="translate(0)">
              <path id="Trazado_814254" data-name="Trazado 814254" d="M63.5,0A63.5,63.5,0,1,1,0,63.5,63.5,63.5,0,0,1,63.5,0Z" transform="translate(7.396)" fill="#f77e6b"/>
              <g id="Grupo_1068128" data-name="Grupo 1068128" transform="translate(106.083 122.697) rotate(-90)">
                <g id="Group_881454" data-name="Group 881454" transform="translate(0 22.353)">
                  <g id="Grupo_1068105" data-name="Grupo 1068105" transform="translate(0 0)">
                    <path id="Trazado_814205" data-name="Trazado 814205" d="M0,1.376A1.376,1.376,0,1,0,1.375,0,1.375,1.375,0,0,0,0,1.376" fill="#ff8e7c"/>
                    <g id="Grupo_1068104" data-name="Grupo 1068104" clip-path="url(#clip-path)">
                      <g id="Group_881453" data-name="Group 881453" transform="translate(0 0)">
                        <rect id="Rectangle_298909" data-name="Rectangle 298909" width="2.751" height="2.751" fill="#ff8e7c"/>
                      </g>
                    </g>
                  </g>
                </g>
                <g id="Group_881456" data-name="Group 881456" transform="translate(0 11.634)">
                  <g id="Grupo_1068107" data-name="Grupo 1068107" transform="translate(0 0)">
                    <path id="Trazado_814207" data-name="Trazado 814207" d="M0,1.376A1.376,1.376,0,1,0,1.376,0h0A1.377,1.377,0,0,0,0,1.376" fill="#ff8e7c"/>
                    <g id="Grupo_1068106" data-name="Grupo 1068106" clip-path="url(#clip-path-2)">
                      <g id="Group_881455" data-name="Group 881455" transform="translate(0 0)">
                        <rect id="Rectangle_298910" data-name="Rectangle 298910" width="2.751" height="2.751" fill="#ff8e7c"/>
                      </g>
                    </g>
                  </g>
                </g>
                <g id="Group_881458" data-name="Group 881458" transform="translate(0 0)">
                  <g id="Grupo_1068109" data-name="Grupo 1068109">
                    <path id="Trazado_814209" data-name="Trazado 814209" d="M1.375,0A1.375,1.375,0,1,0,2.751,1.376,1.375,1.375,0,0,0,1.375,0Z" fill="#ff8e7c"/>
                    <g id="Grupo_1068108" data-name="Grupo 1068108" clip-path="url(#clip-path-3)">
                      <g id="Group_881457" data-name="Group 881457" transform="translate(0 0)">
                        <rect id="Rectangle_298911" data-name="Rectangle 298911" width="2.751" height="2.75" fill="#ff8e7c"/>
                      </g>
                    </g>
                  </g>
                </g>
                <g id="Group_881460" data-name="Group 881460" transform="translate(9.322 22.353)">
                  <g id="Grupo_1068111" data-name="Grupo 1068111" transform="translate(0 0)">
                    <path id="Trazado_814211" data-name="Trazado 814211" d="M0,1.376A1.375,1.375,0,1,0,1.375,0,1.375,1.375,0,0,0,0,1.376" fill="#ff8e7c"/>
                    <g id="Grupo_1068110" data-name="Grupo 1068110" clip-path="url(#clip-path-4)">
                      <g id="Group_881459" data-name="Group 881459" transform="translate(0 0)">
                        <rect id="Rectangle_298912" data-name="Rectangle 298912" width="2.751" height="2.751" fill="#ff8e7c"/>
                      </g>
                    </g>
                  </g>
                </g>
                <g id="Group_881462" data-name="Group 881462" transform="translate(9.322 11.634)">
                  <g id="Grupo_1068113" data-name="Grupo 1068113" transform="translate(0 0)">
                    <path id="Trazado_814213" data-name="Trazado 814213" d="M0,1.376A1.375,1.375,0,1,0,1.375,0,1.375,1.375,0,0,0,0,1.376" fill="#ff8e7c"/>
                    <g id="Grupo_1068112" data-name="Grupo 1068112" clip-path="url(#clip-path-4)">
                      <g id="Group_881461" data-name="Group 881461" transform="translate(0 0)">
                        <rect id="Rectangle_298913" data-name="Rectangle 298913" width="2.751" height="2.751" fill="#ff8e7c"/>
                      </g>
                    </g>
                  </g>
                </g>
                <g id="Group_881464" data-name="Group 881464" transform="translate(9.323 0)">
                  <g id="Grupo_1068115" data-name="Grupo 1068115" transform="translate(0)">
                    <path id="Trazado_814215" data-name="Trazado 814215" d="M1.375,0A1.375,1.375,0,1,0,2.75,1.376,1.375,1.375,0,0,0,1.375,0Z" fill="#ff8e7c"/>
                    <g id="Grupo_1068114" data-name="Grupo 1068114" clip-path="url(#clip-path-6)">
                      <g id="Group_881463" data-name="Group 881463" transform="translate(-0.001 0)">
                        <rect id="Rectangle_298914" data-name="Rectangle 298914" width="2.751" height="2.75" fill="#ff8e7c"/>
                      </g>
                    </g>
                  </g>
                </g>
                <g id="Group_881454-2" data-name="Group 881454" transform="translate(19.047 22.353)">
                  <g id="Grupo_1068117" data-name="Grupo 1068117" transform="translate(0 0)">
                    <path id="Trazado_814217" data-name="Trazado 814217" d="M0,1.376A1.376,1.376,0,1,0,1.375,0,1.376,1.376,0,0,0,0,1.376" fill="#ff8e7c"/>
                    <g id="Grupo_1068116" data-name="Grupo 1068116" clip-path="url(#clip-path-7)">
                      <g id="Group_881453-2" data-name="Group 881453" transform="translate(0 0)">
                        <rect id="Rectangle_298909-2" data-name="Rectangle 298909" width="2.751" height="2.751" fill="#ff8e7c"/>
                      </g>
                    </g>
                  </g>
                </g>
                <g id="Group_881456-2" data-name="Group 881456" transform="translate(19.047 11.634)">
                  <g id="Grupo_1068119" data-name="Grupo 1068119" transform="translate(0 0)">
                    <path id="Trazado_814219" data-name="Trazado 814219" d="M0,1.376A1.376,1.376,0,1,0,1.376,0h0A1.377,1.377,0,0,0,0,1.376" fill="#ff8e7c"/>
                    <g id="Grupo_1068118" data-name="Grupo 1068118" clip-path="url(#clip-path-2)">
                      <g id="Group_881455-2" data-name="Group 881455" transform="translate(0 0)">
                        <rect id="Rectangle_298910-2" data-name="Rectangle 298910" width="2.751" height="2.751" fill="#ff8e7c"/>
                      </g>
                    </g>
                  </g>
                </g>
                <g id="Group_881458-2" data-name="Group 881458" transform="translate(19.048 0)">
                  <g id="Grupo_1068121" data-name="Grupo 1068121" transform="translate(0)">
                    <path id="Trazado_814221" data-name="Trazado 814221" d="M1.375,0A1.375,1.375,0,1,0,2.75,1.376,1.375,1.375,0,0,0,1.375,0Z" fill="#ff8e7c"/>
                    <g id="Grupo_1068120" data-name="Grupo 1068120" clip-path="url(#clip-path-6)">
                      <g id="Group_881457-2" data-name="Group 881457" transform="translate(0 0)">
                        <rect id="Rectangle_298911-2" data-name="Rectangle 298911" width="2.751" height="2.75" fill="#ff8e7c"/>
                      </g>
                    </g>
                  </g>
                </g>
                <g id="Group_881460-2" data-name="Group 881460" transform="translate(28.37 22.353)">
                  <g id="Grupo_1068123" data-name="Grupo 1068123" transform="translate(0 0)">
                    <path id="Trazado_814223" data-name="Trazado 814223" d="M0,1.376A1.375,1.375,0,1,0,1.375,0,1.375,1.375,0,0,0,0,1.376" fill="#ff8e7c"/>
                    <g id="Grupo_1068122" data-name="Grupo 1068122" clip-path="url(#clip-path-4)">
                      <g id="Group_881459-2" data-name="Group 881459" transform="translate(0 0)">
                        <rect id="Rectangle_298912-2" data-name="Rectangle 298912" width="2.751" height="2.751" fill="#ff8e7c"/>
                      </g>
                    </g>
                  </g>
                </g>
                <g id="Group_881462-2" data-name="Group 881462" transform="translate(28.37 11.634)">
                  <g id="Grupo_1068125" data-name="Grupo 1068125" transform="translate(0 0)">
                    <path id="Trazado_814225" data-name="Trazado 814225" d="M0,1.376A1.375,1.375,0,1,0,1.375,0,1.375,1.375,0,0,0,0,1.376" fill="#ff8e7c"/>
                    <g id="Grupo_1068124" data-name="Grupo 1068124" clip-path="url(#clip-path-4)">
                      <g id="Group_881461-2" data-name="Group 881461" transform="translate(0 0)">
                        <rect id="Rectangle_298913-2" data-name="Rectangle 298913" width="2.751" height="2.751" fill="#ff8e7c"/>
                      </g>
                    </g>
                  </g>
                </g>
                <g id="Group_881464-2" data-name="Group 881464" transform="translate(28.37 0)">
                  <g id="Grupo_1068127" data-name="Grupo 1068127" transform="translate(0)">
                    <path id="Trazado_814227" data-name="Trazado 814227" d="M1.375,0A1.375,1.375,0,1,0,2.75,1.376,1.375,1.375,0,0,0,1.375,0Z" fill="#ff8e7c"/>
                    <g id="Grupo_1068126" data-name="Grupo 1068126" clip-path="url(#clip-path-6)">
                      <g id="Group_881463-2" data-name="Group 881463" transform="translate(0 0)">
                        <rect id="Rectangle_298914-2" data-name="Rectangle 298914" width="2.751" height="2.75" fill="#ff8e7c"/>
                      </g>
                    </g>
                  </g>
                </g>
              </g>
              <g id="Grupo_1068153" data-name="Grupo 1068153" transform="translate(0 12.29)">
                <g id="Group_881454-3" data-name="Group 881454" transform="translate(0 27.192)">
                  <g id="Grupo_1068130" data-name="Grupo 1068130">
                    <path id="Trazado_814229" data-name="Trazado 814229" d="M1074.25,1088.088a1.673,1.673,0,1,0,1.673-1.674,1.673,1.673,0,0,0-1.673,1.674" transform="translate(-1074.25 -1086.414)" fill="#ffb476"/>
                    <g id="Grupo_1068129" data-name="Grupo 1068129" clip-path="url(#clip-path-13)">
                      <g id="Group_881453-3" data-name="Group 881453" transform="translate(0 0)">
                        <rect id="Rectangle_298909-3" data-name="Rectangle 298909" width="3.346" height="3.346" fill="#ffb476"/>
                      </g>
                    </g>
                  </g>
                </g>
                <g id="Group_881456-3" data-name="Group 881456" transform="translate(0 14.152)">
                  <g id="Grupo_1068132" data-name="Grupo 1068132">
                    <path id="Trazado_814231" data-name="Trazado 814231" d="M1074.25,1053.176a1.673,1.673,0,1,0,1.673-1.673h0a1.675,1.675,0,0,0-1.673,1.673" transform="translate(-1074.25 -1051.503)" fill="#ffb476"/>
                    <g id="Grupo_1068131" data-name="Grupo 1068131" clip-path="url(#clip-path-14)">
                      <g id="Group_881455-3" data-name="Group 881455" transform="translate(0 0)">
                        <rect id="Rectangle_298910-3" data-name="Rectangle 298910" width="3.346" height="3.346" fill="#ffb476"/>
                      </g>
                    </g>
                  </g>
                </g>
                <g id="Group_881458-3" data-name="Group 881458" transform="translate(0 0)">
                  <g id="Grupo_1068134" data-name="Grupo 1068134">
                    <path id="Trazado_814233" data-name="Trazado 814233" d="M1075.924,1013.613a1.673,1.673,0,1,0,1.673,1.674A1.673,1.673,0,0,0,1075.924,1013.613Z" transform="translate(-1074.251 -1013.613)" fill="#ffb476"/>
                    <g id="Grupo_1068133" data-name="Grupo 1068133" clip-path="url(#clip-path-15)">
                      <g id="Group_881457-3" data-name="Group 881457" transform="translate(0 0)">
                        <rect id="Rectangle_298911-3" data-name="Rectangle 298911" width="3.346" height="3.346" fill="#ffb476"/>
                      </g>
                    </g>
                  </g>
                </g>
                <g id="Group_881460-3" data-name="Group 881460" transform="translate(11.34 27.192)">
                  <g id="Grupo_1068136" data-name="Grupo 1068136">
                    <path id="Trazado_814235" data-name="Trazado 814235" d="M1104.611,1088.088a1.673,1.673,0,1,0,1.673-1.674,1.672,1.672,0,0,0-1.673,1.674" transform="translate(-1104.611 -1086.414)" fill="#ffb476"/>
                    <g id="Grupo_1068135" data-name="Grupo 1068135" clip-path="url(#clip-path-16)">
                      <g id="Group_881459-3" data-name="Group 881459" transform="translate(0 0)">
                        <rect id="Rectangle_298912-3" data-name="Rectangle 298912" width="3.346" height="3.346" fill="#ffb476"/>
                      </g>
                    </g>
                  </g>
                </g>
                <g id="Group_881462-3" data-name="Group 881462" transform="translate(11.34 14.152)">
                  <g id="Grupo_1068138" data-name="Grupo 1068138">
                    <path id="Trazado_814237" data-name="Trazado 814237" d="M1104.611,1053.176a1.673,1.673,0,1,0,1.673-1.673,1.673,1.673,0,0,0-1.673,1.673" transform="translate(-1104.611 -1051.503)" fill="#ffb476"/>
                    <g id="Grupo_1068137" data-name="Grupo 1068137" clip-path="url(#clip-path-17)">
                      <g id="Group_881461-3" data-name="Group 881461" transform="translate(0 0)">
                        <rect id="Rectangle_298913-3" data-name="Rectangle 298913" width="3.346" height="3.346" fill="#ffb476"/>
                      </g>
                    </g>
                  </g>
                </g>
                <g id="Group_881464-3" data-name="Group 881464" transform="translate(11.341 0)">
                  <g id="Grupo_1068140" data-name="Grupo 1068140">
                    <path id="Trazado_814239" data-name="Trazado 814239" d="M1106.285,1013.613a1.673,1.673,0,1,0,1.673,1.673A1.672,1.672,0,0,0,1106.285,1013.613Z" transform="translate(-1104.613 -1013.613)" fill="#ffb476"/>
                    <g id="Grupo_1068139" data-name="Grupo 1068139" clip-path="url(#clip-path-18)">
                      <g id="Group_881463-3" data-name="Group 881463" transform="translate(-0.001 0)">
                        <rect id="Rectangle_298914-3" data-name="Rectangle 298914" width="3.346" height="3.346" fill="#ffb476"/>
                      </g>
                    </g>
                  </g>
                </g>
                <g id="Group_881454-4" data-name="Group 881454" transform="translate(23.171 27.192)">
                  <g id="Grupo_1068142" data-name="Grupo 1068142">
                    <path id="Trazado_814241" data-name="Trazado 814241" d="M1136.285,1088.088a1.674,1.674,0,1,0,1.673-1.674,1.674,1.674,0,0,0-1.673,1.674" transform="translate(-1136.285 -1086.414)" fill="#ffb476"/>
                    <g id="Grupo_1068141" data-name="Grupo 1068141" clip-path="url(#clip-path-19)">
                      <g id="Group_881453-4" data-name="Group 881453" transform="translate(0 0)">
                        <rect id="Rectangle_298909-4" data-name="Rectangle 298909" width="3.346" height="3.346" fill="#ffb476"/>
                      </g>
                    </g>
                  </g>
                </g>
                <g id="Group_881456-4" data-name="Group 881456" transform="translate(23.171 14.152)">
                  <g id="Grupo_1068144" data-name="Grupo 1068144">
                    <path id="Trazado_814243" data-name="Trazado 814243" d="M1136.285,1053.176a1.674,1.674,0,1,0,1.674-1.673h0a1.676,1.676,0,0,0-1.673,1.673" transform="translate(-1136.285 -1051.503)" fill="#ffb476"/>
                    <g id="Grupo_1068143" data-name="Grupo 1068143" clip-path="url(#clip-path-20)">
                      <g id="Group_881455-4" data-name="Group 881455" transform="translate(0 0)">
                        <rect id="Rectangle_298910-4" data-name="Rectangle 298910" width="3.346" height="3.346" fill="#ffb476"/>
                      </g>
                    </g>
                  </g>
                </g>
                <g id="Group_881458-4" data-name="Group 881458" transform="translate(23.171 0)">
                  <g id="Grupo_1068146" data-name="Grupo 1068146">
                    <path id="Trazado_814245" data-name="Trazado 814245" d="M1137.959,1013.613a1.673,1.673,0,1,0,1.673,1.674A1.673,1.673,0,0,0,1137.959,1013.613Z" transform="translate(-1136.287 -1013.613)" fill="#ffb476"/>
                    <g id="Grupo_1068145" data-name="Grupo 1068145" clip-path="url(#clip-path-21)">
                      <g id="Group_881457-4" data-name="Group 881457" transform="translate(-0.001 0)">
                        <rect id="Rectangle_298911-4" data-name="Rectangle 298911" width="3.346" height="3.346" fill="#ffb476"/>
                      </g>
                    </g>
                  </g>
                </g>
                <g id="Group_881460-4" data-name="Group 881460" transform="translate(34.511 27.192)">
                  <g id="Grupo_1068148" data-name="Grupo 1068148">
                    <path id="Trazado_814247" data-name="Trazado 814247" d="M1166.647,1088.088a1.673,1.673,0,1,0,1.672-1.674,1.672,1.672,0,0,0-1.672,1.674" transform="translate(-1166.647 -1086.414)" fill="#ffb476"/>
                    <g id="Grupo_1068147" data-name="Grupo 1068147" clip-path="url(#clip-path-22)">
                      <g id="Group_881459-4" data-name="Group 881459" transform="translate(0 0)">
                        <rect id="Rectangle_298912-4" data-name="Rectangle 298912" width="3.346" height="3.346" fill="#ffb476"/>
                      </g>
                    </g>
                  </g>
                </g>
                <g id="Group_881462-4" data-name="Group 881462" transform="translate(34.511 14.152)">
                  <g id="Grupo_1068150" data-name="Grupo 1068150">
                    <path id="Trazado_814249" data-name="Trazado 814249" d="M1166.647,1053.176a1.673,1.673,0,1,0,1.672-1.673,1.672,1.672,0,0,0-1.672,1.673" transform="translate(-1166.647 -1051.503)" fill="#ffb476"/>
                    <g id="Grupo_1068149" data-name="Grupo 1068149" clip-path="url(#clip-path-23)">
                      <g id="Group_881461-4" data-name="Group 881461" transform="translate(0 0)">
                        <rect id="Rectangle_298913-4" data-name="Rectangle 298913" width="3.346" height="3.346" fill="#ffb476"/>
                      </g>
                    </g>
                  </g>
                </g>
                <g id="Group_881464-4" data-name="Group 881464" transform="translate(34.511 0)">
                  <g id="Grupo_1068152" data-name="Grupo 1068152">
                    <path id="Trazado_814251" data-name="Trazado 814251" d="M1168.32,1013.613a1.673,1.673,0,1,0,1.673,1.673A1.672,1.672,0,0,0,1168.32,1013.613Z" transform="translate(-1166.648 -1013.613)" fill="#ffb476"/>
                    <g id="Grupo_1068151" data-name="Grupo 1068151" clip-path="url(#clip-path-24)">
                      <g id="Group_881463-4" data-name="Group 881463" transform="translate(0 0)">
                        <rect id="Rectangle_298914-4" data-name="Rectangle 298914" width="3.346" height="3.346" fill="#ffb476"/>
                      </g>
                    </g>
                  </g>
                </g>
              </g>
              <rect id="Rect치ngulo_374064" data-name="Rect치ngulo 374064" width="5.919" height="31.089" rx="2.96" transform="translate(124.661 6.203) rotate(45)" fill="#ffb476"/>
              <rect id="Rect치ngulo_374066" data-name="Rect치ngulo 374066" width="3.992" height="26.272" rx="1.996" transform="translate(35.034 104.187) rotate(45)" fill="#ffb476"/>
            </g>
          </g>
        </g>
      </g>
      <g id="identificar" transform="translate(-5590.001 -8674.694)">
        <path id="Trazado_816957" data-name="Trazado 816957" d="M142.665,7.5a25.935,25.935,0,0,0-21.41,40.1,1.685,1.685,0,0,1-.215,2.116l-8.814,8.814,5.642,5.642,8.814-8.814a1.685,1.685,0,0,1,2.116-.215A25.932,25.932,0,1,0,142.665,7.5Z" transform="translate(-96.011 -6.417)" fill="#ffb476"/>
        <circle id="Elipse_9182" data-name="Elipse 9182" cx="19.947" cy="19.947" r="19.947" transform="translate(27.015 7.068)" fill="#f9f7f8"/>
        <path id="Trazado_816958" data-name="Trazado 816958" d="M261.753,55.065a19.953,19.953,0,0,1-17.587,35.227,19.949,19.949,0,1,0,17.587-35.227Z" transform="translate(-208.888 -47.109)" fill="#dff6fd"/>
        <path id="Trazado_816959" data-name="Trazado 816959" d="M260.337,104.139l-10.925,18.923h21.85Z" transform="translate(-213.376 -89.093)" fill="#fdb441"/>
        <path id="Trazado_816960" data-name="Trazado 816960" d="M32.114,342.129l-8.249-8.249a.151.151,0,0,0-.214,0L7.544,349.987a.152.152,0,0,0-.044.107v8.4h8.4a.151.151,0,0,0,.107-.044l16.107-16.107A.151.151,0,0,0,32.114,342.129Z" transform="translate(-6.416 -285.603)" fill="#2effc7"/>
        <g id="Grupo_1070259" data-name="Grupo 1070259" transform="translate(5.148 3.56)">
          <path id="Trazado_816961" data-name="Trazado 816961" d="M51.214,109.367l-5.793-1.5a1.995,1.995,0,1,1,1-3.862l5.793,1.5a1.995,1.995,0,0,1-1,3.862Z" transform="translate(-42.727 -92.483)" fill="#fe646f"/>
          <path id="Trazado_816962" data-name="Trazado 816962" d="M43.717,191.5l-5.973.366a1.995,1.995,0,1,1-.244-3.982l5.973-.366a1.995,1.995,0,0,1,.244,3.982Z" transform="translate(-35.628 -163.979)" fill="#fe646f"/>
          <path id="Trazado_816963" data-name="Trazado 816963" d="M86.574,28.171,81.53,24.952a1.995,1.995,0,1,0-2.146,3.363l5.044,3.219a1.995,1.995,0,1,0,2.146-3.363Z" transform="translate(-72.273 -24.639)" fill="#fe646f"/>
        </g>
        <path id="Trazado_816964" data-name="Trazado 816964" d="M81.931,361.447l-9.722-9.722a.178.178,0,0,1,0-.251l3.154-3.154a.178.178,0,0,1,.251,0l9.722,9.722a.178.178,0,0,1,0,.251l-3.154,3.154A.178.178,0,0,1,81.931,361.447Z" transform="translate(-61.731 -297.95)" fill="#c5d3dd"/>
        <path id="Trazado_816965" data-name="Trazado 816965" d="M200.5,83.477a21.03,21.03,0,1,0-21.03-21.03A21.054,21.054,0,0,0,200.5,83.477Zm0-39.893A18.863,18.863,0,1,1,181.64,62.447,18.884,18.884,0,0,1,200.5,43.584Z" transform="translate(-153.542 -35.433)"/>
        <path id="Trazado_816966" data-name="Trazado 816966" d="M243,117.729h21.85a1.084,1.084,0,0,0,.938-1.625l-1.959-3.394a1.084,1.084,0,1,0-1.877,1.084l1.021,1.768h-18.1l9.048-15.672,5.449,9.439a1.084,1.084,0,1,0,1.877-1.084L254.86,97.181a1.084,1.084,0,0,0-1.877,0L242.058,116.1a1.084,1.084,0,0,0,.938,1.625Z" transform="translate(-206.96 -82.676)"/>
        <path id="Trazado_816967" data-name="Trazado 816967" d="M319.7,152.946a1.084,1.084,0,1,0-2.167,0v2.978a1.084,1.084,0,1,0,2.167,0Z" transform="translate(-271.651 -129.921)"/>
        <circle id="Elipse_9183" data-name="Elipse 9183" cx="1.084" cy="1.084" r="1.084" transform="translate(45.876 28.82)"/>
        <path id="Trazado_816968" data-name="Trazado 816968" d="M38.734,102.5l5.793,1.5a3.078,3.078,0,1,0,1.543-5.96l-5.793-1.5a3.078,3.078,0,1,0-1.543,5.96Zm-.11-3.208a.911.911,0,0,1,1.11-.653l5.793,1.5a.911.911,0,1,1-.457,1.764l-5.793-1.5a.912.912,0,0,1-.653-1.11Z" transform="translate(-31.164 -82.504)"/>
        <path id="Trazado_816969" data-name="Trazado 816969" d="M31.394,186.526l5.973-.366h0a3.078,3.078,0,0,0-.376-6.145l-5.973.366a3.078,3.078,0,1,0,.376,6.145Zm-.87-3.676a.905.905,0,0,1,.627-.306l5.973-.366A.911.911,0,0,1,37.235,184l-5.973.366A.912.912,0,0,1,30.524,182.85Z" transform="translate(-24.063 -154.001)"/>
        <path id="Trazado_816970" data-name="Trazado 816970" d="M72.38,22.819l5.044,3.219a3.078,3.078,0,1,0,3.312-5.19l-5.044-3.219a3.078,3.078,0,0,0-3.312,5.19Zm.888-3.085a.912.912,0,0,1,1.258-.278l5.044,3.219a.911.911,0,1,1-.98,1.536l-5.044-3.219A.91.91,0,0,1,73.267,19.734Z" transform="translate(-60.703 -14.669)"/>
        <path id="Trazado_816971" data-name="Trazado 816971" d="M66.063,7.913a27.068,27.068,0,0,0-35.98-2.024,1.084,1.084,0,1,0,1.352,1.693,24.867,24.867,0,0,1,40.37,19.728A24.851,24.851,0,0,1,33.38,47.824a2.782,2.782,0,0,0-3.475.355L24.394,53.69l-4.109-4.109L25.8,44.07a2.781,2.781,0,0,0,.355-3.475A24.915,24.915,0,0,1,27.934,11a1.084,1.084,0,0,0-1.658-1.4,27.086,27.086,0,0,0-1.939,32.182.6.6,0,0,1-.074.756l-5.511,5.511-.538-.538a1.237,1.237,0,0,0-1.746,0L14.5,49.478a1.261,1.261,0,0,0-1.637.126L9.712,52.758a1.261,1.261,0,0,0-.126,1.637L.362,63.619A1.227,1.227,0,0,0,0,64.491v8.4a1.084,1.084,0,0,0,1.084,1.084h8.4a1.227,1.227,0,0,0,.873-.362l9.223-9.223a1.262,1.262,0,0,0,1.637-.126l3.154-3.154a1.262,1.262,0,0,0,.126-1.637l1.967-1.967a1.234,1.234,0,0,0,0-1.746l-.537-.537,5.511-5.511a.6.6,0,0,1,.756-.074A27.016,27.016,0,0,0,66.063,7.913ZM17.343,49.7l6.93,6.93-1.3,1.3L16.046,51Zm2.983,12.388L19.039,60.8a1.084,1.084,0,1,0-1.533,1.532l.532.532L9.1,71.807H2.168v-6.93l8.94-8.94,2.819,2.819a1.084,1.084,0,0,0,1.533-1.532L11.885,53.65l1.873-1.873L22.2,60.218Z" transform="translate(0)"/>
      </g>
    </g>
  </g>
</svg>
