<svg xmlns="http://www.w3.org/2000/svg" xmlns:xlink="http://www.w3.org/1999/xlink" width="619" height="803" viewBox="0 0 619 803">
  <defs>
    <clipPath id="clip-path">
      <rect id="Rectángulo_374484" data-name="Rectángulo 374484" width="58.548" height="55.4" fill="#083142"/>
    </clipPath>
    <clipPath id="clip-path-3">
      <rect id="Rectángulo_374484-3" data-name="Rectángulo 374484" width="38.91" height="36.818" fill="#2977d8"/>
    </clipPath>
    <clipPath id="clip-path-4">
      <rect id="Rectángulo_374484-4" data-name="Rectángulo 374484" width="38.91" height="36.818" fill="#083142"/>
    </clipPath>
    <clipPath id="clip-path-5">
      <rect id="Rectángulo_374484-5" data-name="Rectángulo 374484" width="38.91" height="36.818" fill="#ff6148"/>
    </clipPath>
  </defs>
  <g id="Grupo_1070559" data-name="Grupo 1070559" transform="translate(-495 -2492)">
    <path id="Trazado_817427" data-name="Trazado 817427" d="M0,0H619V803H0Z" transform="translate(495 2492)" fill="#eef1f2"/>
    <path id="Trazado_817428" data-name="Trazado 817428" d="M12,0H471a12,12,0,0,1,12,12V214a12,12,0,0,1-12,12H12A12,12,0,0,1,0,214V12A12,12,0,0,1,12,0Z" transform="translate(563 2534)" fill="#fff"/>
    <path id="Trazado_817429" data-name="Trazado 817429" d="M4867,11792h-94v-35h94v-20l65,37.5-65,37.5Z" transform="translate(-4049.182 -9167.25)" fill="#ffb476"/>
    <path id="Trazado_817430" data-name="Trazado 817430" d="M1.469,0V-11.2H4.563q5.922,0,5.922,5.461A5.5,5.5,0,0,1,8.84-1.574,6.1,6.1,0,0,1,4.438,0ZM2.781-10.016v8.828H4.453a4.745,4.745,0,0,0,3.43-1.18A4.422,4.422,0,0,0,9.109-5.711q0-4.3-4.578-4.3ZM20.969,0H19.516L18.328-3.141h-4.75L12.461,0H11l4.3-11.2h1.359ZM17.9-4.32,16.141-9.094a4.571,4.571,0,0,1-.172-.75h-.031a4.185,4.185,0,0,1-.18.75L14.016-4.32Zm10.2-5.7H24.859V0H23.547V-10.016H20.32V-11.2h7.773ZM33.625.188a4.918,4.918,0,0,1-3.816-1.57,5.824,5.824,0,0,1-1.434-4.086,6.171,6.171,0,0,1,1.461-4.312,5.1,5.1,0,0,1,3.977-1.609,4.807,4.807,0,0,1,3.738,1.563,5.845,5.845,0,0,1,1.418,4.086,6.191,6.191,0,0,1-1.453,4.336A5.008,5.008,0,0,1,33.625.188ZM33.719-10.2A3.612,3.612,0,0,0,30.852-8.93a4.93,4.93,0,0,0-1.1,3.344,4.964,4.964,0,0,0,1.074,3.332,3.5,3.5,0,0,0,2.8,1.262,3.678,3.678,0,0,0,2.906-1.2,4.917,4.917,0,0,0,1.063-3.367,5.138,5.138,0,0,0-1.031-3.43A3.536,3.536,0,0,0,33.719-10.2Zm6.93,9.75V-2a3,3,0,0,0,.637.422,5.159,5.159,0,0,0,.781.316,6.219,6.219,0,0,0,.824.2,4.6,4.6,0,0,0,.766.07,3,3,0,0,0,1.809-.449,1.52,1.52,0,0,0,.6-1.293,1.518,1.518,0,0,0-.2-.789,2.244,2.244,0,0,0-.551-.613,5.465,5.465,0,0,0-.832-.531Q44-4.922,43.445-5.2q-.586-.3-1.094-.6a4.739,4.739,0,0,1-.883-.672,2.8,2.8,0,0,1-.59-.832,2.575,2.575,0,0,1-.215-1.09A2.563,2.563,0,0,1,41-9.73a2.881,2.881,0,0,1,.883-.934,4,4,0,0,1,1.246-.547,5.706,5.706,0,0,1,1.426-.18,5.464,5.464,0,0,1,2.414.4v1.477a4.376,4.376,0,0,0-2.547-.687,4.189,4.189,0,0,0-.859.09,2.428,2.428,0,0,0-.766.293,1.7,1.7,0,0,0-.547.523,1.389,1.389,0,0,0-.211.781,1.608,1.608,0,0,0,.16.742,1.819,1.819,0,0,0,.473.57,4.708,4.708,0,0,0,.762.5q.449.242,1.035.531.6.3,1.141.625a5.213,5.213,0,0,1,.945.727,3.229,3.229,0,0,1,.645.883,2.482,2.482,0,0,1,.238,1.109,2.813,2.813,0,0,1-.324,1.4,2.661,2.661,0,0,1-.875.934,3.821,3.821,0,0,1-1.27.52,6.953,6.953,0,0,1-1.516.16A6.176,6.176,0,0,1,42.8.145Q42.406.1,42,.02a6.5,6.5,0,0,1-.77-.2A2.4,2.4,0,0,1,40.648-.453Z" transform="translate(748.818 2612.75)" fill="#12263f"/>
    <path id="base-de-datos" d="M84.64,0C62.933,0,40.96,5,40.96,14.56v.216C47.579,21.328,62.679,24.96,84.64,24.96s37.061-3.632,43.68-10.184V14.56C128.32,5,106.347,0,84.64,0M40.96,70.292V89.44C40.96,99,62.933,104,84.64,104s43.68-5,43.68-14.56V70.292c-7.193,4.9-20.251,8.748-43.68,8.748s-36.487-3.852-43.68-8.748m0-49.92V39.736C47.579,46.288,62.679,49.92,84.64,49.92s37.061-3.632,43.68-10.184V20.372c-7.193,4.9-20.251,8.748-43.68,8.748s-36.487-3.852-43.68-8.748M84.64,54.08c23.429,0,36.487-3.852,43.68-8.748V64.7C121.7,71.248,106.6,74.88,84.64,74.88S47.579,71.248,40.96,64.7V45.332c7.193,4.9,20.251,8.748,43.68,8.748" transform="translate(872.86 2571.75)" fill="#ff9400"/>
    <path id="Trazado_817431" data-name="Trazado 817431" d="M94,20H0V55H94V75l65-37.5L94,0Z" transform="translate(882.819 2705.75) rotate(180)" fill="#ffb476"/>
    <path id="Trazado_817432" data-name="Trazado 817432" d="M1.469,0V-11.2H4.563q5.922,0,5.922,5.461A5.5,5.5,0,0,1,8.84-1.574,6.1,6.1,0,0,1,4.438,0ZM2.781-10.016v8.828H4.453a4.745,4.745,0,0,0,3.43-1.18A4.422,4.422,0,0,0,9.109-5.711q0-4.3-4.578-4.3ZM20.969,0H19.516L18.328-3.141h-4.75L12.461,0H11l4.3-11.2h1.359ZM17.9-4.32,16.141-9.094a4.571,4.571,0,0,1-.172-.75h-.031a4.185,4.185,0,0,1-.18.75L14.016-4.32Zm10.2-5.7H24.859V0H23.547V-10.016H20.32V-11.2h7.773ZM33.625.188a4.918,4.918,0,0,1-3.816-1.57,5.824,5.824,0,0,1-1.434-4.086,6.171,6.171,0,0,1,1.461-4.312,5.1,5.1,0,0,1,3.977-1.609,4.807,4.807,0,0,1,3.738,1.563,5.845,5.845,0,0,1,1.418,4.086,6.191,6.191,0,0,1-1.453,4.336A5.008,5.008,0,0,1,33.625.188ZM33.719-10.2A3.612,3.612,0,0,0,30.852-8.93a4.93,4.93,0,0,0-1.1,3.344,4.964,4.964,0,0,0,1.074,3.332,3.5,3.5,0,0,0,2.8,1.262,3.678,3.678,0,0,0,2.906-1.2,4.917,4.917,0,0,0,1.063-3.367,5.138,5.138,0,0,0-1.031-3.43A3.536,3.536,0,0,0,33.719-10.2Zm6.93,9.75V-2a3,3,0,0,0,.637.422,5.159,5.159,0,0,0,.781.316,6.219,6.219,0,0,0,.824.2,4.6,4.6,0,0,0,.766.07,3,3,0,0,0,1.809-.449,1.52,1.52,0,0,0,.6-1.293,1.518,1.518,0,0,0-.2-.789,2.244,2.244,0,0,0-.551-.613,5.465,5.465,0,0,0-.832-.531Q44-4.922,43.445-5.2q-.586-.3-1.094-.6a4.739,4.739,0,0,1-.883-.672,2.8,2.8,0,0,1-.59-.832,2.575,2.575,0,0,1-.215-1.09A2.563,2.563,0,0,1,41-9.73a2.881,2.881,0,0,1,.883-.934,4,4,0,0,1,1.246-.547,5.706,5.706,0,0,1,1.426-.18,5.464,5.464,0,0,1,2.414.4v1.477a4.376,4.376,0,0,0-2.547-.687,4.189,4.189,0,0,0-.859.09,2.428,2.428,0,0,0-.766.293,1.7,1.7,0,0,0-.547.523,1.389,1.389,0,0,0-.211.781,1.608,1.608,0,0,0,.16.742,1.819,1.819,0,0,0,.473.57,4.708,4.708,0,0,0,.762.5q.449.242,1.035.531.6.3,1.141.625a5.213,5.213,0,0,1,.945.727,3.229,3.229,0,0,1,.645.883,2.482,2.482,0,0,1,.238,1.109,2.813,2.813,0,0,1-.324,1.4,2.661,2.661,0,0,1-.875.934,3.821,3.821,0,0,1-1.27.52,6.953,6.953,0,0,1-1.516.16A6.176,6.176,0,0,1,42.8.145Q42.406.1,42,.02a6.5,6.5,0,0,1-.77-.2A2.4,2.4,0,0,1,40.648-.453Z" transform="translate(798.818 2673.75)" fill="#12263f"/>
    <path id="Trazado_817433" data-name="Trazado 817433" d="M6.016.2A5.215,5.215,0,0,1,2.094-1.371,5.624,5.624,0,0,1,.578-5.453a6.026,6.026,0,0,1,1.539-4.3A5.328,5.328,0,0,1,6.2-11.391a5.085,5.085,0,0,1,3.879,1.57,5.79,5.79,0,0,1,1.48,4.141A5.929,5.929,0,0,1,10.02-1.422,5.269,5.269,0,0,1,6.016.2Zm.109-9.414a2.54,2.54,0,0,0-2.109,1,4.153,4.153,0,0,0-.781,2.637,4.077,4.077,0,0,0,.781,2.633,2.5,2.5,0,0,0,2.047.969,2.528,2.528,0,0,0,2.07-.941A4.032,4.032,0,0,0,8.9-5.539,4.369,4.369,0,0,0,8.156-8.25,2.42,2.42,0,0,0,6.125-9.219ZM20.086,0H13.414V-11.2h2.523v9.156h4.148Zm8.32-9.148h-3.2V0H22.68V-9.148H19.5V-11.2h8.906Zm4.031,5.289V0H29.914V-11.2h3.953q4.234,0,4.234,3.57A3.426,3.426,0,0,1,36.887-4.9a4.813,4.813,0,0,1-3.246,1.043Zm0-5.406v3.492h.992q2.016,0,2.016-1.766,0-1.727-2.016-1.727Z" transform="translate(938.82 2720.25)" fill="#12263f"/>
    <path id="Trazado_817434" data-name="Trazado 817434" d="M12,0H471a12,12,0,0,1,12,12V214a12,12,0,0,1-12,12H12A12,12,0,0,1,0,214V12A12,12,0,0,1,12,0Z" transform="translate(563 2779)" fill="#fff"/>
    <g id="Grupo_1070377" data-name="Grupo 1070377" transform="translate(626.112 2845.473)">
      <g id="Grupo_1070375" data-name="Grupo 1070375" clip-path="url(#clip-path)">
        <path id="Trazado_817112" data-name="Trazado 817112" d="M656.884,483.014H639.572a2.317,2.317,0,0,0,0,4.633h15v20.706a2.317,2.317,0,1,0,4.633,0V485.331a2.317,2.317,0,0,0-2.317-2.317" transform="translate(-600.653 -455.271)" fill="#083142"/>
        <path id="Trazado_817113" data-name="Trazado 817113" d="M281.582,13.317a6.678,6.678,0,1,0-5.915-7.361,6.678,6.678,0,0,0,5.915,7.361" transform="translate(-259.795 -0.001)" fill="#083142"/>
        <path id="Trazado_817114" data-name="Trazado 817114" d="M22.1,296.926H12.477a4.651,4.651,0,0,1-4.585-3.846L4.6,274.476a2.317,2.317,0,0,0-4.563.808l3.293,18.6a9.279,9.279,0,0,0,9.148,7.671h7.988v8.43a2.317,2.317,0,1,0,4.633,0V299.926a3,3,0,0,0-3-3" transform="translate(0 -256.906)" fill="#083142"/>
        <path id="Trazado_817115" data-name="Trazado 817115" d="M209.075,268.674H203l1.581-7.226,4.285,2.066a3.083,3.083,0,0,0,1.341.306c.047,0,.094,0,.139,0l6.467-.29a3.089,3.089,0,0,0-.276-6.172l-5.689.255s-6.473-3.378-7.271-3.565c-.9-.211-4.575-1.011-4.575-1.011a4.928,4.928,0,0,0-5.875,3.813l-2.7,12.957a4.812,4.812,0,0,0,4.713,5.8h10.722a1.252,1.252,0,0,1,1.252,1.252V290.2a3.463,3.463,0,0,0,6.926,0V273.642a4.967,4.967,0,0,0-4.968-4.968" transform="translate(-179.395 -238.393)" fill="#083142"/>
        <path id="Trazado_817116" data-name="Trazado 817116" d="M762.014,89.583l2.421.314a.866.866,0,0,0,.97-.748l.569-4.4L768.23,86.1v6.774h-1.217a1.544,1.544,0,0,0,0,3.089h5.525a1.544,1.544,0,0,0,0-3.089h-1.219v-7.65a1.545,1.545,0,0,0-.751-1.326L766.4,81.411l.745-5.757a.865.865,0,0,0-.748-.97l-2.419-.314a.865.865,0,0,0-.97.748l-1.747,13.5a.867.867,0,0,0,.748.97" transform="translate(-717.534 -70.091)" fill="#083142"/>
      </g>
    </g>
    <path id="Trazado_817435" data-name="Trazado 817435" d="M4867,11792h-94v-35h94v-20l65,37.5-65,37.5Z" transform="translate(-4049.182 -8922.25)" fill="#ffb476"/>
    <path id="Trazado_817436" data-name="Trazado 817436" d="M1.469,0V-11.2H4.563q5.922,0,5.922,5.461A5.5,5.5,0,0,1,8.84-1.574,6.1,6.1,0,0,1,4.438,0ZM2.781-10.016v8.828H4.453a4.745,4.745,0,0,0,3.43-1.18A4.422,4.422,0,0,0,9.109-5.711q0-4.3-4.578-4.3ZM20.969,0H19.516L18.328-3.141h-4.75L12.461,0H11l4.3-11.2h1.359ZM17.9-4.32,16.141-9.094a4.571,4.571,0,0,1-.172-.75h-.031a4.185,4.185,0,0,1-.18.75L14.016-4.32Zm10.2-5.7H24.859V0H23.547V-10.016H20.32V-11.2h7.773ZM33.625.188a4.918,4.918,0,0,1-3.816-1.57,5.824,5.824,0,0,1-1.434-4.086,6.171,6.171,0,0,1,1.461-4.312,5.1,5.1,0,0,1,3.977-1.609,4.807,4.807,0,0,1,3.738,1.563,5.845,5.845,0,0,1,1.418,4.086,6.191,6.191,0,0,1-1.453,4.336A5.008,5.008,0,0,1,33.625.188ZM33.719-10.2A3.612,3.612,0,0,0,30.852-8.93a4.93,4.93,0,0,0-1.1,3.344,4.964,4.964,0,0,0,1.074,3.332,3.5,3.5,0,0,0,2.8,1.262,3.678,3.678,0,0,0,2.906-1.2,4.917,4.917,0,0,0,1.063-3.367,5.138,5.138,0,0,0-1.031-3.43A3.536,3.536,0,0,0,33.719-10.2Zm6.93,9.75V-2a3,3,0,0,0,.637.422,5.159,5.159,0,0,0,.781.316,6.219,6.219,0,0,0,.824.2,4.6,4.6,0,0,0,.766.07,3,3,0,0,0,1.809-.449,1.52,1.52,0,0,0,.6-1.293,1.518,1.518,0,0,0-.2-.789,2.244,2.244,0,0,0-.551-.613,5.465,5.465,0,0,0-.832-.531Q44-4.922,43.445-5.2q-.586-.3-1.094-.6a4.739,4.739,0,0,1-.883-.672,2.8,2.8,0,0,1-.59-.832,2.575,2.575,0,0,1-.215-1.09A2.563,2.563,0,0,1,41-9.73a2.881,2.881,0,0,1,.883-.934,4,4,0,0,1,1.246-.547,5.706,5.706,0,0,1,1.426-.18,5.464,5.464,0,0,1,2.414.4v1.477a4.376,4.376,0,0,0-2.547-.687,4.189,4.189,0,0,0-.859.09,2.428,2.428,0,0,0-.766.293,1.7,1.7,0,0,0-.547.523,1.389,1.389,0,0,0-.211.781,1.608,1.608,0,0,0,.16.742,1.819,1.819,0,0,0,.473.57,4.708,4.708,0,0,0,.762.5q.449.242,1.035.531.6.3,1.141.625a5.213,5.213,0,0,1,.945.727,3.229,3.229,0,0,1,.645.883,2.482,2.482,0,0,1,.238,1.109,2.813,2.813,0,0,1-.324,1.4,2.661,2.661,0,0,1-.875.934,3.821,3.821,0,0,1-1.27.52,6.953,6.953,0,0,1-1.516.16A6.176,6.176,0,0,1,42.8.145Q42.406.1,42,.02a6.5,6.5,0,0,1-.77-.2A2.4,2.4,0,0,1,40.648-.453Z" transform="translate(748.818 2857.75)" fill="#12263f"/>
    <path id="base-de-datos-2" data-name="base-de-datos" d="M84.64,0C62.933,0,40.96,5,40.96,14.56v.216C47.579,21.328,62.679,24.96,84.64,24.96s37.061-3.632,43.68-10.184V14.56C128.32,5,106.347,0,84.64,0M40.96,70.292V89.44C40.96,99,62.933,104,84.64,104s43.68-5,43.68-14.56V70.292c-7.193,4.9-20.251,8.748-43.68,8.748s-36.487-3.852-43.68-8.748m0-49.92V39.736C47.579,46.288,62.679,49.92,84.64,49.92s37.061-3.632,43.68-10.184V20.372c-7.193,4.9-20.251,8.748-43.68,8.748s-36.487-3.852-43.68-8.748M84.64,54.08c23.429,0,36.487-3.852,43.68-8.748V64.7C121.7,71.248,106.6,74.88,84.64,74.88S47.579,71.248,40.96,64.7V45.332c7.193,4.9,20.251,8.748,43.68,8.748" transform="translate(872.86 2816.75)" fill="#ff9400"/>
    <path id="Trazado_817437" data-name="Trazado 817437" d="M94,20H0V55H94V75l65-37.5L94,0Z" transform="translate(882.819 2950.75) rotate(180)" fill="#ffb476"/>
    <path id="Trazado_817438" data-name="Trazado 817438" d="M1.469,0V-11.2H4.563q5.922,0,5.922,5.461A5.5,5.5,0,0,1,8.84-1.574,6.1,6.1,0,0,1,4.438,0ZM2.781-10.016v8.828H4.453a4.745,4.745,0,0,0,3.43-1.18A4.422,4.422,0,0,0,9.109-5.711q0-4.3-4.578-4.3ZM20.969,0H19.516L18.328-3.141h-4.75L12.461,0H11l4.3-11.2h1.359ZM17.9-4.32,16.141-9.094a4.571,4.571,0,0,1-.172-.75h-.031a4.185,4.185,0,0,1-.18.75L14.016-4.32Zm10.2-5.7H24.859V0H23.547V-10.016H20.32V-11.2h7.773ZM33.625.188a4.918,4.918,0,0,1-3.816-1.57,5.824,5.824,0,0,1-1.434-4.086,6.171,6.171,0,0,1,1.461-4.312,5.1,5.1,0,0,1,3.977-1.609,4.807,4.807,0,0,1,3.738,1.563,5.845,5.845,0,0,1,1.418,4.086,6.191,6.191,0,0,1-1.453,4.336A5.008,5.008,0,0,1,33.625.188ZM33.719-10.2A3.612,3.612,0,0,0,30.852-8.93a4.93,4.93,0,0,0-1.1,3.344,4.964,4.964,0,0,0,1.074,3.332,3.5,3.5,0,0,0,2.8,1.262,3.678,3.678,0,0,0,2.906-1.2,4.917,4.917,0,0,0,1.063-3.367,5.138,5.138,0,0,0-1.031-3.43A3.536,3.536,0,0,0,33.719-10.2Zm6.93,9.75V-2a3,3,0,0,0,.637.422,5.159,5.159,0,0,0,.781.316,6.219,6.219,0,0,0,.824.2,4.6,4.6,0,0,0,.766.07,3,3,0,0,0,1.809-.449,1.52,1.52,0,0,0,.6-1.293,1.518,1.518,0,0,0-.2-.789,2.244,2.244,0,0,0-.551-.613,5.465,5.465,0,0,0-.832-.531Q44-4.922,43.445-5.2q-.586-.3-1.094-.6a4.739,4.739,0,0,1-.883-.672,2.8,2.8,0,0,1-.59-.832,2.575,2.575,0,0,1-.215-1.09A2.563,2.563,0,0,1,41-9.73a2.881,2.881,0,0,1,.883-.934,4,4,0,0,1,1.246-.547,5.706,5.706,0,0,1,1.426-.18,5.464,5.464,0,0,1,2.414.4v1.477a4.376,4.376,0,0,0-2.547-.687,4.189,4.189,0,0,0-.859.09,2.428,2.428,0,0,0-.766.293,1.7,1.7,0,0,0-.547.523,1.389,1.389,0,0,0-.211.781,1.608,1.608,0,0,0,.16.742,1.819,1.819,0,0,0,.473.57,4.708,4.708,0,0,0,.762.5q.449.242,1.035.531.6.3,1.141.625a5.213,5.213,0,0,1,.945.727,3.229,3.229,0,0,1,.645.883,2.482,2.482,0,0,1,.238,1.109,2.813,2.813,0,0,1-.324,1.4,2.661,2.661,0,0,1-.875.934,3.821,3.821,0,0,1-1.27.52,6.953,6.953,0,0,1-1.516.16A6.176,6.176,0,0,1,42.8.145Q42.406.1,42,.02a6.5,6.5,0,0,1-.77-.2A2.4,2.4,0,0,1,40.648-.453Z" transform="translate(798.818 2918.75)" fill="#12263f"/>
    <path id="Trazado_817439" data-name="Trazado 817439" d="M6.016.2A5.215,5.215,0,0,1,2.094-1.371,5.624,5.624,0,0,1,.578-5.453a6.026,6.026,0,0,1,1.539-4.3A5.328,5.328,0,0,1,6.2-11.391a5.085,5.085,0,0,1,3.879,1.57,5.79,5.79,0,0,1,1.48,4.141A5.929,5.929,0,0,1,10.02-1.422,5.269,5.269,0,0,1,6.016.2Zm.109-9.414a2.54,2.54,0,0,0-2.109,1,4.153,4.153,0,0,0-.781,2.637,4.077,4.077,0,0,0,.781,2.633,2.5,2.5,0,0,0,2.047.969,2.528,2.528,0,0,0,2.07-.941A4.032,4.032,0,0,0,8.9-5.539,4.369,4.369,0,0,0,8.156-8.25,2.42,2.42,0,0,0,6.125-9.219ZM20.086,0H13.414V-11.2h2.523v9.156h4.148Zm8.32-9.148h-3.2V0H22.68V-9.148H19.5V-11.2h8.906Zm4.031,5.289V0H29.914V-11.2h3.953q4.234,0,4.234,3.57A3.426,3.426,0,0,1,36.887-4.9a4.813,4.813,0,0,1-3.246,1.043Zm0-5.406v3.492h.992q2.016,0,2.016-1.766,0-1.727-2.016-1.727Z" transform="translate(938.82 2965.25)" fill="#12263f"/>
    <path id="Trazado_817440" data-name="Trazado 817440" d="M8.094-10.016H4.859V0H3.547V-10.016H.32V-11.2H8.094ZM13.609,0H12.328V-1.25H12.3A2.682,2.682,0,0,1,9.836.188,2.63,2.63,0,0,1,7.965-.445a2.192,2.192,0,0,1-.676-1.68q0-2.242,2.641-2.609l2.4-.336q0-2.039-1.648-2.039a3.938,3.938,0,0,0-2.609.984V-7.437a4.958,4.958,0,0,1,2.719-.75q2.82,0,2.82,2.984ZM12.328-4.047l-1.93.266a3.133,3.133,0,0,0-1.344.441A1.273,1.273,0,0,0,8.6-2.219a1.221,1.221,0,0,0,.418.957,1.615,1.615,0,0,0,1.113.371,2.056,2.056,0,0,0,1.574-.668,2.387,2.387,0,0,0,.621-1.691ZM17.3,0H16.023V-11.844H17.3Zm9.023-3.68H20.68A2.992,2.992,0,0,0,21.4-1.617a2.478,2.478,0,0,0,1.891.727,3.931,3.931,0,0,0,2.484-.891v1.2a4.643,4.643,0,0,1-2.789.766A3.381,3.381,0,0,1,20.32-.9a4.461,4.461,0,0,1-.969-3.066A4.375,4.375,0,0,1,20.41-7.012a3.394,3.394,0,0,1,2.629-1.176,3.008,3.008,0,0,1,2.43,1.016,4.234,4.234,0,0,1,.859,2.82ZM25.016-4.766a2.607,2.607,0,0,0-.535-1.727,1.823,1.823,0,0,0-1.465-.617,2.07,2.07,0,0,0-1.539.648,2.943,2.943,0,0,0-.781,1.7ZM34.906,0H33.625V-4.562q0-2.547-1.859-2.547a2.017,2.017,0,0,0-1.59.723,2.679,2.679,0,0,0-.629,1.824V0H28.266V-8h1.281v1.328h.031A2.887,2.887,0,0,1,32.2-8.187a2.448,2.448,0,0,1,2.008.848,3.776,3.776,0,0,1,.7,2.449Zm6.125-.078a2.47,2.47,0,0,1-1.2.25q-2.1,0-2.1-2.344V-6.906H36.359V-8h1.375V-9.953l1.281-.414V-8h2.016v1.094H39.016V-2.4a1.869,1.869,0,0,0,.273,1.148,1.091,1.091,0,0,0,.906.344,1.347,1.347,0,0,0,.836-.266Zm5.055.266A3.711,3.711,0,0,1,43.254-.934,4.153,4.153,0,0,1,42.2-3.906a4.326,4.326,0,0,1,1.1-3.148,3.96,3.96,0,0,1,2.977-1.133,3.588,3.588,0,0,1,2.793,1.1,4.368,4.368,0,0,1,1,3.055A4.3,4.3,0,0,1,48.988-.965,3.791,3.791,0,0,1,46.086.188Zm.094-7.3a2.437,2.437,0,0,0-1.953.84,3.449,3.449,0,0,0-.719,2.316,3.262,3.262,0,0,0,.727,2.242,2.469,2.469,0,0,0,1.945.82,2.342,2.342,0,0,0,1.91-.8,3.492,3.492,0,0,0,.668-2.289A3.552,3.552,0,0,0,48.09-6.3,2.332,2.332,0,0,0,46.18-7.109ZM63.141,0H61.859V-4.609q0-2.5-1.859-2.5a2.027,2.027,0,0,0-1.578.723,2.693,2.693,0,0,0-.641,1.855V0H56.5V-11.844h1.281v5.172h.031a2.91,2.91,0,0,1,2.625-1.516q2.7,0,2.7,3.258Zm8.883,0H70.742V-1.266h-.031A2.631,2.631,0,0,1,68.242.188q-2.859,0-2.859-3.406V-8h1.273v4.578q0,2.531,1.938,2.531a1.96,1.96,0,0,0,1.543-.691,2.645,2.645,0,0,0,.605-1.809V-8h1.281ZM85.969,0H84.688V-4.594a3.466,3.466,0,0,0-.41-1.922A1.555,1.555,0,0,0,82.9-7.109a1.708,1.708,0,0,0-1.395.75,2.869,2.869,0,0,0-.574,1.8V0H79.648V-4.75q0-2.359-1.82-2.359a1.686,1.686,0,0,0-1.391.707,2.923,2.923,0,0,0-.547,1.84V0H74.609V-8h1.281v1.266h.031a2.718,2.718,0,0,1,2.484-1.453,2.316,2.316,0,0,1,1.43.457,2.3,2.3,0,0,1,.836,1.2,2.855,2.855,0,0,1,2.656-1.656q2.641,0,2.641,3.258Zm8.148,0H92.836V-1.25H92.8A2.682,2.682,0,0,1,90.344.188a2.63,2.63,0,0,1-1.871-.633,2.192,2.192,0,0,1-.676-1.68q0-2.242,2.641-2.609l2.4-.336q0-2.039-1.648-2.039a3.938,3.938,0,0,0-2.609.984V-7.437a4.958,4.958,0,0,1,2.719-.75q2.82,0,2.82,2.984ZM92.836-4.047l-1.93.266a3.133,3.133,0,0,0-1.344.441,1.273,1.273,0,0,0-.453,1.121,1.221,1.221,0,0,0,.418.957,1.615,1.615,0,0,0,1.113.371,2.056,2.056,0,0,0,1.574-.668,2.387,2.387,0,0,0,.621-1.691ZM103.172,0h-1.281V-4.562q0-2.547-1.859-2.547a2.017,2.017,0,0,0-1.59.723,2.679,2.679,0,0,0-.629,1.824V0H96.531V-8h1.281v1.328h.031a2.887,2.887,0,0,1,2.625-1.516,2.448,2.448,0,0,1,2.008.848,3.776,3.776,0,0,1,.7,2.449Zm5.758.188A3.711,3.711,0,0,1,106.1-.934a4.153,4.153,0,0,1-1.059-2.973,4.326,4.326,0,0,1,1.1-3.148,3.96,3.96,0,0,1,2.977-1.133,3.588,3.588,0,0,1,2.793,1.1,4.368,4.368,0,0,1,1,3.055,4.3,4.3,0,0,1-1.082,3.066A3.791,3.791,0,0,1,108.93.188Zm.094-7.3a2.437,2.437,0,0,0-1.953.84,3.449,3.449,0,0,0-.719,2.316,3.262,3.262,0,0,0,.727,2.242,2.469,2.469,0,0,0,1.945.82,2.342,2.342,0,0,0,1.91-.8,3.492,3.492,0,0,0,.668-2.289,3.552,3.552,0,0,0-.668-2.312A2.332,2.332,0,0,0,109.023-7.109Z" transform="translate(610 2729.75)" fill="#12263f"/>
    <path id="Trazado_817441" data-name="Trazado 817441" d="M7.156-10.016H2.781v3.875H6.828v1.18H2.781V0H1.469V-11.2H7.156Zm2.609-.016a.812.812,0,0,1-.586-.234.791.791,0,0,1-.242-.594.8.8,0,0,1,.242-.6.8.8,0,0,1,.586-.238.827.827,0,0,1,.6.238.8.8,0,0,1,.246.6.792.792,0,0,1-.246.586A.82.82,0,0,1,9.766-10.031ZM10.391,0H9.109V-8h1.281Zm9.234,0H18.344V-4.562q0-2.547-1.859-2.547a2.017,2.017,0,0,0-1.59.723,2.679,2.679,0,0,0-.629,1.824V0H12.984V-8h1.281v1.328H14.3a2.887,2.887,0,0,1,2.625-1.516,2.448,2.448,0,0,1,2.008.848,3.776,3.776,0,0,1,.7,2.449Zm8.141,0H26.484V-1.25h-.031A2.682,2.682,0,0,1,23.992.188a2.63,2.63,0,0,1-1.871-.633,2.192,2.192,0,0,1-.676-1.68q0-2.242,2.641-2.609l2.4-.336q0-2.039-1.648-2.039a3.938,3.938,0,0,0-2.609.984V-7.437a4.958,4.958,0,0,1,2.719-.75q2.82,0,2.82,2.984ZM26.484-4.047l-1.93.266a3.133,3.133,0,0,0-1.344.441,1.273,1.273,0,0,0-.453,1.121,1.221,1.221,0,0,0,.418.957,1.615,1.615,0,0,0,1.113.371,2.056,2.056,0,0,0,1.574-.668,2.387,2.387,0,0,0,.621-1.691ZM36.82,0H35.539V-4.562q0-2.547-1.859-2.547a2.017,2.017,0,0,0-1.59.723,2.679,2.679,0,0,0-.629,1.824V0H30.18V-8h1.281v1.328h.031a2.887,2.887,0,0,1,2.625-1.516,2.448,2.448,0,0,1,2.008.848,3.776,3.776,0,0,1,.7,2.449Zm7.992-7.633L40.078-1.094h4.688V0H38.2V-.4L42.93-6.906H38.641V-8h6.172ZM52.2,0H50.914V-1.25h-.031A2.682,2.682,0,0,1,48.422.188a2.63,2.63,0,0,1-1.871-.633,2.192,2.192,0,0,1-.676-1.68q0-2.242,2.641-2.609l2.4-.336q0-2.039-1.648-2.039a3.938,3.938,0,0,0-2.609.984V-7.437a4.958,4.958,0,0,1,2.719-.75q2.82,0,2.82,2.984ZM50.914-4.047l-1.93.266a3.133,3.133,0,0,0-1.344.441,1.273,1.273,0,0,0-.453,1.121,1.221,1.221,0,0,0,.418.957,1.615,1.615,0,0,0,1.113.371,2.056,2.056,0,0,0,1.574-.668,2.387,2.387,0,0,0,.621-1.691ZM54.125-.289V-1.664a3.792,3.792,0,0,0,2.3.773q1.688,0,1.688-1.125a.976.976,0,0,0-.145-.543,1.44,1.44,0,0,0-.391-.395A3.007,3.007,0,0,0,57-3.262q-.332-.137-.715-.285a9.207,9.207,0,0,1-.934-.426,2.82,2.82,0,0,1-.672-.484,1.8,1.8,0,0,1-.406-.613,2.17,2.17,0,0,1-.137-.8,1.912,1.912,0,0,1,.258-1,2.286,2.286,0,0,1,.688-.727,3.206,3.206,0,0,1,.98-.441A4.349,4.349,0,0,1,57.2-8.187a4.59,4.59,0,0,1,1.859.359v1.3a3.624,3.624,0,0,0-2.031-.578,2.374,2.374,0,0,0-.648.082,1.587,1.587,0,0,0-.5.23,1.065,1.065,0,0,0-.32.355.936.936,0,0,0-.113.457,1.1,1.1,0,0,0,.113.523,1.152,1.152,0,0,0,.332.375,2.538,2.538,0,0,0,.531.3q.312.133.711.289a9.894,9.894,0,0,1,.953.418,3.269,3.269,0,0,1,.719.484,1.893,1.893,0,0,1,.457.621,2,2,0,0,1,.16.836,1.971,1.971,0,0,1-.262,1.031,2.243,2.243,0,0,1-.7.727,3.2,3.2,0,0,1-1.008.43,4.976,4.976,0,0,1-1.2.141A4.539,4.539,0,0,1,54.125-.289ZM72.148-8l-3.68,9.281Q67.484,3.766,65.7,3.766a2.932,2.932,0,0,1-.836-.1V2.516a2.375,2.375,0,0,0,.758.141A1.57,1.57,0,0,0,67.078,1.5l.641-1.516L64.594-8h1.422L68.18-1.844q.039.117.164.609h.047q.039-.187.156-.594L70.82-8ZM83.359-.367a4.163,4.163,0,0,1-2.187.555A3.622,3.622,0,0,1,78.41-.926a4.035,4.035,0,0,1-1.051-2.887,4.435,4.435,0,0,1,1.133-3.176,3.963,3.963,0,0,1,3.023-1.2,4.209,4.209,0,0,1,1.859.391v1.313a3.258,3.258,0,0,0-1.906-.625,2.576,2.576,0,0,0-2.012.879,3.335,3.335,0,0,0-.785,2.309A3.176,3.176,0,0,0,79.41-1.7a2.545,2.545,0,0,0,1.98.813,3.211,3.211,0,0,0,1.969-.7Zm5.281.555A3.711,3.711,0,0,1,85.809-.934,4.153,4.153,0,0,1,84.75-3.906a4.326,4.326,0,0,1,1.1-3.148,3.96,3.96,0,0,1,2.977-1.133,3.588,3.588,0,0,1,2.793,1.1,4.368,4.368,0,0,1,1,3.055A4.3,4.3,0,0,1,91.543-.965,3.791,3.791,0,0,1,88.641.188Zm.094-7.3a2.437,2.437,0,0,0-1.953.84,3.449,3.449,0,0,0-.719,2.316,3.262,3.262,0,0,0,.727,2.242,2.469,2.469,0,0,0,1.945.82,2.342,2.342,0,0,0,1.91-.8,3.492,3.492,0,0,0,.668-2.289A3.552,3.552,0,0,0,90.645-6.3,2.332,2.332,0,0,0,88.734-7.109ZM101.313,0h-1.281V-4.562q0-2.547-1.859-2.547a2.017,2.017,0,0,0-1.59.723,2.679,2.679,0,0,0-.629,1.824V0H94.672V-8h1.281v1.328h.031a2.887,2.887,0,0,1,2.625-1.516,2.448,2.448,0,0,1,2.008.848,3.776,3.776,0,0,1,.7,2.449Zm6.125-.078a2.47,2.47,0,0,1-1.2.25q-2.1,0-2.1-2.344V-6.906h-1.375V-8h1.375V-9.953l1.281-.414V-8h2.016v1.094h-2.016V-2.4A1.869,1.869,0,0,0,105.7-1.25a1.091,1.091,0,0,0,.906.344,1.347,1.347,0,0,0,.836-.266ZM114.875,0h-1.281V-1.25h-.031A2.682,2.682,0,0,1,111.1.188a2.63,2.63,0,0,1-1.871-.633,2.192,2.192,0,0,1-.676-1.68q0-2.242,2.641-2.609l2.4-.336q0-2.039-1.648-2.039a3.938,3.938,0,0,0-2.609.984V-7.437a4.958,4.958,0,0,1,2.719-.75q2.82,0,2.82,2.984Zm-1.281-4.047-1.93.266a3.133,3.133,0,0,0-1.344.441,1.273,1.273,0,0,0-.453,1.121,1.221,1.221,0,0,0,.418.957,1.615,1.615,0,0,0,1.113.371,2.056,2.056,0,0,0,1.574-.668,2.387,2.387,0,0,0,.621-1.691ZM118.6-1.156h-.031V0h-1.281V-11.844h1.281v5.25h.031a3.03,3.03,0,0,1,2.766-1.594,2.932,2.932,0,0,1,2.41,1.074,4.436,4.436,0,0,1,.871,2.879,4.959,4.959,0,0,1-.977,3.215A3.251,3.251,0,0,1,121,.188,2.631,2.631,0,0,1,118.6-1.156Zm-.031-3.227v1.117a2.379,2.379,0,0,0,.645,1.684,2.14,2.14,0,0,0,1.637.691,2.145,2.145,0,0,0,1.824-.891,4.086,4.086,0,0,0,.66-2.477,3.225,3.225,0,0,0-.617-2.094,2.043,2.043,0,0,0-1.672-.758,2.27,2.27,0,0,0-1.8.777A2.854,2.854,0,0,0,118.57-4.383Zm8.781-5.648a.812.812,0,0,1-.586-.234.791.791,0,0,1-.242-.594.8.8,0,0,1,.242-.6.8.8,0,0,1,.586-.238.827.827,0,0,1,.6.238.8.8,0,0,1,.246.6.792.792,0,0,1-.246.586A.82.82,0,0,1,127.352-10.031ZM127.977,0H126.7V-8h1.281Zm3.875,0H130.57V-11.844h1.281Zm3.25-10.031a.812.812,0,0,1-.586-.234.791.791,0,0,1-.242-.594.8.8,0,0,1,.242-.6.8.8,0,0,1,.586-.238.827.827,0,0,1,.6.238.8.8,0,0,1,.246.6.792.792,0,0,1-.246.586A.82.82,0,0,1,135.1-10.031ZM135.727,0h-1.281V-8h1.281Zm9.422,0h-1.281V-1.359h-.031a2.958,2.958,0,0,1-2.75,1.547,2.988,2.988,0,0,1-2.41-1.074,4.407,4.407,0,0,1-.9-2.926,4.794,4.794,0,0,1,1-3.18,3.3,3.3,0,0,1,2.664-1.2,2.564,2.564,0,0,1,2.4,1.3h.031v-4.953h1.281Zm-1.281-3.617V-4.8a2.289,2.289,0,0,0-.641-1.641,2.149,2.149,0,0,0-1.625-.672,2.212,2.212,0,0,0-1.844.859,3.766,3.766,0,0,0-.672,2.375,3.387,3.387,0,0,0,.645,2.184,2.107,2.107,0,0,0,1.73.8,2.188,2.188,0,0,0,1.738-.773A2.882,2.882,0,0,0,143.867-3.617ZM153.469,0h-1.281V-1.25h-.031A2.682,2.682,0,0,1,149.7.188a2.63,2.63,0,0,1-1.871-.633,2.192,2.192,0,0,1-.676-1.68q0-2.242,2.641-2.609l2.4-.336q0-2.039-1.648-2.039a3.938,3.938,0,0,0-2.609.984V-7.437a4.958,4.958,0,0,1,2.719-.75q2.82,0,2.82,2.984Zm-1.281-4.047-1.93.266a3.133,3.133,0,0,0-1.344.441,1.273,1.273,0,0,0-.453,1.121,1.221,1.221,0,0,0,.418.957,1.615,1.615,0,0,0,1.113.371,2.056,2.056,0,0,0,1.574-.668,2.387,2.387,0,0,0,.621-1.691ZM162.711,0H161.43V-1.359H161.4a2.958,2.958,0,0,1-2.75,1.547,2.988,2.988,0,0,1-2.41-1.074,4.407,4.407,0,0,1-.9-2.926,4.794,4.794,0,0,1,1-3.18A3.3,3.3,0,0,1,159-8.187a2.564,2.564,0,0,1,2.4,1.3h.031v-4.953h1.281ZM161.43-3.617V-4.8a2.289,2.289,0,0,0-.641-1.641,2.149,2.149,0,0,0-1.625-.672,2.212,2.212,0,0,0-1.844.859,3.766,3.766,0,0,0-.672,2.375,3.387,3.387,0,0,0,.645,2.184,2.107,2.107,0,0,0,1.73.8,2.188,2.188,0,0,0,1.738-.773A2.882,2.882,0,0,0,161.43-3.617Z" transform="translate(610 2977.75)" fill="#12263f"/>
    <path id="Trazado_817442" data-name="Trazado 817442" d="M12,0H471a12,12,0,0,1,12,12V214a12,12,0,0,1-12,12H12A12,12,0,0,1,0,214V12A12,12,0,0,1,12,0Z" transform="translate(563 3027)" fill="#fff"/>
    <path id="Trazado_817443" data-name="Trazado 817443" d="M4867,11792h-94v-35h94v-20l65,37.5-65,37.5Z" transform="translate(-4049.182 -8674.25)" fill="#ffb476"/>
    <path id="Trazado_817444" data-name="Trazado 817444" d="M1.469,0V-11.2H4.563q5.922,0,5.922,5.461A5.5,5.5,0,0,1,8.84-1.574,6.1,6.1,0,0,1,4.438,0ZM2.781-10.016v8.828H4.453a4.745,4.745,0,0,0,3.43-1.18A4.422,4.422,0,0,0,9.109-5.711q0-4.3-4.578-4.3ZM20.969,0H19.516L18.328-3.141h-4.75L12.461,0H11l4.3-11.2h1.359ZM17.9-4.32,16.141-9.094a4.571,4.571,0,0,1-.172-.75h-.031a4.185,4.185,0,0,1-.18.75L14.016-4.32Zm10.2-5.7H24.859V0H23.547V-10.016H20.32V-11.2h7.773ZM33.625.188a4.918,4.918,0,0,1-3.816-1.57,5.824,5.824,0,0,1-1.434-4.086,6.171,6.171,0,0,1,1.461-4.312,5.1,5.1,0,0,1,3.977-1.609,4.807,4.807,0,0,1,3.738,1.563,5.845,5.845,0,0,1,1.418,4.086,6.191,6.191,0,0,1-1.453,4.336A5.008,5.008,0,0,1,33.625.188ZM33.719-10.2A3.612,3.612,0,0,0,30.852-8.93a4.93,4.93,0,0,0-1.1,3.344,4.964,4.964,0,0,0,1.074,3.332,3.5,3.5,0,0,0,2.8,1.262,3.678,3.678,0,0,0,2.906-1.2,4.917,4.917,0,0,0,1.063-3.367,5.138,5.138,0,0,0-1.031-3.43A3.536,3.536,0,0,0,33.719-10.2Zm6.93,9.75V-2a3,3,0,0,0,.637.422,5.159,5.159,0,0,0,.781.316,6.219,6.219,0,0,0,.824.2,4.6,4.6,0,0,0,.766.07,3,3,0,0,0,1.809-.449,1.52,1.52,0,0,0,.6-1.293,1.518,1.518,0,0,0-.2-.789,2.244,2.244,0,0,0-.551-.613,5.465,5.465,0,0,0-.832-.531Q44-4.922,43.445-5.2q-.586-.3-1.094-.6a4.739,4.739,0,0,1-.883-.672,2.8,2.8,0,0,1-.59-.832,2.575,2.575,0,0,1-.215-1.09A2.563,2.563,0,0,1,41-9.73a2.881,2.881,0,0,1,.883-.934,4,4,0,0,1,1.246-.547,5.706,5.706,0,0,1,1.426-.18,5.464,5.464,0,0,1,2.414.4v1.477a4.376,4.376,0,0,0-2.547-.687,4.189,4.189,0,0,0-.859.09,2.428,2.428,0,0,0-.766.293,1.7,1.7,0,0,0-.547.523,1.389,1.389,0,0,0-.211.781,1.608,1.608,0,0,0,.16.742,1.819,1.819,0,0,0,.473.57,4.708,4.708,0,0,0,.762.5q.449.242,1.035.531.6.3,1.141.625a5.213,5.213,0,0,1,.945.727,3.229,3.229,0,0,1,.645.883,2.482,2.482,0,0,1,.238,1.109,2.813,2.813,0,0,1-.324,1.4,2.661,2.661,0,0,1-.875.934,3.821,3.821,0,0,1-1.27.52,6.953,6.953,0,0,1-1.516.16A6.176,6.176,0,0,1,42.8.145Q42.406.1,42,.02a6.5,6.5,0,0,1-.77-.2A2.4,2.4,0,0,1,40.648-.453Z" transform="translate(748.818 3105.75)" fill="#12263f"/>
    <path id="base-de-datos-3" data-name="base-de-datos" d="M84.64,0C62.933,0,40.96,5,40.96,14.56v.216C47.579,21.328,62.679,24.96,84.64,24.96s37.061-3.632,43.68-10.184V14.56C128.32,5,106.347,0,84.64,0M40.96,70.292V89.44C40.96,99,62.933,104,84.64,104s43.68-5,43.68-14.56V70.292c-7.193,4.9-20.251,8.748-43.68,8.748s-36.487-3.852-43.68-8.748m0-49.92V39.736C47.579,46.288,62.679,49.92,84.64,49.92s37.061-3.632,43.68-10.184V20.372c-7.193,4.9-20.251,8.748-43.68,8.748s-36.487-3.852-43.68-8.748M84.64,54.08c23.429,0,36.487-3.852,43.68-8.748V64.7C121.7,71.248,106.6,74.88,84.64,74.88S47.579,71.248,40.96,64.7V45.332c7.193,4.9,20.251,8.748,43.68,8.748" transform="translate(872.86 3064.75)" fill="#ff9400"/>
    <path id="Trazado_817445" data-name="Trazado 817445" d="M94,20H0V55H94V75l65-37.5L94,0Z" transform="translate(882.819 3198.75) rotate(180)" fill="#ffb476"/>
    <path id="Trazado_817446" data-name="Trazado 817446" d="M1.469,0V-11.2H4.563q5.922,0,5.922,5.461A5.5,5.5,0,0,1,8.84-1.574,6.1,6.1,0,0,1,4.438,0ZM2.781-10.016v8.828H4.453a4.745,4.745,0,0,0,3.43-1.18A4.422,4.422,0,0,0,9.109-5.711q0-4.3-4.578-4.3ZM20.969,0H19.516L18.328-3.141h-4.75L12.461,0H11l4.3-11.2h1.359ZM17.9-4.32,16.141-9.094a4.571,4.571,0,0,1-.172-.75h-.031a4.185,4.185,0,0,1-.18.75L14.016-4.32Zm10.2-5.7H24.859V0H23.547V-10.016H20.32V-11.2h7.773ZM33.625.188a4.918,4.918,0,0,1-3.816-1.57,5.824,5.824,0,0,1-1.434-4.086,6.171,6.171,0,0,1,1.461-4.312,5.1,5.1,0,0,1,3.977-1.609,4.807,4.807,0,0,1,3.738,1.563,5.845,5.845,0,0,1,1.418,4.086,6.191,6.191,0,0,1-1.453,4.336A5.008,5.008,0,0,1,33.625.188ZM33.719-10.2A3.612,3.612,0,0,0,30.852-8.93a4.93,4.93,0,0,0-1.1,3.344,4.964,4.964,0,0,0,1.074,3.332,3.5,3.5,0,0,0,2.8,1.262,3.678,3.678,0,0,0,2.906-1.2,4.917,4.917,0,0,0,1.063-3.367,5.138,5.138,0,0,0-1.031-3.43A3.536,3.536,0,0,0,33.719-10.2Zm6.93,9.75V-2a3,3,0,0,0,.637.422,5.159,5.159,0,0,0,.781.316,6.219,6.219,0,0,0,.824.2,4.6,4.6,0,0,0,.766.07,3,3,0,0,0,1.809-.449,1.52,1.52,0,0,0,.6-1.293,1.518,1.518,0,0,0-.2-.789,2.244,2.244,0,0,0-.551-.613,5.465,5.465,0,0,0-.832-.531Q44-4.922,43.445-5.2q-.586-.3-1.094-.6a4.739,4.739,0,0,1-.883-.672,2.8,2.8,0,0,1-.59-.832,2.575,2.575,0,0,1-.215-1.09A2.563,2.563,0,0,1,41-9.73a2.881,2.881,0,0,1,.883-.934,4,4,0,0,1,1.246-.547,5.706,5.706,0,0,1,1.426-.18,5.464,5.464,0,0,1,2.414.4v1.477a4.376,4.376,0,0,0-2.547-.687,4.189,4.189,0,0,0-.859.09,2.428,2.428,0,0,0-.766.293,1.7,1.7,0,0,0-.547.523,1.389,1.389,0,0,0-.211.781,1.608,1.608,0,0,0,.16.742,1.819,1.819,0,0,0,.473.57,4.708,4.708,0,0,0,.762.5q.449.242,1.035.531.6.3,1.141.625a5.213,5.213,0,0,1,.945.727,3.229,3.229,0,0,1,.645.883,2.482,2.482,0,0,1,.238,1.109,2.813,2.813,0,0,1-.324,1.4,2.661,2.661,0,0,1-.875.934,3.821,3.821,0,0,1-1.27.52,6.953,6.953,0,0,1-1.516.16A6.176,6.176,0,0,1,42.8.145Q42.406.1,42,.02a6.5,6.5,0,0,1-.77-.2A2.4,2.4,0,0,1,40.648-.453Z" transform="translate(798.818 3166.75)" fill="#12263f"/>
    <path id="Trazado_817447" data-name="Trazado 817447" d="M6.016.2A5.215,5.215,0,0,1,2.094-1.371,5.624,5.624,0,0,1,.578-5.453a6.026,6.026,0,0,1,1.539-4.3A5.328,5.328,0,0,1,6.2-11.391a5.085,5.085,0,0,1,3.879,1.57,5.79,5.79,0,0,1,1.48,4.141A5.929,5.929,0,0,1,10.02-1.422,5.269,5.269,0,0,1,6.016.2Zm.109-9.414a2.54,2.54,0,0,0-2.109,1,4.153,4.153,0,0,0-.781,2.637,4.077,4.077,0,0,0,.781,2.633,2.5,2.5,0,0,0,2.047.969,2.528,2.528,0,0,0,2.07-.941A4.032,4.032,0,0,0,8.9-5.539,4.369,4.369,0,0,0,8.156-8.25,2.42,2.42,0,0,0,6.125-9.219ZM20.086,0H13.414V-11.2h2.523v9.156h4.148Zm8.32-9.148h-3.2V0H22.68V-9.148H19.5V-11.2h8.906Zm4.031,5.289V0H29.914V-11.2h3.953q4.234,0,4.234,3.57A3.426,3.426,0,0,1,36.887-4.9a4.813,4.813,0,0,1-3.246,1.043Zm0-5.406v3.492h.992q2.016,0,2.016-1.766,0-1.727-2.016-1.727Z" transform="translate(938.82 3213.25)" fill="#12263f"/>
    <path id="Trazado_817448" data-name="Trazado 817448" d="M9.094-.469A6.571,6.571,0,0,1,6,.188,4.989,4.989,0,0,1,2.172-1.352,5.679,5.679,0,0,1,.734-5.391,5.952,5.952,0,0,1,2.352-9.734a5.489,5.489,0,0,1,4.1-1.656,6.576,6.576,0,0,1,2.641.461v1.4A5.355,5.355,0,0,0,6.438-10.2,4.076,4.076,0,0,0,3.309-8.914a4.856,4.856,0,0,0-1.2,3.445A4.621,4.621,0,0,0,3.23-2.207,3.815,3.815,0,0,0,6.172-.992a5.518,5.518,0,0,0,2.922-.75Zm5.453.656A3.711,3.711,0,0,1,11.715-.934a4.153,4.153,0,0,1-1.059-2.973,4.326,4.326,0,0,1,1.1-3.148,3.96,3.96,0,0,1,2.977-1.133,3.588,3.588,0,0,1,2.793,1.1,4.368,4.368,0,0,1,1,3.055A4.3,4.3,0,0,1,17.449-.965,3.791,3.791,0,0,1,14.547.188Zm.094-7.3a2.437,2.437,0,0,0-1.953.84,3.449,3.449,0,0,0-.719,2.316A3.262,3.262,0,0,0,12.7-1.711a2.469,2.469,0,0,0,1.945.82,2.342,2.342,0,0,0,1.91-.8,3.492,3.492,0,0,0,.668-2.289A3.552,3.552,0,0,0,16.551-6.3,2.332,2.332,0,0,0,14.641-7.109ZM31.938,0H30.656V-4.594a3.466,3.466,0,0,0-.41-1.922,1.555,1.555,0,0,0-1.379-.594,1.708,1.708,0,0,0-1.395.75,2.869,2.869,0,0,0-.574,1.8V0H25.617V-4.75q0-2.359-1.82-2.359a1.686,1.686,0,0,0-1.391.707,2.923,2.923,0,0,0-.547,1.84V0H20.578V-8h1.281v1.266h.031a2.718,2.718,0,0,1,2.484-1.453,2.316,2.316,0,0,1,1.43.457,2.3,2.3,0,0,1,.836,1.2A2.855,2.855,0,0,1,29.3-8.187q2.641,0,2.641,3.258Zm8.852-3.68H35.141a2.992,2.992,0,0,0,.719,2.063,2.478,2.478,0,0,0,1.891.727,3.931,3.931,0,0,0,2.484-.891v1.2a4.643,4.643,0,0,1-2.789.766A3.381,3.381,0,0,1,34.781-.9a4.461,4.461,0,0,1-.969-3.066,4.375,4.375,0,0,1,1.059-3.043A3.394,3.394,0,0,1,37.5-8.187a3.008,3.008,0,0,1,2.43,1.016,4.234,4.234,0,0,1,.859,2.82ZM39.477-4.766a2.607,2.607,0,0,0-.535-1.727,1.823,1.823,0,0,0-1.465-.617,2.07,2.07,0,0,0-1.539.648,2.943,2.943,0,0,0-.781,1.7ZM46.9-6.7a1.567,1.567,0,0,0-.969-.258,1.635,1.635,0,0,0-1.371.773,3.576,3.576,0,0,0-.551,2.109V0H42.727V-8h1.281v1.648h.031a2.794,2.794,0,0,1,.836-1.316,1.906,1.906,0,0,1,1.258-.473,2.092,2.092,0,0,1,.766.109ZM53.742-.367a4.163,4.163,0,0,1-2.187.555A3.622,3.622,0,0,1,48.793-.926a4.035,4.035,0,0,1-1.051-2.887,4.435,4.435,0,0,1,1.133-3.176,3.963,3.963,0,0,1,3.023-1.2,4.209,4.209,0,0,1,1.859.391v1.313a3.258,3.258,0,0,0-1.906-.625,2.576,2.576,0,0,0-2.012.879,3.335,3.335,0,0,0-.785,2.309A3.176,3.176,0,0,0,49.793-1.7a2.545,2.545,0,0,0,1.98.813,3.211,3.211,0,0,0,1.969-.7Zm2.594-9.664a.812.812,0,0,1-.586-.234.791.791,0,0,1-.242-.594.8.8,0,0,1,.242-.6.8.8,0,0,1,.586-.238.827.827,0,0,1,.6.238.8.8,0,0,1,.246.6.792.792,0,0,1-.246.586A.82.82,0,0,1,56.336-10.031ZM56.961,0H55.68V-8h1.281Zm8.32,0H64V-1.25h-.031A2.682,2.682,0,0,1,61.508.188a2.63,2.63,0,0,1-1.871-.633,2.192,2.192,0,0,1-.676-1.68q0-2.242,2.641-2.609L64-5.07q0-2.039-1.648-2.039a3.938,3.938,0,0,0-2.609.984V-7.437a4.958,4.958,0,0,1,2.719-.75q2.82,0,2.82,2.984ZM64-4.047l-1.93.266a3.133,3.133,0,0,0-1.344.441,1.273,1.273,0,0,0-.453,1.121,1.221,1.221,0,0,0,.418.957A1.615,1.615,0,0,0,61.8-.891a2.056,2.056,0,0,0,1.574-.668A2.387,2.387,0,0,0,64-3.25ZM68.977,0H67.7V-11.844h1.281ZM82.32-8l-3.68,9.281q-.984,2.484-2.766,2.484a2.932,2.932,0,0,1-.836-.1V2.516a2.375,2.375,0,0,0,.758.141A1.57,1.57,0,0,0,77.25,1.5l.641-1.516L74.766-8h1.422l2.164,6.156q.039.117.164.609h.047q.039-.187.156-.594L80.992-8ZM94.367-8,91.18,0H89.922L86.891-8H88.3l2.031,5.813a5.217,5.217,0,0,1,.281,1.117h.031a5.283,5.283,0,0,1,.25-1.086L93.016-8Zm7.8,4.32H96.523a2.992,2.992,0,0,0,.719,2.063,2.478,2.478,0,0,0,1.891.727,3.931,3.931,0,0,0,2.484-.891v1.2a4.643,4.643,0,0,1-2.789.766A3.381,3.381,0,0,1,96.164-.9,4.461,4.461,0,0,1,95.2-3.969a4.375,4.375,0,0,1,1.059-3.043,3.394,3.394,0,0,1,2.629-1.176,3.008,3.008,0,0,1,2.43,1.016,4.234,4.234,0,0,1,.859,2.82Zm-1.312-1.086a2.607,2.607,0,0,0-.535-1.727,1.823,1.823,0,0,0-1.465-.617,2.07,2.07,0,0,0-1.539.648,2.943,2.943,0,0,0-.781,1.7ZM110.75,0h-1.281V-4.562q0-2.547-1.859-2.547a2.017,2.017,0,0,0-1.59.723,2.679,2.679,0,0,0-.629,1.824V0h-1.281V-8h1.281v1.328h.031a2.887,2.887,0,0,1,2.625-1.516,2.448,2.448,0,0,1,2.008.848,3.776,3.776,0,0,1,.7,2.449Zm6.125-.078a2.47,2.47,0,0,1-1.2.25q-2.1,0-2.1-2.344V-6.906H112.2V-8h1.375V-9.953l1.281-.414V-8h2.016v1.094h-2.016V-2.4a1.869,1.869,0,0,0,.273,1.148,1.091,1.091,0,0,0,.906.344,1.347,1.347,0,0,0,.836-.266ZM124.313,0h-1.281V-1.25H123A2.682,2.682,0,0,1,120.539.188a2.63,2.63,0,0,1-1.871-.633,2.192,2.192,0,0,1-.676-1.68q0-2.242,2.641-2.609l2.4-.336q0-2.039-1.648-2.039a3.938,3.938,0,0,0-2.609.984V-7.437a4.958,4.958,0,0,1,2.719-.75q2.82,0,2.82,2.984Zm-1.281-4.047-1.93.266a3.133,3.133,0,0,0-1.344.441,1.273,1.273,0,0,0-.453,1.121,1.221,1.221,0,0,0,.418.957,1.615,1.615,0,0,0,1.113.371,2.056,2.056,0,0,0,1.574-.668,2.387,2.387,0,0,0,.621-1.691Zm3.211,3.758V-1.664a3.792,3.792,0,0,0,2.3.773q1.688,0,1.688-1.125a.976.976,0,0,0-.145-.543,1.441,1.441,0,0,0-.391-.395,3.007,3.007,0,0,0-.578-.309q-.332-.137-.715-.285a9.206,9.206,0,0,1-.934-.426,2.82,2.82,0,0,1-.672-.484,1.8,1.8,0,0,1-.406-.613,2.17,2.17,0,0,1-.137-.8,1.912,1.912,0,0,1,.258-1A2.286,2.286,0,0,1,127.2-7.6a3.206,3.206,0,0,1,.98-.441,4.349,4.349,0,0,1,1.137-.148,4.59,4.59,0,0,1,1.859.359v1.3a3.624,3.624,0,0,0-2.031-.578,2.374,2.374,0,0,0-.648.082,1.587,1.587,0,0,0-.5.23,1.065,1.065,0,0,0-.32.355.936.936,0,0,0-.113.457,1.1,1.1,0,0,0,.113.523,1.152,1.152,0,0,0,.332.375,2.538,2.538,0,0,0,.531.3q.312.133.711.289a9.894,9.894,0,0,1,.953.418,3.269,3.269,0,0,1,.719.484,1.893,1.893,0,0,1,.457.621,2,2,0,0,1,.16.836,1.971,1.971,0,0,1-.262,1.031,2.243,2.243,0,0,1-.7.727,3.2,3.2,0,0,1-1.008.43,4.976,4.976,0,0,1-1.2.141A4.539,4.539,0,0,1,126.242-.289Z" transform="translate(610 3225.75)" fill="#12263f"/>
    <g id="Grupo_1070379" data-name="Grupo 1070379" transform="translate(626.112 2604.373)">
      <g id="Grupo_1070375-2" data-name="Grupo 1070375" clip-path="url(#clip-path)">
        <path id="Trazado_817112-2" data-name="Trazado 817112" d="M656.884,483.014H639.572a2.317,2.317,0,0,0,0,4.633h15v20.706a2.317,2.317,0,1,0,4.633,0V485.331a2.317,2.317,0,0,0-2.317-2.317" transform="translate(-600.653 -455.271)" fill="#083142"/>
        <path id="Trazado_817113-2" data-name="Trazado 817113" d="M281.582,13.317a6.678,6.678,0,1,0-5.915-7.361,6.678,6.678,0,0,0,5.915,7.361" transform="translate(-259.795 -0.001)" fill="#083142"/>
        <path id="Trazado_817114-2" data-name="Trazado 817114" d="M22.1,296.926H12.477a4.651,4.651,0,0,1-4.585-3.846L4.6,274.476a2.317,2.317,0,0,0-4.563.808l3.293,18.6a9.279,9.279,0,0,0,9.148,7.671h7.988v8.43a2.317,2.317,0,1,0,4.633,0V299.926a3,3,0,0,0-3-3" transform="translate(0 -256.906)" fill="#083142"/>
        <path id="Trazado_817115-2" data-name="Trazado 817115" d="M209.075,268.674H203l1.581-7.226,4.285,2.066a3.083,3.083,0,0,0,1.341.306c.047,0,.094,0,.139,0l6.467-.29a3.089,3.089,0,0,0-.276-6.172l-5.689.255s-6.473-3.378-7.271-3.565c-.9-.211-4.575-1.011-4.575-1.011a4.928,4.928,0,0,0-5.875,3.813l-2.7,12.957a4.812,4.812,0,0,0,4.713,5.8h10.722a1.252,1.252,0,0,1,1.252,1.252V290.2a3.463,3.463,0,0,0,6.926,0V273.642a4.967,4.967,0,0,0-4.968-4.968" transform="translate(-179.395 -238.393)" fill="#083142"/>
        <path id="Trazado_817116-2" data-name="Trazado 817116" d="M762.014,89.583l2.421.314a.866.866,0,0,0,.97-.748l.569-4.4L768.23,86.1v6.774h-1.217a1.544,1.544,0,0,0,0,3.089h5.525a1.544,1.544,0,0,0,0-3.089h-1.219v-7.65a1.545,1.545,0,0,0-.751-1.326L766.4,81.411l.745-5.757a.865.865,0,0,0-.748-.97l-2.419-.314a.865.865,0,0,0-.97.748l-1.747,13.5a.867.867,0,0,0,.748.97" transform="translate(-717.534 -70.091)" fill="#083142"/>
      </g>
    </g>
    <g id="Grupo_1070381" data-name="Grupo 1070381" transform="translate(635.931 3105.342)">
      <g id="Grupo_1070375-3" data-name="Grupo 1070375" clip-path="url(#clip-path-3)">
        <path id="Trazado_817112-3" data-name="Trazado 817112" d="M650.3,483.014H638.795a1.54,1.54,0,0,0,0,3.079h9.966v13.761a1.54,1.54,0,1,0,3.079,0v-15.3a1.54,1.54,0,0,0-1.54-1.54" transform="translate(-612.929 -464.576)" fill="#2977d8"/>
        <path id="Trazado_817113-3" data-name="Trazado 817113" d="M279.584,8.851a4.438,4.438,0,1,0-3.931-4.892,4.438,4.438,0,0,0,3.931,4.892" transform="translate(-265.105 -0.001)" fill="#2977d8"/>
        <path id="Trazado_817114-3" data-name="Trazado 817114" d="M14.687,288.754h-6.4A3.091,3.091,0,0,1,5.245,286.2L3.056,273.833a1.54,1.54,0,0,0-3.032.537l2.188,12.364a6.167,6.167,0,0,0,6.079,5.1H13.6v5.6a1.54,1.54,0,0,0,3.079,0v-6.688a2,2,0,0,0-1.993-1.994" transform="translate(0 -262.157)" fill="#2977d8"/>
        <path id="Trazado_817115-3" data-name="Trazado 817115" d="M202.786,263.39h-4.038l1.05-4.8,2.848,1.373a2.049,2.049,0,0,0,.891.2l.092,0,4.3-.192a2.053,2.053,0,0,0-.183-4.1l-3.781.169s-4.3-2.245-4.832-2.37c-.6-.14-3.04-.672-3.04-.672a3.275,3.275,0,0,0-3.9,2.534l-1.792,8.611a3.2,3.2,0,0,0,3.132,3.851h7.126a.832.832,0,0,1,.832.832V277.7a2.3,2.3,0,0,0,4.6,0V266.692a3.3,3.3,0,0,0-3.3-3.3" transform="translate(-183.062 -243.266)" fill="#2977d8"/>
        <path id="Trazado_817116-3" data-name="Trazado 817116" d="M761.761,84.478l1.609.208a.576.576,0,0,0,.645-.5l.378-2.923,1.5.9v4.5h-.809a1.026,1.026,0,0,0,0,2.053h3.672a1.026,1.026,0,0,0,0-2.053h-.81V81.58a1.027,1.027,0,0,0-.5-.881l-2.767-1.652.5-3.826a.575.575,0,0,0-.5-.645l-1.608-.208a.575.575,0,0,0-.644.5l-1.161,8.969a.576.576,0,0,0,.5.645" transform="translate(-732.2 -71.524)" fill="#2977d8"/>
      </g>
    </g>
    <g id="Grupo_1070382" data-name="Grupo 1070382" transform="translate(656.09 3062.751)">
      <g id="Grupo_1070375-4" data-name="Grupo 1070375" clip-path="url(#clip-path-4)">
        <path id="Trazado_817112-4" data-name="Trazado 817112" d="M650.3,483.014H638.795a1.54,1.54,0,0,0,0,3.079h9.966v13.761a1.54,1.54,0,1,0,3.079,0v-15.3a1.54,1.54,0,0,0-1.54-1.54" transform="translate(-612.929 -464.576)" fill="#083142"/>
        <path id="Trazado_817113-4" data-name="Trazado 817113" d="M279.584,8.851a4.438,4.438,0,1,0-3.931-4.892,4.438,4.438,0,0,0,3.931,4.892" transform="translate(-265.105 -0.001)" fill="#083142"/>
        <path id="Trazado_817114-4" data-name="Trazado 817114" d="M14.687,288.754h-6.4A3.091,3.091,0,0,1,5.245,286.2L3.056,273.833a1.54,1.54,0,0,0-3.032.537l2.188,12.364a6.167,6.167,0,0,0,6.079,5.1H13.6v5.6a1.54,1.54,0,0,0,3.079,0v-6.688a2,2,0,0,0-1.993-1.994" transform="translate(0 -262.157)" fill="#083142"/>
        <path id="Trazado_817115-4" data-name="Trazado 817115" d="M202.786,263.39h-4.038l1.05-4.8,2.848,1.373a2.049,2.049,0,0,0,.891.2l.092,0,4.3-.192a2.053,2.053,0,0,0-.183-4.1l-3.781.169s-4.3-2.245-4.832-2.37c-.6-.14-3.04-.672-3.04-.672a3.275,3.275,0,0,0-3.9,2.534l-1.792,8.611a3.2,3.2,0,0,0,3.132,3.851h7.126a.832.832,0,0,1,.832.832V277.7a2.3,2.3,0,0,0,4.6,0V266.692a3.3,3.3,0,0,0-3.3-3.3" transform="translate(-183.062 -243.266)" fill="#083142"/>
        <path id="Trazado_817116-4" data-name="Trazado 817116" d="M761.761,84.478l1.609.208a.576.576,0,0,0,.645-.5l.378-2.923,1.5.9v4.5h-.809a1.026,1.026,0,0,0,0,2.053h3.672a1.026,1.026,0,0,0,0-2.053h-.81V81.58a1.027,1.027,0,0,0-.5-.881l-2.767-1.652.5-3.826a.575.575,0,0,0-.5-.645l-1.608-.208a.575.575,0,0,0-.644.5l-1.161,8.969a.576.576,0,0,0,.5.645" transform="translate(-732.2 -71.524)" fill="#083142"/>
      </g>
    </g>
    <g id="Grupo_1070383" data-name="Grupo 1070383" transform="translate(610 3146.751)">
      <g id="Grupo_1070375-5" data-name="Grupo 1070375" clip-path="url(#clip-path-5)">
        <path id="Trazado_817112-5" data-name="Trazado 817112" d="M650.3,483.014H638.795a1.54,1.54,0,0,0,0,3.079h9.966v13.761a1.54,1.54,0,1,0,3.079,0v-15.3a1.54,1.54,0,0,0-1.54-1.54" transform="translate(-612.929 -464.576)" fill="#ff6148"/>
        <path id="Trazado_817113-5" data-name="Trazado 817113" d="M279.584,8.851a4.438,4.438,0,1,0-3.931-4.892,4.438,4.438,0,0,0,3.931,4.892" transform="translate(-265.105 -0.001)" fill="#ff6148"/>
        <path id="Trazado_817114-5" data-name="Trazado 817114" d="M14.687,288.754h-6.4A3.091,3.091,0,0,1,5.245,286.2L3.056,273.833a1.54,1.54,0,0,0-3.032.537l2.188,12.364a6.167,6.167,0,0,0,6.079,5.1H13.6v5.6a1.54,1.54,0,0,0,3.079,0v-6.688a2,2,0,0,0-1.993-1.994" transform="translate(0 -262.157)" fill="#ff6148"/>
        <path id="Trazado_817115-5" data-name="Trazado 817115" d="M202.786,263.39h-4.038l1.05-4.8,2.848,1.373a2.049,2.049,0,0,0,.891.2l.092,0,4.3-.192a2.053,2.053,0,0,0-.183-4.1l-3.781.169s-4.3-2.245-4.832-2.37c-.6-.14-3.04-.672-3.04-.672a3.275,3.275,0,0,0-3.9,2.534l-1.792,8.611a3.2,3.2,0,0,0,3.132,3.851h7.126a.832.832,0,0,1,.832.832V277.7a2.3,2.3,0,0,0,4.6,0V266.692a3.3,3.3,0,0,0-3.3-3.3" transform="translate(-183.062 -243.266)" fill="#ff6148"/>
        <path id="Trazado_817116-5" data-name="Trazado 817116" d="M761.761,84.478l1.609.208a.576.576,0,0,0,.645-.5l.378-2.923,1.5.9v4.5h-.809a1.026,1.026,0,0,0,0,2.053h3.672a1.026,1.026,0,0,0,0-2.053h-.81V81.58a1.027,1.027,0,0,0-.5-.881l-2.767-1.652.5-3.826a.575.575,0,0,0-.5-.645l-1.608-.208a.575.575,0,0,0-.644.5l-1.161,8.969a.576.576,0,0,0,.5.645" transform="translate(-732.2 -71.524)" fill="#ff6148"/>
      </g>
    </g>
  </g>
</svg>
