<svg xmlns="http://www.w3.org/2000/svg" width="88.129" height="23.064" viewBox="0 0 88.129 23.064">
  <path id="Dots" d="M17.625,84.391a1.719,1.719,0,1,1,1.719,1.738A1.729,1.729,0,0,1,17.625,84.391ZM0,84.391a1.728,1.728,0,0,1,1.719-1.737,1.738,1.738,0,0,1,0,3.475A1.728,1.728,0,0,1,0,84.391ZM17.625,63.716a1.719,1.719,0,1,1,1.719,1.738A1.728,1.728,0,0,1,17.625,63.716ZM0,63.716a1.728,1.728,0,0,1,1.719-1.737,1.738,1.738,0,0,1,0,3.475A1.728,1.728,0,0,1,0,63.716ZM17.625,43.041a1.719,1.719,0,1,1,1.719,1.737A1.729,1.729,0,0,1,17.625,43.041ZM0,43.041A1.728,1.728,0,0,1,1.719,41.3a1.738,1.738,0,0,1,0,3.475A1.728,1.728,0,0,1,0,43.041ZM17.625,22.366A1.719,1.719,0,1,1,19.345,24.1,1.729,1.729,0,0,1,17.625,22.366ZM0,22.366a1.728,1.728,0,0,1,1.719-1.737,1.738,1.738,0,0,1,0,3.476A1.728,1.728,0,0,1,0,22.366ZM17.625,1.738a1.719,1.719,0,1,1,3.439,0,1.719,1.719,0,1,1-3.439,0ZM0,1.738A1.728,1.728,0,0,1,1.719,0a1.738,1.738,0,0,1,0,3.475A1.728,1.728,0,0,1,0,1.738Z" transform="translate(1 22.064) rotate(-90)" fill="#fff" stroke="#fff" stroke-width="2"/>
</svg>
