<svg xmlns="http://www.w3.org/2000/svg" width="79.002" height="72.662" viewBox="0 0 79.002 72.662">
  <g id="Grupo_1070544" data-name="Grupo 1070544" transform="translate(-389 -10112.427)">
    <g id="sql" transform="translate(382.501 10085.467)">
      <g id="Grupo_1070421" data-name="Grupo 1070421" transform="translate(7.499 27.96)">
        <path id="Trazado_817198" data-name="Trazado 817198" d="M205.757,98.623H162.684l-8.765-8.765V30.441a2.479,2.479,0,0,1,2.479-2.479h49.359a2.479,2.479,0,0,1,2.479,2.479v65.7A2.479,2.479,0,0,1,205.757,98.623Z" transform="translate(-131.234 -27.962)" fill="#dff6fd"/>
        <path id="Trazado_817199" data-name="Trazado 817199" d="M469.853,30.439v65.7a2.479,2.479,0,0,1-2.479,2.479H463.5a2.479,2.479,0,0,0,2.479-2.479v-65.7A2.479,2.479,0,0,0,463.5,27.96h3.873A2.479,2.479,0,0,1,469.853,30.439Z" transform="translate(-392.851 -27.96)" fill="#d8ecfe"/>
        <path id="Trazado_817200" data-name="Trazado 817200" d="M153.919,427.462h8.123a.642.642,0,0,1,.643.643v8.123Z" transform="translate(-131.234 -365.566)" fill="#d8ecfe"/>
        <path id="Trazado_817201" data-name="Trazado 817201" d="M170.628,81.476H133.114a2.169,2.169,0,0,1-2.169-2.169V64.774a2.169,2.169,0,0,1,2.169-2.169h37.514a2.169,2.169,0,0,1,2.169,2.169V79.307A2.169,2.169,0,0,1,170.628,81.476Z" transform="translate(-111.819 -57.237)" fill="#ffb476"/>
        <path id="Trazado_817202" data-name="Trazado 817202" d="M368.113,64.771V79.305a2.168,2.168,0,0,1-2.169,2.169h-3.873a2.168,2.168,0,0,0,2.169-2.169V64.771a2.168,2.168,0,0,0-2.169-2.169h3.873A2.168,2.168,0,0,1,368.113,64.771Z" transform="translate(-307.136 -57.235)" fill="#ffb476"/>
        <path id="Trazado_817203" data-name="Trazado 817203" d="M38.785,333.009v6.684c0,3.009-7,5.447-15.642,5.447S7.5,342.7,7.5,339.693v-6.684Z" transform="translate(-7.502 -285.747)" fill="#2efec7"/>
        <path id="Trazado_817204" data-name="Trazado 817204" d="M173.894,333.009v6.684c0,1.822-2.567,3.435-6.512,4.423,1.667-.866,2.638-1.909,2.638-3.029v-8.078h3.873Z" transform="translate(-142.611 -285.747)" fill="#0681af"/>
        <path id="Trazado_817205" data-name="Trazado 817205" d="M38.785,291.009v6.684c0,3.009-7,5.447-15.642,5.447S7.5,300.7,7.5,297.693v-6.684Z" transform="translate(-7.502 -250.254)" fill="#8abbd5"/>
        <path id="Trazado_817206" data-name="Trazado 817206" d="M188.285,291.009v6.684c0,1.374-1.461,2.631-3.873,3.588V291.009Z" transform="translate(-157.002 -250.254)" fill="#6cabca"/>
        <path id="Trazado_817207" data-name="Trazado 817207" d="M38.784,250.143H7.5v6.508c0,3.007,7,5.446,15.64,5.446s15.642-2.439,15.642-5.446Z" transform="translate(-7.502 -215.72)" fill="#2efec7"/>
        <path id="Trazado_817208" data-name="Trazado 817208" d="M188.285,250.139v6.509c0,1.373-1.461,2.629-3.873,3.587v-10.1Z" transform="translate(-157.002 -215.716)" fill="#0681af"/>
        <ellipse id="Elipse_9232" data-name="Elipse 9232" cx="15.641" cy="5.447" rx="15.641" ry="5.447" transform="translate(0 28.976)" fill="#8abbd5"/>
        <path id="Trazado_817209" data-name="Trazado 817209" d="M188.287,230.576c0,1.374-1.461,2.631-3.873,3.588h0a13.408,13.408,0,0,0,0-7.174h0C186.826,227.947,188.287,229.2,188.287,230.576Z" transform="translate(-157.004 -196.153)" fill="#6cabca"/>
      </g>
      <g id="Grupo_1070427" data-name="Grupo 1070427" transform="translate(7.499 27.96)">
        <line id="Línea_435" data-name="Línea 435" y1="5.32" transform="translate(22.685 24.239)" fill="none" stroke="#000" stroke-linecap="round" stroke-linejoin="round" stroke-miterlimit="10" stroke-width="2"/>
        <line id="Línea_436" data-name="Línea 436" y1="3.085" transform="translate(22.685 58.811)" fill="none" stroke="#000" stroke-linecap="round" stroke-linejoin="round" stroke-miterlimit="10" stroke-width="2"/>
        <path id="Trazado_817210" data-name="Trazado 817210" d="M153.92,33.327V30.439A2.479,2.479,0,0,1,156.4,27.96h49.359a2.479,2.479,0,0,1,2.479,2.479v65.7a2.479,2.479,0,0,1-2.479,2.479H162.685" transform="translate(-131.235 -27.96)" fill="none" stroke="#000" stroke-linecap="round" stroke-linejoin="round" stroke-miterlimit="10" stroke-width="2"/>
        <path id="Trazado_817211" data-name="Trazado 817211" d="M153.919,427.462h8.123a.642.642,0,0,1,.643.643v8.123Z" transform="translate(-131.234 -365.566)" fill="none" stroke="#000" stroke-linecap="round" stroke-linejoin="round" stroke-miterlimit="10" stroke-width="2"/>
        <path id="Trazado_817212" data-name="Trazado 817212" d="M7.5,250.14v19.523c0,3.009,7,5.447,15.642,5.447s15.64-2.439,15.64-5.447V250.14" transform="translate(-7.5 -215.717)" fill="none" stroke="#000" stroke-linecap="round" stroke-linejoin="round" stroke-miterlimit="10" stroke-width="2"/>
        <path id="Trazado_817213" data-name="Trazado 817213" d="M7.5,334.15c0,3.007,7,5.446,15.642,5.446s15.64-2.439,15.64-5.446" transform="translate(-7.5 -286.711)" fill="none" stroke="#000" stroke-linecap="round" stroke-linejoin="round" stroke-miterlimit="10" stroke-width="2"/>
        <path id="Trazado_817214" data-name="Trazado 817214" d="M7.5,292.15c0,3.007,7,5.446,15.642,5.446s15.64-2.439,15.64-5.446" transform="translate(-7.5 -251.218)" fill="none" stroke="#000" stroke-linecap="round" stroke-linejoin="round" stroke-miterlimit="10" stroke-width="2"/>
        <ellipse id="Elipse_9233" data-name="Elipse 9233" cx="15.641" cy="5.447" rx="15.641" ry="5.447" transform="translate(0 28.976)" fill="none" stroke="#000" stroke-linecap="round" stroke-linejoin="round" stroke-miterlimit="10" stroke-width="2"/>
        <g id="Grupo_1070425" data-name="Grupo 1070425" transform="translate(26.324 10.271)">
          <g id="Grupo_1070422" data-name="Grupo 1070422" transform="translate(24.281)">
            <path id="Trazado_817215" data-name="Trazado 817215" d="M334.125,94.254v9.056c.1.017,3.174,0,3.174,0" transform="translate(-334.125 -94.254)" fill="none" stroke="#000" stroke-linecap="round" stroke-linejoin="round" stroke-miterlimit="10" stroke-width="2"/>
          </g>
          <g id="Grupo_1070423" data-name="Grupo 1070423" transform="translate(0 0)">
            <path id="Trazado_817216" data-name="Trazado 817216" d="M182.993,95.186a4.134,4.134,0,0,0-3.544-.789,1.89,1.89,0,0,0-.733,3.392s1.25.558,2.637,1.069c3.338,1.231,1.9,4.461-.787,4.461a4.281,4.281,0,0,1-3.159-1.344" transform="translate(-177.406 -94.254)" fill="none" stroke="#000" stroke-linecap="round" stroke-linejoin="round" stroke-miterlimit="10" stroke-width="2"/>
          </g>
          <g id="Grupo_1070424" data-name="Grupo 1070424" transform="translate(10.534)">
            <line id="Línea_437" data-name="Línea 437" x2="2.9" y2="2.9" transform="translate(6.199 6.128)" fill="none" stroke="#000" stroke-linecap="round" stroke-linejoin="round" stroke-miterlimit="10" stroke-width="2"/>
            <circle id="Elipse_9234" data-name="Elipse 9234" cx="4.532" cy="4.532" r="4.532" fill="none" stroke="#000" stroke-linecap="round" stroke-linejoin="round" stroke-miterlimit="10" stroke-width="2"/>
          </g>
        </g>
        <path id="Trazado_817217" data-name="Trazado 817217" d="M170.627,81.474H133.113a2.169,2.169,0,0,1-2.169-2.169V64.772a2.169,2.169,0,0,1,2.169-2.169h37.514a2.169,2.169,0,0,1,2.169,2.169V79.305A2.169,2.169,0,0,1,170.627,81.474Z" transform="translate(-111.818 -57.236)" fill="none" stroke="#000" stroke-linecap="round" stroke-linejoin="round" stroke-miterlimit="10" stroke-width="2"/>
        <g id="Grupo_1070426" data-name="Grupo 1070426" transform="translate(44.419 31.188)">
          <line id="Línea_438" data-name="Línea 438" x1="4.139" y2="10.407" transform="translate(7.738 0)" fill="none" stroke="#000" stroke-linecap="round" stroke-linejoin="round" stroke-miterlimit="10" stroke-width="2"/>
          <path id="Trazado_817218" data-name="Trazado 817218" d="M402.856,232.477l2.78,4.611-2.78,4.8" transform="translate(-386.021 -231.978)" fill="none" stroke="#000" stroke-linecap="round" stroke-linejoin="round" stroke-miterlimit="10" stroke-width="2"/>
          <path id="Trazado_817219" data-name="Trazado 817219" d="M296.977,232.477l-2.78,4.611,2.78,4.8" transform="translate(-294.197 -231.978)" fill="none" stroke="#000" stroke-linecap="round" stroke-linejoin="round" stroke-miterlimit="10" stroke-width="2"/>
        </g>
        <line id="Línea_439" data-name="Línea 439" x2="32.314" transform="translate(38.069 46.708)" fill="none" stroke="#000" stroke-linecap="round" stroke-linejoin="round" stroke-miterlimit="10" stroke-width="2"/>
        <line id="Línea_440" data-name="Línea 440" x2="32.314" transform="translate(38.069 51.821)" fill="none" stroke="#000" stroke-linecap="round" stroke-linejoin="round" stroke-miterlimit="10" stroke-width="2"/>
        <line id="Línea_441" data-name="Línea 441" x2="32.314" transform="translate(38.069 56.933)" fill="none" stroke="#000" stroke-linecap="round" stroke-linejoin="round" stroke-miterlimit="10" stroke-width="2"/>
        <line id="Línea_442" data-name="Línea 442" x2="32.314" transform="translate(38.069 62.046)" fill="none" stroke="#000" stroke-linecap="round" stroke-linejoin="round" stroke-miterlimit="10" stroke-width="2"/>
      </g>
    </g>
  </g>
</svg>
